<?xml version="1.0" encoding="utf-8"?>
<!-- Generator: Adobe Illustrator 16.0.4, SVG Export Plug-In . SVG Version: 6.00 Build 0)  -->
<!DOCTYPE svg PUBLIC "-//W3C//DTD SVG 1.1//EN" "http://www.w3.org/Graphics/SVG/1.1/DTD/svg11.dtd">
<svg version="1.1" id="Layer_1" xmlns="http://www.w3.org/2000/svg" xmlns:xlink="http://www.w3.org/1999/xlink" x="0px" y="0px"
	 width="650px" height="250px" viewBox="0 0 650 250" enable-background="new 0 0 650 250" xml:space="preserve">
<g>
	<defs>
		<rect id="SVGID_1_" x="257" width="393" height="250"/>
	</defs>
	<clipPath id="SVGID_2_">
		<use xlink:href="#SVGID_1_"  overflow="visible"/>
	</clipPath>
	<path clip-path="url(#SVGID_2_)" fill="#B7B7B7" d="M617.768,130.836c0,90.727-73.543,164.272-164.266,164.272
		c-90.727,0-164.269-73.546-164.269-164.272c0-90.722,73.542-164.269,164.269-164.269
		C544.225-33.433,617.768,40.114,617.768,130.836z"/>
	<path clip-path="url(#SVGID_2_)" fill="#FFFFFF" d="M590.824,130.836c0,75.846-61.479,137.328-137.322,137.328
		c-75.846,0-137.325-61.482-137.325-137.328c0-75.842,61.479-137.325,137.325-137.325C529.345-6.489,590.824,54.994,590.824,130.836
		z"/>
	<path clip-path="url(#SVGID_2_)" fill="#B7B7B7" d="M568.465,130.836c0,63.496-51.469,114.969-114.963,114.969
		c-63.496,0-114.967-51.473-114.967-114.969c0-63.493,51.471-114.966,114.967-114.966C516.996,15.87,568.465,67.343,568.465,130.836
		z"/>
	<path clip-path="url(#SVGID_2_)" fill="#FFFFFF" d="M542.139,130.836c0,48.955-39.684,88.643-88.637,88.643
		c-48.954,0-88.639-39.688-88.639-88.643c0-48.95,39.685-88.638,88.639-88.638C502.455,42.198,542.139,81.886,542.139,130.836z"/>
	<path clip-path="url(#SVGID_2_)" fill="#B7B7B7" d="M517.566,130.836c0,35.385-28.683,64.067-64.064,64.067
		c-35.387,0-64.066-28.683-64.066-64.067c0-35.382,28.68-64.063,64.066-64.063C488.884,66.772,517.566,95.454,517.566,130.836z"/>
	<circle clip-path="url(#SVGID_2_)" fill="#FFFFFF" cx="453.5" cy="130.836" r="35.982"/>
</g>
<linearGradient id="SVGID_3_" gradientUnits="userSpaceOnUse" x1="164" y1="132" x2="454.2559" y2="132">
	<stop  offset="0" style="stop-color:#27B4E8"/>
	<stop  offset="0.2718" style="stop-color:#3FB8C0"/>
	<stop  offset="0.8794" style="stop-color:#7BC25B"/>
	<stop  offset="1" style="stop-color:#87C446"/>
</linearGradient>
<polygon fill="url(#SVGID_3_)" points="419.475,104 164,104 164,160 419.475,160 454.256,132 "/>
</svg>
