<?xml version="1.0" encoding="utf-8"?>
<!-- Generator: Adobe Illustrator 16.0.4, SVG Export Plug-In . SVG Version: 6.00 Build 0)  -->
<!DOCTYPE svg PUBLIC "-//W3C//DTD SVG 1.1//EN" "http://www.w3.org/Graphics/SVG/1.1/DTD/svg11.dtd">
<svg version="1.1" id="Layer_1" xmlns="http://www.w3.org/2000/svg" xmlns:xlink="http://www.w3.org/1999/xlink" x="0px" y="0px"
	 width="770px" height="300px" viewBox="0 0 770 300" enable-background="new 0 0 770 300" xml:space="preserve">
<g>
	<polygon fill="none" points="722.364,1.776 720.445,5.618 725.649,13.843 728.67,13.568 729.217,16.588 734.976,11.926 
		734.976,9.183 736.901,3.699 742.991,-0.333 729.095,-0.333 729.217,0.133 	"/>
	<g>
		<polygon fill="none" points="770.166,289.553 769.491,286.402 769.491,289.594 		"/>
		<polygon fill="none" points="762.486,214.672 758.09,215.77 753.156,214.125 749.86,217.41 740.539,219.336 743.007,220.984 
			740.539,221.807 738.066,225.098 736.427,221.527 734.498,221.258 735.329,222.627 734.783,226.197 733.953,225.643 
			733.405,229.209 729.842,234.695 732.584,237.713 734.498,241.824 735.057,239.906 734.783,245.943 738.893,254.164 
			739.718,254.99 742.182,257.457 745.75,263.494 749.045,264.043 749.86,265.686 747.396,265.139 745.75,266.785 743.833,274.736 
			741.915,273.641 741.915,278.58 743.281,284.607 748.764,285.98 751.785,289.279 756.999,291.469 765.773,289.822 
			769.491,289.594 769.491,286.402 769.344,285.709 768.514,278.58 769.491,276.467 769.491,274.627 766.322,272.816 
			769.061,270.896 766.322,269.529 767.416,268.428 766.322,267.611 763.578,268.428 762.758,265.686 763.578,260.199 
			764.672,262.668 769.491,263.51 769.491,255.854 768.24,253.895 766.868,253.619 762.758,255.812 763.03,259.652 761.382,254.719 
			762.486,248.406 755.348,245.389 753.702,239.359 748.764,234.969 756.446,234.969 754.799,231.678 755.627,230.031 
			758.64,230.031 760.014,228.385 769.491,230.129 769.491,224.072 765.496,217.139 		"/>
		<polygon fill="none" points="770.166,275.014 769.491,274.627 769.491,276.467 		"/>
		<polygon fill="none" points="773.452,230.857 773.176,228.936 774,228.936 773.452,227.287 769.606,224.271 769.491,224.072 
			769.491,230.129 		"/>
		<polygon fill="none" points="576.43,249.275 576.436,249.281 577.446,248.271 		"/>
		<polygon fill="none" points="487.11,250.053 485.461,249.23 486.561,250.879 		"/>
		<polygon fill="none" points="699.942,8.972 701.597,10.06 700.49,14.999 694.193,21.583 687.881,24.327 664.014,18.292 
			663.739,15.823 658.802,15.551 653.044,10.06 650.575,11.156 665.934,27.071 665.388,33.104 663.475,34.475 666.204,40.239 
			666.481,43.525 665.111,45.72 670.327,46.819 673.617,50.927 680.748,53.949 684.586,52.575 682.666,45.72 679.651,46.819 
			676.08,42.43 675.262,39.958 677.455,36.39 685.135,40.785 683.488,41.603 684.036,43.525 685.961,41.328 698.849,45.445 
			693.64,34.475 693.361,30.64 701.859,24.874 706.529,18.562 713.387,22.129 712.566,24.874 714.485,23.775 716.401,27.071 
			716.123,21.583 718.599,12.529 714.757,7.591 716.123,1.557 716.176,0 696.592,0 699.396,3.209 		"/>
		<polygon fill="none" points="770.981,263.77 772.082,262.943 770.981,262.396 773.728,260.199 770.166,256.91 769.491,255.854 
			769.491,263.51 		"/>
		<path fill="none" d="M510.418,189.986l-2.466,2.203l0.82,2.738l2.741,0.273l0.281-1.648L510.418,189.986z M511.357,194.953
			l-2.339-0.188l-0.873-2.463v-0.094l2.151-1.84l1.341,3.117L511.357,194.953z"/>
		<polygon fill="none" points="565.449,219.301 566.081,218.031 566.081,218.031 		"/>
		<polygon fill="#B7B7B7" stroke="#FFFFFF" stroke-width="0.25" points="522.766,296.955 523.586,292.838 522.49,292.295 
			524.964,289.553 520.567,290.1 517.283,288.451 515.633,289.822 512.344,288.451 506.855,291.195 504.932,290.1 499.453,289.822 
			485.187,292.566 479.976,295.035 478.606,296.68 473.946,297.504 471.68,300 523.335,300 		"/>
		<polygon fill="#B7B7B7" stroke="#FFFFFF" stroke-width="0.25" points="451.456,299.697 449.261,296.68 446.79,297.775 
			445.821,300 452.061,300 		"/>
		<polygon fill="#B7B7B7" stroke="#FFFFFF" stroke-width="0.25" points="535.384,296.955 534.562,295.035 537.849,290.1 
			537.58,288.723 534.562,290.92 533.468,290.369 533.189,287.625 529.892,287.078 524.964,289.553 522.49,292.295 523.586,292.838 
			522.766,296.955 523.335,300 537.762,300 537.58,298.324 		"/>
		<polygon fill="#B7B7B7" stroke="#FFFFFF" stroke-width="0.25" points="564.727,216.867 566.65,215.498 567.201,210.008 
			569.939,210.008 570.215,207.268 568.017,201.508 559.243,199.58 556.503,202.605 552.391,201.781 547.444,205.9 548,210.832 
			546.899,211.379 544.154,210.287 538.126,212.482 534.562,211.379 533.189,213.029 530.721,211.379 528.798,211.93 
			529.892,215.77 533.735,216.867 543.061,215.227 545.257,218.236 551.564,219.883 556.223,220.16 		"/>
		<polygon fill="#B7B7B7" stroke="#FFFFFF" stroke-width="0.25" points="499.725,188.617 500.824,191.359 504.665,190.543 
			504.665,193.553 508.772,194.928 507.952,192.189 510.418,189.986 511.514,187.789 510.15,185.326 508.502,184.504 
			507.952,181.486 505.211,179.838 498.625,181.209 496.707,180.113 493.141,182.312 493.141,184.504 		"/>
		<polygon fill="#B7B7B7" stroke="#FFFFFF" stroke-width="0.25" points="662.099,299.145 656.605,299.697 656.076,300 663.587,300 
			665.111,297.504 		"/>
		<polygon fill="#B7B7B7" stroke="#FFFFFF" stroke-width="0.25" points="585.302,197.668 582.829,195.201 580.362,196.016 
			577.619,194.373 573.507,190.812 573.23,188.891 569.117,188.068 568.017,189.717 563.635,185.051 559.513,182.855 
			557.051,184.225 554.307,181.756 554.035,183.955 544.154,189.986 542.505,188.617 545.528,195.471 552.391,201.781 
			556.503,202.605 559.243,199.58 568.017,201.508 570.215,207.268 573.779,209.732 577.34,209.732 578.993,207.545 
			585.302,206.445 589.691,203.434 597.365,204.525 599.012,198.758 593.527,196.016 		"/>
		<rect x="566.081" y="218.031" fill="#B7B7B7" stroke="#FFFFFF" stroke-width="0.25" width="0" height="0"/>
		<polygon fill="#B7B7B7" stroke="#FFFFFF" stroke-width="0.25" points="585.302,206.445 578.993,207.545 577.34,209.732 
			573.779,209.732 570.215,207.268 569.939,210.008 567.201,210.008 566.65,215.498 564.727,216.867 566.062,218.014 
			566.132,217.928 566.081,218.031 574.602,225.371 578.844,223.998 583.932,222.352 586.947,222.627 591.886,220.984 
			596.545,210.832 600.932,208.092 597.365,204.525 589.691,203.434 		"/>
		<polygon fill="#B7B7B7" stroke="#FFFFFF" stroke-width="0.25" points="529.892,148.303 528.798,146.098 529.892,141.436 
			529.346,140.338 530.995,140.338 530.721,138.695 533.189,137.875 533.189,135.684 534.28,136.225 536.208,134.58 
			536.208,132.947 532.361,133.207 533.189,131.291 531.819,131.291 534.28,125.26 533.735,120.315 522.49,128.551 521.118,133.764 
			521.396,141.719 524.41,143.908 524.41,147.754 529.076,148.303 		"/>
		<polygon fill="#B7B7B7" stroke="#FFFFFF" stroke-width="0.25" points="532.089,141.986 530.449,142.271 532.361,146.652 
			536.208,146.098 536.477,144.453 535.105,141.16 		"/>
		<polygon fill="#B7B7B7" stroke="#FFFFFF" stroke-width="0.25" points="538.126,141.436 538.948,145.01 541.692,145.557 
			541.411,146.652 543.613,147.195 543.613,145.01 545.257,144.73 544.154,142.271 546.353,140.621 544.713,136.225 
			542.505,137.596 542.505,138.422 541.692,140.621 541.692,137.875 539.772,137.596 540.32,138.695 537.032,140.338 		"/>
		<polygon fill="#B7B7B7" stroke="#FFFFFF" stroke-width="0.25" points="513.442,168.863 515.633,171.609 513.164,175.178 
			510.15,174.896 510.15,185.326 511.514,187.789 510.418,189.986 511.795,193.553 511.514,195.201 513.989,197.939 
			521.118,199.861 518.381,206.988 518.381,210.832 525.231,210.561 528.798,211.93 530.721,211.379 533.189,213.029 
			534.562,211.379 538.126,212.482 544.154,210.287 546.899,211.379 548,210.832 547.444,205.9 552.391,201.781 545.528,195.471 
			542.505,188.617 544.154,189.986 554.035,183.955 554.307,181.756 557.051,184.225 558.138,179.568 556.503,177.375 
			555.397,168.045 554.035,166.943 555.131,162.562 554.035,158.445 547.444,152.691 544.435,153.787 545.528,152.137 
			539.219,156.801 535.384,156.801 537.032,153.234 531.819,152.961 530.721,151.592 530.721,148.842 529.076,148.303 
			524.41,147.754 526.334,151.592 524.41,153.234 526.876,157.625 524.135,158.445 524.41,162.562 523.586,160.643 521.666,161.467 
			521.118,159.541 519.474,159.268 517.006,159.541 515.907,161.467 518.381,163.652 515.907,163.381 515.082,167.775 		"/>
		<polygon fill="#B7B7B7" stroke="#FFFFFF" stroke-width="0.25" points="554.035,166.943 555.397,168.045 556.503,177.375 
			558.138,179.568 557.051,184.225 559.513,182.855 563.635,185.051 568.017,189.717 569.117,188.068 573.23,188.891 
			573.507,190.812 577.619,194.373 580.362,196.016 582.829,195.201 585.302,197.668 593.527,196.016 599.012,198.758 
			600.386,198.758 600.386,196.016 602.032,192.189 607.516,186.145 604.502,177.643 604.771,174.078 603.13,171.609 
			606.42,167.775 605.047,157.076 604.771,155.703 600.932,152.691 591.063,153.234 583.651,152.137 578.993,153.787 
			577.34,149.939 578.993,150.496 578.439,148.842 570.766,149.393 555.397,156.801 554.585,157.625 556.223,157.902 
			555.677,159.268 554.035,158.445 555.131,162.562 		"/>
		<polygon fill="#B7B7B7" stroke="#FFFFFF" stroke-width="0.25" points="620.133,255.266 619.311,255.266 619.311,257.184 
			617.389,258.285 615.744,259.109 609.986,256.639 602.032,258.285 591.332,261.85 591.886,264.043 586.947,270.35 
			589.962,274.463 591.886,275.014 592.157,275.838 589.962,275.838 592.157,279.402 600.386,279.129 603.13,280.496 
			601.762,281.596 605.6,281.871 607.79,284.062 607.516,280.496 599.565,275.562 602.032,275.014 601.762,272.816 603.4,273.367 
			600.386,268.156 600.386,264.043 601.762,263.77 601.206,264.869 605.047,268.428 604.771,266.232 607.516,268.156 
			606.42,265.412 609.16,266.512 605.869,263.77 609.986,261.299 613.002,261.025 618.765,262.668 621.232,257.457 		"/>
		<polygon fill="#B7B7B7" stroke="#FFFFFF" stroke-width="0.25" points="604.502,285.434 602.854,282.143 596.817,279.949 
			593.527,280.496 592.157,283.238 594.898,286.807 594.898,289.553 595.723,290.369 596.817,288.451 598.466,292.566 
			600.386,290.1 602.854,292.566 600.658,284.887 602.854,286.807 		"/>
		<polygon fill="#B7B7B7" stroke="#FFFFFF" stroke-width="0.25" points="611.081,281.32 608.89,277.482 604.502,274.736 
			602.576,276.111 608.89,280.225 609.986,282.143 611.081,282.143 		"/>
		<polygon fill="#B7B7B7" points="385.357,51.481 389.472,51.206 394.685,45.445 397.149,47.363 400.713,42.43 399.341,41.883 
			403.183,39.138 404.549,35.019 402.909,34.475 403.455,32.279 401.811,29.26 397.693,28.993 397.971,24.048 396.057,24.327 
			398.248,19.659 393.86,22.68 389.738,18.019 388.099,18.562 388.91,22.68 383.984,22.68 382.338,25.144 378.769,22.68 
			379.864,29.533 376.305,22.404 372.73,24.327 372.46,28.721 367.797,23.501 367.528,30.64 365.052,29.533 364.78,32.552 
			363.14,35.019 362.045,30.363 359.85,28.721 362.311,27.892 360.953,25.968 362.045,24.874 356.277,19.389 352.718,18.836 
			352.446,20.758 356.014,21.583 353.81,22.404 356.277,23.775 356.277,27.071 349.97,23.228 350.795,24.048 348.598,24.327 
			349.97,26.522 348.88,26.792 351.625,29.533 346.955,27.62 348.88,30.64 345.858,29.814 345.038,32.006 356.014,30.363 
			359.579,32.279 356.014,36.121 359.85,35.297 359.302,37.764 354.369,37.491 348.327,40.785 355.455,40.239 358.197,44.626 
			359.579,43.525 357.931,46.819 359.579,46.268 359.579,48.462 354.907,49.833 355.186,52.849 363.14,52.302 369.724,56.418 
			376.853,58.336 		"/>
		<polygon fill="#B7B7B7" stroke="#FFFFFF" stroke-width="0.25" points="551.845,224.549 551.009,221.807 550.192,221.807 
			551.564,219.883 545.257,218.236 543.061,215.227 533.735,216.867 533.735,218.512 532.089,218.785 532.361,221.258 
			527.973,219.883 526.334,224.271 523.311,220.705 520.023,223.998 515.633,224.549 514.262,225.098 515.907,229.209 
			514.262,231.949 515.082,232.502 515.907,237.438 518.381,237.713 518.649,240.18 521.666,239.359 525.231,236.066 
			532.636,239.088 534.838,245.943 538.126,250.879 540.585,251.15 548.266,259.109 551.845,259.109 555.397,263.494 
			557.871,263.494 558.971,266.512 561.161,268.156 562.265,267.332 565.276,276.111 563.355,277.205 562.535,280.225 
			562.811,282.143 564.727,282.143 567.201,279.129 567.749,275.838 570.215,274.736 570.215,271.719 567.201,269.529 
			568.295,265.412 570.766,264.043 574.602,266.232 577.07,268.977 577.619,267.332 574.602,262.668 563.906,257.457 
			565.002,254.445 564.456,253.895 559.791,254.719 557.051,252.795 554.035,249.23 551.009,241.824 545.257,237.713 
			544.154,234.418 545.257,231.678 544.154,230.578 544.154,228.385 549.09,225.643 551.009,225.643 551.564,227.014 
			552.937,226.467 		"/>
		<polygon fill="#B7B7B7" stroke="#FFFFFF" stroke-width="0.25" points="522.214,261.299 523.864,268.428 523.586,273.094 
			525.231,275.838 527.704,273.367 529.076,273.641 529.892,272.271 529.892,262.943 529.076,259.926 527.146,258.555 
			524.135,261.85 		"/>
		<polygon fill="#B7B7B7" stroke="#FFFFFF" stroke-width="0.25" points="551.845,281.871 549.09,280.225 546.083,280.496 
			545.528,282.143 546.083,284.334 555.131,288.451 557.051,290.369 559.513,290.369 560.068,288.451 559.513,285.709 
			562.265,279.949 		"/>
		<polygon fill="#B7B7B7" stroke="#FFFFFF" stroke-width="0.25" points="505.211,179.838 507.952,181.486 508.502,184.504 
			510.15,185.326 510.15,174.896 513.164,175.178 515.633,171.609 513.442,168.863 515.082,167.775 515.907,163.381 
			513.989,161.467 507.403,163.381 507.128,166.4 507.952,166.676 506.855,169.693 507.128,171.887 504.932,170.793 
			504.932,168.863 506.031,168.045 504.932,166.4 500.553,175.178 501.373,176.822 504.384,177.096 499.179,178.748 
			501.373,179.838 496.707,180.113 498.625,181.209 		"/>
		<polygon fill="#B7B7B7" stroke="#FFFFFF" stroke-width="0.25" points="441.035,281.596 439.39,278.303 440.481,274.736 
			438.837,270.625 441.58,268.428 441.302,266.232 441.855,260.752 444.876,256.639 443.772,254.445 435.543,254.719 
			434.722,253.066 430.886,255.266 431.711,261.299 427.588,276.66 429.237,278.854 431.711,278.303 430.604,288.176 
			438.565,287.078 438.285,284.334 		"/>
		<polygon fill="#B7B7B7" stroke="#FFFFFF" stroke-width="0.25" points="630.284,227.84 629.458,217.139 625.621,209.189 
			622.326,205.9 612.726,209.189 610.534,207.816 600.932,208.092 596.545,210.832 591.886,220.984 586.947,222.627 
			589.691,224.549 591.886,229.209 593.527,229.762 593.802,232.227 598.199,234.695 599.291,233.598 600.111,234.695 
			599.012,235.516 600.658,237.713 602.032,237.982 601.206,239.359 602.304,240.459 615.47,241.549 623.698,237.982 
			633.022,240.459 634.113,231.678 635.215,232.775 634.667,235.242 637.415,232.775 637.682,228.113 632.202,229.209 		"/>
		<polygon fill="#B7B7B7" stroke="#FFFFFF" stroke-width="0.25" points="566.062,218.014 564.727,216.867 556.223,220.16 
			551.564,219.883 550.192,221.807 551.009,221.807 551.845,224.549 552.937,226.467 555.846,225.301 559.964,226.33 
			561.509,221.016 565.449,219.301 566.081,218.031 		"/>
		<polygon fill="#B7B7B7" stroke="#FFFFFF" stroke-width="0.25" points="566.081,218.031 566.062,218.014 566.081,218.031 		"/>
		<polygon fill="#B7B7B7" stroke="#FFFFFF" stroke-width="0.25" points="570.797,242.783 564.076,232.502 562.367,230.955 
			563.906,227.873 565.795,230.102 569.037,228.045 578.472,229.93 580.19,231.984 581.046,231.643 581.729,230.102 
			583.451,229.762 580.19,228.045 578.844,223.998 574.602,225.371 566.081,218.031 565.449,219.301 561.509,221.016 
			559.964,226.33 555.846,225.301 552.937,226.467 551.564,227.014 551.287,229.762 552.658,232.227 553.486,232.502 
			555.397,228.936 556.503,229.209 558.138,230.857 559.243,234.969 561.161,236.346 559.791,237.713 564.456,242.65 
			569.117,243.201 572.682,246.215 570.215,246.215 574.602,247.586 576.43,249.275 577.446,248.271 		"/>
		<polygon fill="#B7B7B7" stroke="#FFFFFF" stroke-width="0.25" points="566.081,218.031 566.132,217.928 566.081,218.031 		"/>
		<polygon fill="#B7B7B7" stroke="#FFFFFF" stroke-width="0.25" points="566.081,218.031 574.602,225.371 566.081,218.031 		"/>
		<polygon fill="#B7B7B7" stroke="#FFFFFF" stroke-width="0.25" points="566.132,217.928 566.062,218.014 566.081,218.031 		"/>
		<polygon fill="#B7B7B7" stroke="#FFFFFF" stroke-width="0.25" points="581.902,238.67 583.451,238.5 583.618,237.814 
			580.873,235.758 582.938,231.984 581.046,231.643 580.19,231.984 578.472,229.93 569.037,228.045 565.795,230.102 
			563.906,227.873 562.367,230.955 564.076,232.502 570.797,242.783 577.446,248.271 576.932,245.709 578.82,244.668 
			577.787,242.613 578.472,241.754 580.539,243.299 579.852,241.754 581.564,241.754 582.938,240.898 		"/>
		<polygon fill="#B7B7B7" stroke="#FFFFFF" stroke-width="0.25" points="578.844,223.998 580.19,228.045 583.451,229.762 
			581.729,230.102 581.046,231.643 582.938,231.984 580.873,235.758 583.618,237.814 583.451,238.5 581.902,238.67 582.938,240.898 
			581.564,241.754 581.393,242.613 586.875,246.732 586.362,248.1 584.992,247.24 585.082,249.162 586.672,249.779 589.415,252.795 
			593.565,250.154 599.012,250.326 599.012,249.23 601.206,245.662 599.012,242.65 598.466,240.459 599.012,238.26 600.658,237.713 
			599.012,235.516 600.111,234.695 599.291,233.598 598.199,234.695 593.802,232.227 593.527,229.762 591.886,229.209 
			589.691,224.549 586.947,222.627 583.932,222.352 		"/>
		<polygon fill="#B7B7B7" stroke="#FFFFFF" stroke-width="0.25" points="584.207,248.953 585.082,249.162 584.992,247.24 
			586.362,248.1 586.875,246.732 581.393,242.613 581.564,241.754 579.852,241.754 580.539,243.299 578.472,241.754 
			577.787,242.613 578.82,244.668 576.932,245.709 577.446,248.271 576.436,249.281 582.017,254.445 582.829,250.326 		"/>
		<polygon fill="#B7B7B7" stroke="#FFFFFF" stroke-width="0.25" points="576.418,249.301 576.436,249.281 576.43,249.275 		"/>
		<polygon fill="#B7B7B7" stroke="#FFFFFF" stroke-width="0.25" points="487.11,250.053 486.561,250.879 485.461,249.23 
			482.996,248.406 480.526,249.23 474.491,248.133 468.733,243.746 434.449,241.549 433.077,244.291 430.062,244.568 
			428.416,246.488 430.886,248.953 430.339,250.326 430.886,251.699 431.711,251.426 430.886,255.266 434.722,253.066 
			435.543,254.719 443.772,254.445 444.876,256.639 441.855,260.752 441.302,266.232 441.58,268.428 438.837,270.625 
			440.481,274.736 439.39,278.303 441.035,281.596 438.285,284.334 438.565,287.078 442.946,288.176 445.973,293.66 
			449.261,295.035 455.016,290.369 467.634,290.1 471.473,284.887 474.491,284.607 476.141,279.949 478.881,277.482 479.43,276.385 
			477.235,275.014 476.689,272.271 482.724,262.396 494.788,255.266 496.16,251.699 495.068,250.879 489.309,251.15 		"/>
		<polygon fill="#B7B7B7" points="539.772,108.253 540.585,104.415 540.039,101.677 541.411,97.83 544.435,95.634 545.257,90.7 
			543.061,86.311 546.353,81.924 543.329,76.989 542.784,67.663 544.154,61.901 542.784,58.062 543.329,54.504 548,50.655 
			554.035,49.012 554.035,45.995 551.845,42.43 555.397,35.297 556.503,24.048 559.791,22.404 561.161,17.742 566.097,10.612 
			565.002,6.225 567.495,0 561.463,0 561.982,1.557 560.068,3.209 562.811,3.209 556.78,4.578 554.585,11.435 549.918,15.551 
			549.646,17.193 550.744,17.742 548.824,18.562 550.192,21.307 545.528,25.968 548.266,24.327 548.824,26.792 546.899,25.968 
			546.353,29.26 545.257,29.533 546.083,33.104 544.154,30.64 543.061,34.475 544.435,33.378 544.713,35.845 539.219,38.861 
			538.948,40.785 539.772,41.328 539.219,44.071 537.032,43.25 532.361,49.012 532.361,50.927 530.449,52.302 532.636,56.139 
			538.948,52.849 532.361,58.062 530.449,55.046 527.973,56.418 528.798,58.062 527.704,58.888 526.876,56.69 524.135,57.789 
			518.649,62.725 515.36,64.643 518.649,66.567 518.381,67.937 512.344,68.208 513.442,69.032 512.887,70.131 513.164,72.599 
			511.795,70.406 510.15,72.873 510.697,74.242 505.758,73.146 506.031,75.614 512.344,75.887 504.932,77.536 506.31,78.902 
			504.932,81.371 505.211,84.391 511.795,84.12 512.887,81.371 512.887,83.57 515.633,83.84 518.381,79.729 517.283,83.57 
			518.928,83.018 515.907,84.661 516.187,86.583 515.082,87.132 513.989,84.661 505.211,86.583 506.31,87.408 506.31,89.059 
			504.665,88.23 505.758,90.149 508.502,89.325 505.758,92.891 506.31,95.089 507.682,93.717 507.952,95.634 507.128,96.732 
			507.403,97.83 511.795,90.974 515.633,90.974 513.442,93.442 512.887,92.07 508.772,98.38 511.795,98.931 506.031,102.768 
			506.31,103.863 511.795,101.953 509.872,108.253 507.952,107.434 507.403,110.449 511.795,114.832 513.989,114.015 
			513.442,117.029 518.928,117.029 526.601,111.275 529.346,106.333 532.361,107.162 533.735,104.415 532.636,100.024 
			534.28,101.677 533.735,98.38 534.838,97.83 535.384,104.958 537.849,106.333 538.126,109.08 		"/>
		<polygon fill="#B7B7B7" stroke="#FFFFFF" stroke-width="0.25" points="607.244,15.275 604.771,9.516 605,0 567.495,0 
			565.002,6.225 566.097,10.612 561.161,17.742 559.791,22.404 556.503,24.048 555.397,35.297 551.845,42.43 554.035,45.995 
			554.035,49.012 548,50.655 543.329,54.504 542.784,58.062 544.154,61.901 542.784,67.663 543.329,76.989 546.353,81.924 
			543.061,86.311 545.257,90.7 544.435,95.634 541.411,97.83 540.039,101.677 540.585,104.415 539.772,108.253 538.126,109.08 
			537.849,106.333 537.58,107.7 537.849,112.64 538.673,114.832 540.039,114.015 540.32,114.832 538.948,116.484 540.585,117.029 
			540.585,119.499 541.692,119.499 541.411,123.884 547.173,132.121 545.528,133.484 546.083,135.133 544.713,135.684 
			547.444,141.16 546.353,143.084 553.486,143.084 555.131,136.775 563.355,135.951 567.201,123.058 566.367,118.409 
			567.473,118.132 567.749,114.287 565.551,112.914 568.017,112.092 564.727,111.275 568.845,110.449 571.859,106.606 
			573.779,108.253 575.975,105.786 575.975,104.415 577.619,103.592 570.489,104.415 565.276,102.22 569.117,101.123 
			573.779,103.316 577.34,101.677 578.993,97.83 576.248,93.717 577.07,93.442 572.134,89.604 568.295,94.543 565.002,95.089 
			569.939,91.794 569.395,79.729 569.939,77.536 571.039,78.353 571.859,71.501 570.766,68.208 572.682,69.032 573.507,67.386 
			573.507,63.547 574.602,65.195 576.248,62.725 578.711,59.158 588.32,53.397 594.073,45.72 591.886,40.506 594.073,36.39 
			593.527,33.648 596.817,30.907 595.723,28.721 597.919,30.363 599.012,26.522 607.244,28.165 607.79,25.968 605.869,20.758 		"/>
		<polygon fill="#B7B7B7" stroke="#FFFFFF" stroke-width="0.25" points="578.175,118.674 575.703,122.24 575.428,127.998 
			579.269,123.613 578.993,120.315 579.814,118.674 		"/>
		<polygon fill="#B7B7B7" stroke="#FFFFFF" stroke-width="0.25" points="528.798,211.93 525.231,210.561 518.381,210.832 
			515.36,211.65 510.15,220.16 510.418,222.627 512.344,220.705 514.262,220.705 515.633,224.549 520.023,223.998 523.311,220.705 
			526.334,224.271 527.973,219.883 532.361,221.258 532.089,218.785 533.735,218.512 533.735,216.867 529.892,215.77 		"/>
		<polygon fill="#B7B7B7" stroke="#FFFFFF" stroke-width="0.25" points="515.907,237.438 515.082,232.502 514.262,231.949 
			515.907,229.209 514.262,225.098 515.633,224.549 514.262,220.705 512.344,220.705 510.418,222.627 510.15,220.16 515.36,211.65 
			518.381,210.832 518.381,206.988 521.118,199.861 513.989,197.939 511.514,195.201 508.772,194.928 504.665,193.553 
			504.665,190.543 500.824,191.359 499.725,188.617 493.141,184.504 493.141,182.312 487.935,183.955 487.11,189.717 
			479.976,193.822 479.43,196.016 481.076,196.297 472.847,196.84 471.473,194.373 468.462,194.104 470.378,203.146 
			464.069,203.434 459.683,201.508 452.829,203.705 452.554,205.348 454.746,205.074 453.647,206.17 454.746,207.268 
			453.102,207.545 455.016,209.732 456.938,209.189 464.895,211.93 465.168,213.574 469.012,214.125 466.813,214.398 
			467.366,217.41 468.733,219.883 472.301,221.527 472.301,225.643 474.765,229.486 473.12,227.287 472.022,233.322 473.12,233.871 
			471.202,242.1 468.733,243.746 474.491,248.133 480.526,249.23 482.996,248.406 485.461,249.23 487.11,250.053 489.309,251.15 
			495.068,250.879 494.788,247.586 495.335,245.389 499.725,242.65 505.211,243.471 511.242,245.943 518.649,240.18 
			518.381,237.713 		"/>
		<polygon fill="#B7B7B7" stroke="#FFFFFF" stroke-width="0.25" points="529.346,251.973 528.246,246.215 527.973,248.133 
			524.964,249.23 524.135,250.326 524.964,255.266 527.704,258.285 		"/>
		<polygon fill="#B7B7B7" stroke="#FFFFFF" stroke-width="0.25" points="727.923,296.68 723.536,295.035 720.243,290.1 
			719.973,287.078 717.498,287.357 716.949,286.529 710.097,285.709 707.632,287.625 704.336,291.469 701.048,292.566 700.66,300 
			727.028,300 726.827,298.6 		"/>
		<polygon fill="#B7B7B7" stroke="#FFFFFF" stroke-width="0.25" points="701.048,292.566 704.336,291.469 707.632,287.625 
			705.98,286.807 703.509,288.176 698.028,287.625 689.796,290.92 685.409,289.279 680.476,291.195 676.08,289.822 675.262,292.295 
			676.08,293.938 674.436,294.211 673.342,296.68 671.972,295.58 671.972,296.955 672.087,300 700.66,300 		"/>
		<polygon fill="#B7B7B7" stroke="#FFFFFF" stroke-width="0.25" points="620.133,255.266 621.232,257.457 618.765,262.668 
			621.777,263.494 619.858,265.139 619.579,267.332 626.988,261.025 633.845,260.752 634.938,259.109 630.284,256.91 
			629.458,254.164 624.799,253.619 		"/>
		<polygon fill="#B7B7B7" stroke="#FFFFFF" stroke-width="0.25" points="674.436,294.211 676.08,293.938 675.262,292.295 
			676.08,289.822 680.476,291.195 685.409,289.279 689.796,290.92 698.028,287.625 703.509,288.176 705.98,286.807 707.632,287.625 
			710.097,285.709 716.949,286.529 717.498,287.357 719.973,287.078 719.973,285.434 717.228,282.967 717.228,275.014 
			716.401,272.271 718.865,269.25 714.757,266.512 712.841,260.752 709.004,256.91 706.529,257.457 702.144,256.639 
			696.106,261.025 690.618,260.199 683.488,261.85 674.436,259.109 673.061,255.812 670.597,256.365 667.85,253.619 
			658.255,253.895 652.774,255.812 646.19,261.025 636.041,259.377 634.938,261.025 635.767,262.121 639.331,262.943 
			634.938,263.494 633.845,263.77 634.938,265.139 633.845,265.139 627.812,264.59 628.081,265.686 622.607,266.232 620.41,267.883 
			619.311,271.719 622.878,271.17 622.326,273.641 623.698,276.111 622.607,277.482 624.799,279.129 622.054,279.129 
			620.955,277.482 620.133,280.225 624.799,281.871 624.252,284.062 625.892,284.607 625.344,285.98 626.988,287.357 
			625.892,288.723 631.103,288.451 626.438,291.195 629.727,290.369 629.727,291.469 632.477,290.1 633.845,291.469 635.215,290.92 
			636.312,293.66 639.331,294.764 642.898,293.66 643.438,289.822 645.091,289.553 655.511,295.307 662.369,293.111 664.289,290.92 
			666.481,290.369 669.769,292.021 672.523,289.822 673.617,290.92 672.242,292.295 671.972,295.58 673.342,296.68 		"/>
		<polygon fill="#B7B7B7" stroke="#FFFFFF" stroke-width="0.25" points="769.491,286.402 769.491,285.668 769.344,285.709 		"/>
		<polygon fill="#B7B7B7" stroke="#FFFFFF" stroke-width="0.25" points="756.999,291.469 751.785,289.279 748.764,285.98 
			743.281,284.607 741.915,278.58 737.248,276.111 738.893,274.736 738.066,271.17 736.427,270.625 732.584,271.996 
			730.121,275.838 726.827,275.838 723.536,275.562 719.694,270.35 718.865,269.25 716.401,272.271 717.228,275.014 
			717.228,282.967 719.973,285.434 719.973,287.078 720.243,290.1 723.536,295.035 727.923,296.68 726.827,298.6 727.028,300 
			769.491,300 769.491,289.594 765.773,289.822 		"/>
		<polygon fill="#B7B7B7" stroke="#FFFFFF" stroke-width="0.25" points="585.577,92.62 584.207,92.62 583.932,95.36 585.848,96.455 
					"/>
		<polygon fill="#B7B7B7" stroke="#FFFFFF" stroke-width="0.25" points="647.557,66.292 647.557,62.174 644.267,58.062 
			641.531,54.218 643.178,47.363 640.701,44.35 640.43,40.506 638.782,40.239 638.782,34.475 640.701,27.892 635.767,12.529 
			640.156,3.479 638.478,0 605,0 604.771,9.516 607.244,15.275 605.869,20.758 607.79,25.968 614.37,32.279 615.744,38.586 
			611.081,40.506 610.252,44.071 600.658,56.69 597.919,59.708 595.177,59.708 594.898,62.447 592.981,62.447 591.063,66.567 
			592.432,71.501 592.157,73.694 594.631,80 593.527,80 593.527,83.57 592.432,85.761 593.527,88.23 592.703,89.604 599.291,93.717 
			600.932,92.62 602.304,96.732 603.678,95.634 604.502,97.281 609.16,96.185 617.389,91.794 626.988,90.149 639.331,78.631 		"/>
		<polygon fill="#B7B7B7" stroke="#FFFFFF" stroke-width="0.25" points="424.852,172.436 422.383,172.984 424.852,174.078 
			422.655,176.004 426.222,176.004 423.753,177.922 426.77,177.096 425.672,179.02 428.142,178.748 437.467,173.531 
			443.772,173.256 445.425,166.4 445.425,160.912 444.05,157.625 444.876,156.525 442.946,152.412 436.638,154.887 434.722,152.137 
			437.467,147.479 437.193,145.01 434.449,146.098 430.886,150.223 433.901,151.045 431.977,154.334 425.672,153.787 
			424.852,155.432 425.125,156.801 423.753,156.801 426.493,158.445 424.027,160.643 425.125,162.562 430.062,163.934 
			425.397,169.42 430.339,167.502 431.158,168.863 426.493,169.693 		"/>
		<polygon fill="#B7B7B7" stroke="#FFFFFF" stroke-width="0.25" points="436.638,154.887 442.946,152.412 444.876,156.525 
			448.163,153.787 447.335,151.592 448.163,152.961 448.432,152.137 445.973,150.496 446.515,147.754 444.876,145.557 
			439.39,146.928 440.481,145.01 438.565,144.186 437.467,147.479 434.722,152.137 		"/>
		<polygon fill="#B7B7B7" stroke="#FFFFFF" stroke-width="0.25" points="444.876,130.746 447.335,133.207 449.812,131.84 
			447.069,144.186 449.529,140.064 448.712,137.596 450.358,135.684 449.812,138.969 451.456,137.334 452.829,138.422 
			452.005,140.621 452.829,142.807 451.179,147.754 450.085,147.754 451.179,150.223 452.005,148.574 454.199,150.223 
			454.746,148.842 461.328,147.754 458.309,152.137 460.78,155.703 463.519,154.334 461.877,158.445 462.971,158.723 
			461.877,161.195 462.423,162.012 457.763,162.562 452.829,166.943 455.84,166.127 456.938,169.693 455.84,171.887 
			449.812,175.723 451.179,177.643 454.199,176.273 455.016,177.922 457.484,177.375 459.683,179.838 464.622,177.375 
			461.877,181.209 455.84,181.756 448.163,191.359 450.358,191.359 452.829,188.617 458.309,189.436 459.683,186.145 
			463.244,185.326 464.895,186.969 469.558,185.598 470.65,183.955 473.946,185.326 483.268,183.402 485.74,180.391 
			482.176,180.113 481.352,178.748 486.831,173.256 487.11,168.045 484.913,166.127 478.327,166.943 479.976,163.105 
			476.141,159.268 478.881,160.369 478.881,158.445 474.765,151.592 472.022,150.496 469.558,141.986 464.069,137.596 
			460.507,137.596 463.798,135.684 462.146,133.207 463.798,132.947 465.992,129.363 468.462,123.884 467.912,121.15 
			455.564,122.512 455.016,121.15 457.484,119.771 455.84,118.674 461.053,114.287 461.053,111.544 460.232,111.275 
			451.456,112.092 450.358,115.379 449.261,115.665 448.712,117.029 449.812,118.409 447.069,119.771 447.614,122.512 
			446.79,122.512 446.79,124.159 448.432,124.981 446.79,130.191 		"/>
		<polygon fill="#B7B7B7" stroke="#FFFFFF" stroke-width="0.25" points="600.386,107.434 596.545,108.528 598.466,110.449 
			601.206,109.08 		"/>
		<polygon fill="#B7B7B7" stroke="#FFFFFF" stroke-width="0.25" points="595.445,114.832 596.817,115.932 596.817,118.132 
			598.199,114.832 603.13,113.192 601.762,111.544 595.445,112.64 		"/>
		<polygon fill="#B7B7B7" stroke="#FFFFFF" stroke-width="0.25" points="619.311,119.499 621.777,122.24 624.799,121.692 
			626.722,122.24 626.438,121.416 628.358,119.226 628.081,117.58 626.988,116.484 626.438,114.287 625.621,114.015 
			624.252,108.528 628.636,107.162 630.832,103.592 630.557,100.574 629.188,99.477 628.636,102.768 627.812,103.041 
			616.015,100.574 604.502,105.512 603.948,109.348 605.869,110.17 604.502,111.275 605.6,114.287 609.986,114.015 609.44,119.226 
			614.924,117.58 		"/>
		<polygon fill="#B7B7B7" stroke="#FFFFFF" stroke-width="0.25" points="594.073,135.133 597.919,133.484 606.42,133.764 
			609.44,134.859 612.726,133.207 614.37,135.951 616.568,136.225 620.955,140.064 623.152,141.16 624.799,139.244 626.988,139.795 
			629.458,136.502 631.103,136.225 630.832,132.121 629.458,129.363 628.081,128.551 628.636,124.706 626.722,122.24 
			624.799,121.692 621.777,122.24 619.311,119.499 614.924,117.58 609.44,119.226 608.89,125.533 607.79,128.27 603.678,126.904 
			599.291,120.315 594.898,122.512 591.063,130.473 590.786,135.684 592.432,136.775 		"/>
		<polygon fill="#B7B7B7" stroke="#FFFFFF" stroke-width="0.25" points="600.932,152.691 601.762,148.842 600.658,146.652 
			596.817,146.098 592.432,144.186 592.432,144.73 591.886,147.754 589.138,146.928 589.962,145.557 585.848,147.479 
			583.651,152.137 591.063,153.234 		"/>
		<polygon fill="#B7B7B7" stroke="#FFFFFF" stroke-width="0.25" points="600.658,146.652 601.762,148.842 600.932,152.691 
			604.771,155.703 605.047,157.076 612.726,156.525 612.455,155.16 615.198,153.787 617.118,155.16 617.935,154.887 616.84,152.691 
			618.211,147.479 622.326,145.826 623.152,144.186 621.499,143.629 621.499,142.271 623.152,141.16 620.955,140.064 
			616.568,136.225 614.37,135.951 612.726,133.207 609.44,134.859 606.42,133.764 597.919,133.484 594.073,135.133 592.432,136.775 
			590.786,135.684 592.432,144.186 596.817,146.098 		"/>
		<polygon fill="#B7B7B7" stroke="#FFFFFF" stroke-width="0.25" points="626.988,139.795 624.799,139.244 623.152,141.16 
			621.499,142.271 621.499,143.629 623.152,144.186 622.326,145.826 618.211,147.479 616.84,152.691 617.935,154.887 
			617.118,155.16 615.198,153.787 612.455,155.16 612.726,156.525 605.047,157.076 606.42,167.775 603.13,171.609 604.771,174.078 
			604.502,177.643 609.706,176.549 611.081,174.896 618.211,174.631 624.252,176.273 625.892,177.922 627.264,177.922 
			628.081,179.289 630.832,177.922 634.113,179.568 635.767,177.643 637.961,179.838 641.793,179.289 642.898,180.113 
			643.992,179.289 644.544,175.455 646.19,173.811 650.301,172.984 648.655,165.855 647.557,164.209 648.927,162.836 
			652.494,163.934 655.511,161.467 655.511,160.094 654.689,159.814 654.419,158.445 653.044,157.902 650.575,158.172 
			650.301,155.98 648.381,154.334 645.362,148.842 646.19,145.557 645.362,143.908 645.637,141.436 641.793,138.969 
			637.415,140.338 637.682,138.422 636.588,137.596 631.377,136.775 631.103,136.225 629.458,136.502 		"/>
		<polygon fill="#B7B7B7" stroke="#FFFFFF" stroke-width="0.25" points="629.458,217.139 630.284,227.84 632.477,227.014 
			633.022,225.371 634.938,223.176 635.767,220.16 640.43,220.16 640.43,217.139 638.782,215.77 637.961,212.754 636.041,211.379 
			636.041,207.545 633.293,206.17 631.103,206.445 626.722,203.979 623.698,204.254 622.326,205.9 625.621,209.189 		"/>
		<polygon fill="#B7B7B7" stroke="#FFFFFF" stroke-width="0.25" points="685.686,210.832 687.054,210.287 688.704,208.365 
			690.073,209.189 693.094,209.189 694.193,205.074 693.361,204.799 693.094,201.781 695.006,200.682 693.094,199.309 
			694.73,198.758 695.559,197.396 694.73,195.201 695.28,194.648 689.796,192.189 688.146,192.447 685.686,190.812 683.763,191.359 
			680.196,187.244 676.357,188.617 674.987,188.617 673.889,187.514 670.873,187.514 669.769,186.145 669.506,182.58 
			668.13,180.664 666.481,180.939 663.739,179.838 662.919,176.822 664.289,176.273 664.289,175.455 660.999,171.066 
			653.866,171.332 651.674,173.811 650.301,172.984 646.19,173.811 644.544,175.455 643.992,179.289 642.898,180.113 
			641.793,179.289 637.961,179.838 635.767,177.643 634.113,179.568 630.832,177.922 628.081,179.289 627.264,177.922 
			625.892,177.922 624.252,176.273 618.211,174.631 611.081,174.896 609.706,176.549 604.502,177.643 607.516,186.145 
			602.032,192.189 600.386,196.016 600.386,198.758 599.012,198.758 597.365,204.525 600.932,208.092 610.534,207.816 
			612.726,209.189 622.326,205.9 623.698,204.254 626.722,203.979 631.103,206.445 633.293,206.17 636.041,207.545 636.041,211.379 
			637.961,212.754 638.782,215.77 640.43,217.139 640.43,220.16 635.767,220.16 634.938,223.176 633.022,225.371 632.477,227.014 
			630.284,227.84 632.202,229.209 637.682,228.113 637.961,225.098 638.782,226.74 642.072,223.723 640.701,220.984 
			642.898,222.627 643.992,219.883 650.301,217.967 652.222,220.16 648.927,220.16 651.121,220.984 650.031,222.352 
			659.906,223.451 660.725,224.271 653.866,228.385 658.529,230.578 658.529,234.969 661.545,236.066 669.769,230.578 
			674.987,231.129 675.81,228.113 667.578,229.209 666.481,226.467 664.289,225.643 664.84,224.271 662.644,224.549 
			660.452,222.352 662.099,222.627 662.369,221.258 664.289,223.998 665.388,222.627 666.481,224.271 666.481,222.627 
			667.85,220.16 668.961,221.527 671.424,219.062 685.135,215.227 684.865,212.205 		"/>
		<polygon fill="#B7B7B7" stroke="#FFFFFF" stroke-width="0.25" points="721.345,269.529 723.262,270.896 725.459,270.896 
			726.827,275.838 730.121,275.838 728.747,273.367 729.295,273.094 729.295,270.35 727.923,270.35 725.459,268.156 
			726.274,265.686 723.814,263.77 724.082,260.752 722.437,260.199 721.345,258.285 720.243,258.834 712.841,260.752 
			714.757,266.512 718.865,269.25 719.694,270.35 		"/>
		<polygon fill="#B7B7B7" stroke="#FFFFFF" stroke-width="0.25" points="723.262,270.896 721.345,269.529 719.694,270.35 
			723.536,275.562 726.827,275.838 725.459,270.896 		"/>
		<polygon fill="#B7B7B7" stroke="#FFFFFF" stroke-width="0.25" points="724.082,260.752 723.814,263.77 726.274,265.686 
			725.459,268.156 727.923,270.35 729.295,270.35 729.295,273.094 728.747,273.367 730.121,275.838 732.584,271.996 
			736.427,270.625 738.066,271.17 738.893,274.736 737.248,276.111 741.915,278.58 741.915,273.641 743.833,274.736 745.75,266.785 
			747.396,265.139 749.86,265.686 749.045,264.043 745.75,263.494 742.182,257.457 739.718,254.99 736.974,258.834 733.685,258.555 
			732.86,256.365 729.021,253.895 727.923,255.812 729.842,258.01 729.842,259.377 723.262,257.184 721.345,258.285 
			722.437,260.199 		"/>
		<polygon fill="#B7B7B7" stroke="#FFFFFF" stroke-width="0.25" points="709.004,256.91 712.841,260.752 720.243,258.834 
			721.345,258.285 723.262,257.184 729.842,259.377 729.842,258.01 727.923,255.812 729.021,253.895 725.181,251.699 
			725.181,249.508 722.437,248.133 719.694,247.586 715.855,248.953 710.097,244.568 703.785,244.291 697.756,242.1 693.094,242.65 
			695.559,244.842 701.048,248.133 703.238,253.619 703.238,255.812 702.144,256.639 706.529,257.457 		"/>
		<polygon fill="#B7B7B7" stroke="#FFFFFF" stroke-width="0.25" points="763.578,260.199 762.758,265.686 763.578,268.428 
			766.322,267.611 767.416,268.428 766.322,269.529 769.061,270.896 766.322,272.816 769.491,274.627 769.491,263.51 
			764.672,262.668 		"/>
		<polygon fill="#B7B7B7" stroke="#FFFFFF" stroke-width="0.25" points="769.344,285.709 769.491,285.668 769.491,276.467 
			768.514,278.58 		"/>
		<polygon fill="#B7B7B7" stroke="#FFFFFF" stroke-width="0.25" points="761.382,254.719 763.03,259.652 762.758,255.812 
			766.868,253.619 768.24,253.895 769.491,255.854 769.491,251.008 764.948,252.244 		"/>
		<polygon fill="#B7B7B7" stroke="#FFFFFF" stroke-width="0.25" points="758.64,230.031 755.627,230.031 754.799,231.678 
			756.446,234.969 748.764,234.969 753.702,239.359 755.348,245.389 762.486,248.406 761.382,254.719 764.948,252.244 
			769.491,251.008 769.491,230.129 760.014,228.385 		"/>
		<polygon fill="#B7B7B7" stroke="#FFFFFF" stroke-width="0.25" points="762.486,178.469 761.382,176.273 760.562,176.273 
			758.92,176.549 757.819,178.748 757.273,178.195 755.899,178.469 755.348,176.822 752.058,177.375 749.86,180.391 
			745.478,182.027 744.926,184.225 742.182,185.871 740.816,186.145 742.461,191.359 739.991,193.273 735.057,186.969 
			734.234,190.812 732.308,192.189 731.491,196.84 732.86,198.492 730.939,200.129 729.842,204.254 732.584,205.348 
			733.405,208.914 734.498,210.008 734.498,209.189 738.893,209.732 740.816,212.205 743.007,217.693 739.991,217.693 
			739.718,219.062 740.539,219.336 749.86,217.41 753.156,214.125 758.09,215.77 762.486,214.672 765.496,217.139 769.491,224.072 
			769.491,180.566 767.691,178.469 		"/>
		<polygon fill="#B7B7B7" stroke="#FFFFFF" stroke-width="0.25" points="591.332,261.85 588.584,258.285 589.415,252.795 
			586.672,249.779 585.082,249.162 584.207,248.953 582.829,250.326 582.017,254.445 583.651,255.266 582.561,258.285 
			582.829,264.869 582.017,264.869 586.947,270.35 591.886,264.043 		"/>
		<polygon fill="#B7B7B7" stroke="#FFFFFF" stroke-width="0.25" points="589.415,252.795 588.584,258.285 591.332,261.85 
			602.032,258.285 601.206,253.619 599.012,251.699 599.012,250.326 593.565,250.154 		"/>
		<polygon fill="#B7B7B7" stroke="#FFFFFF" stroke-width="0.25" points="615.47,241.549 602.304,240.459 601.206,239.359 
			602.032,237.982 600.658,237.713 599.012,238.26 598.466,240.459 599.012,242.65 601.206,245.662 599.012,249.23 599.012,250.326 
			599.012,251.699 601.206,253.619 602.032,258.285 609.986,256.639 615.744,259.109 617.389,258.285 619.311,257.184 
			619.311,255.266 620.133,255.266 624.799,253.619 629.458,254.164 626.722,250.053 628.636,248.133 629.188,245.389 
			631.923,243.201 633.022,240.459 623.698,237.982 		"/>
		<polygon fill="#B7B7B7" stroke="#FFFFFF" stroke-width="0.25" points="703.785,244.291 710.097,244.568 715.855,248.953 
			719.694,247.586 722.437,248.133 725.181,249.508 725.181,251.699 729.021,253.895 732.86,256.365 733.685,258.555 
			736.974,258.834 739.718,254.99 738.893,254.164 734.783,245.943 735.057,239.906 734.498,241.824 732.584,237.713 
			729.842,234.695 733.405,229.209 733.953,225.643 734.783,226.197 735.329,222.627 734.498,221.258 736.427,221.527 
			738.066,225.098 740.539,221.807 743.007,220.984 740.539,219.336 739.718,219.062 739.991,217.693 743.007,217.693 
			740.816,212.205 738.893,209.732 734.498,209.189 734.498,210.008 733.405,208.914 732.584,205.348 729.842,204.254 
			730.939,200.129 732.86,198.492 731.491,196.84 732.308,192.189 734.234,190.812 735.057,186.969 739.991,193.273 
			742.461,191.359 740.816,186.145 742.182,185.871 744.926,184.225 745.478,182.027 749.86,180.391 752.058,177.375 
			755.348,176.822 755.899,178.469 757.273,178.195 757.819,178.748 758.92,176.549 760.562,176.273 761.382,176.273 
			762.486,178.469 767.691,178.469 769.491,180.566 769.491,0 743.616,0 737.526,4.032 735.601,9.516 735.601,12.259 
			729.842,16.922 729.295,13.902 726.274,14.177 721.07,5.952 722.989,2.11 729.842,0.467 729.72,0 716.176,0 716.123,1.557 
			714.757,7.591 718.599,12.529 716.123,21.583 716.401,27.071 714.485,23.775 712.566,24.874 713.387,22.129 706.529,18.562 
			701.859,24.874 693.361,30.64 693.64,34.475 698.849,45.445 685.961,41.328 684.036,43.525 683.488,41.603 685.135,40.785 
			677.455,36.39 675.262,39.958 676.08,42.43 679.651,46.819 682.666,45.72 684.586,52.575 680.748,53.949 673.617,50.927 
			670.327,46.819 665.111,45.72 666.481,43.525 666.204,40.239 663.475,34.475 665.388,33.104 665.934,27.071 650.575,11.156 
			653.044,10.06 658.802,15.551 663.739,15.823 664.014,18.292 687.881,24.327 694.193,21.583 700.49,14.999 701.597,10.06 
			699.942,8.972 699.396,3.209 696.592,0 638.478,0 640.156,3.479 635.767,12.529 640.701,27.892 638.782,34.475 638.782,40.239 
			640.43,40.506 640.701,44.35 643.178,47.363 641.531,54.218 644.267,58.062 647.557,62.174 647.557,66.292 639.331,78.631 
			626.988,90.149 632.202,89.059 632.202,92.07 631.103,90.974 631.923,93.442 638.782,95.089 641.248,97.562 634.938,97.281 
			630.557,100.574 630.832,103.592 628.636,107.162 624.252,108.528 625.621,114.015 626.438,114.287 626.988,116.484 
			628.081,117.58 628.358,119.226 626.438,121.416 626.722,122.24 628.636,124.706 628.081,128.551 629.458,129.363 
			630.832,132.121 631.103,136.225 631.377,136.775 636.588,137.596 637.682,138.422 637.415,140.338 641.793,138.969 
			645.637,141.436 645.362,143.908 646.19,145.557 645.362,148.842 648.381,154.334 650.301,155.98 650.575,158.172 
			653.044,157.902 654.419,158.445 654.689,159.814 655.511,160.094 655.511,161.467 652.494,163.934 648.927,162.836 
			647.557,164.209 648.655,165.855 650.301,172.984 651.674,173.811 653.866,171.332 660.999,171.066 664.289,175.455 
			664.289,176.273 662.919,176.822 663.739,179.838 666.481,180.939 668.13,180.664 669.506,182.58 669.769,186.145 
			670.873,187.514 673.889,187.514 674.987,188.617 676.357,188.617 680.196,187.244 683.763,191.359 685.686,190.812 
			688.146,192.447 689.796,192.189 695.28,194.648 694.73,195.201 695.559,197.396 694.73,198.758 693.094,199.309 695.006,200.682 
			693.094,201.781 693.361,204.799 694.193,205.074 693.094,209.189 690.073,209.189 688.704,208.365 687.054,210.287 
			685.686,210.832 684.865,212.205 685.135,215.227 689.525,214.125 690.618,215.498 685.686,217.139 685.961,218.236 
			682.395,218.512 681.848,219.613 685.961,222.9 682.94,223.723 680.196,228.385 677.186,228.385 676.08,229.762 679.922,233.871 
			681.294,233.598 687.334,237.438 693.094,242.65 697.756,242.1 		"/>
		<polygon fill="#B7B7B7" points="510.297,190.369 508.146,192.209 508.146,192.303 509.019,194.766 511.357,194.953 
			511.638,193.486 		"/>
	</g>
</g>
<path fill="#25B5E9" d="M480.629,159.671c0,9.219-7.48,16.703-16.707,16.703s-16.705-7.484-16.705-16.703
	c0-9.229,7.479-16.707,16.705-16.707S480.629,150.442,480.629,159.671z"/>
<path fill="#25B5E9" d="M544.516,82.63c0,9.224-7.486,16.702-16.712,16.702c-9.222,0-16.702-7.479-16.702-16.702
	c0-9.229,7.48-16.706,16.702-16.706C537.029,65.924,544.516,73.402,544.516,82.63z"/>
<path fill="#25B5E9" d="M577.515,109.058c0,9.224-7.487,16.703-16.712,16.703c-9.221,0-16.703-7.479-16.703-16.703
	c0-9.229,7.482-16.708,16.703-16.708C570.027,92.35,577.515,99.829,577.515,109.058z"/>
<path fill="#25B5E9" d="M550.033,133.087c0,9.225-7.488,16.701-16.713,16.701c-9.221,0-16.703-7.477-16.703-16.701
	c0-9.229,7.482-16.707,16.703-16.707C542.545,116.38,550.033,123.857,550.033,133.087z"/>
<path fill="#25B5E9" d="M573.674,166.46c0,9.23-7.48,16.709-16.704,16.709c-9.219,0-16.705-7.479-16.705-16.709
	c0-9.225,7.486-16.705,16.705-16.705C566.193,149.755,573.674,157.235,573.674,166.46z"/>
<path fill="#25B5E9" d="M638.449,154.454c0,9.225-7.479,16.709-16.703,16.709c-9.223,0-16.708-7.484-16.708-16.709
	c0-9.223,7.485-16.703,16.708-16.703C630.97,137.751,638.449,145.231,638.449,154.454z"/>
<path fill="#25B5E9" d="M513.9,212.503c0,9.225-7.479,16.707-16.706,16.707c-9.22,0-16.703-7.482-16.703-16.707
	c0-9.229,7.483-16.707,16.703-16.707C506.421,195.796,513.9,203.274,513.9,212.503z"/>
<path fill="#25B5E9" d="M469.24,268.024c0,9.225-7.48,16.707-16.701,16.707c-9.227,0-16.707-7.482-16.707-16.707
	c0-9.223,7.48-16.701,16.707-16.701C461.76,251.323,469.24,258.802,469.24,268.024z"/>
<path fill="#25B5E9" d="M582.899,268.024c0,9.225-7.479,16.707-16.706,16.707c-9.224,0-16.701-7.482-16.701-16.707
	c0-9.223,7.478-16.701,16.701-16.701C575.42,251.323,582.899,258.802,582.899,268.024z"/>
<circle fill="#25B5E9" cx="620.692" cy="99.057" r="16.707"/>
</svg>
