<?xml version="1.0" encoding="utf-8"?>
<!-- Generator: Adobe Illustrator 16.0.4, SVG Export Plug-In . SVG Version: 6.00 Build 0)  -->
<!DOCTYPE svg PUBLIC "-//W3C//DTD SVG 1.1//EN" "http://www.w3.org/Graphics/SVG/1.1/DTD/svg11.dtd">
<svg version="1.1" id="Layer_1" xmlns="http://www.w3.org/2000/svg" xmlns:xlink="http://www.w3.org/1999/xlink" x="0px" y="0px"
	 width="660px" height="330px" viewBox="55 0 660 330" enable-background="new 55 0 660 330" xml:space="preserve">
<g>
	<polygon fill="none" points="663.207,1.986 661.096,6.213 666.819,15.259 670.142,14.957 670.743,18.278 677.077,13.15 
		677.077,10.134 679.196,4.102 685.894,-0.333 670.609,-0.333 670.743,0.179 	"/>
	<g>
		<polygon fill="none" points="715.783,318.509 715.041,315.044 715.041,318.555 		"/>
		<polygon fill="none" points="707.337,236.148 702.501,237.356 697.074,235.547 693.449,239.16 683.197,241.278 685.911,243.092 
			683.197,243.996 680.477,247.616 678.674,243.688 676.553,243.393 677.466,244.897 676.866,248.825 675.952,248.215 
			675.351,252.138 671.431,258.172 674.447,261.491 676.553,266.013 677.166,263.903 676.866,270.544 681.386,279.585 
			682.293,280.495 685.004,283.208 688.928,289.848 692.553,290.451 693.449,292.258 690.739,291.656 688.928,293.468 
			686.819,302.213 684.71,301.007 684.71,306.44 686.213,313.07 692.243,314.579 695.566,318.208 701.301,320.617 710.952,318.806 
			715.041,318.555 715.041,315.044 714.878,314.281 713.966,306.44 715.041,304.117 715.041,302.093 711.556,300.102 
			714.566,297.99 711.556,296.485 712.759,295.274 711.556,294.376 708.537,295.274 707.635,292.258 708.537,286.224 
			709.739,288.938 715.041,289.865 715.041,281.443 713.665,279.29 712.155,278.986 707.635,281.398 707.935,285.622 
			706.121,280.196 707.337,273.252 699.484,269.935 697.675,263.302 692.243,258.473 700.692,258.473 698.881,254.853 
			699.792,253.042 703.105,253.042 704.616,251.231 715.041,253.15 715.041,246.487 710.646,238.861 		"/>
		<polygon fill="none" points="715.783,302.519 715.041,302.093 715.041,304.117 		"/>
		<polygon fill="none" points="719.397,253.951 719.093,251.837 720,251.837 719.397,250.023 715.168,246.708 715.041,246.487 
			715.041,253.15 		"/>
		<polygon fill="none" points="502.694,274.208 502.701,274.215 503.813,273.104 		"/>
		<polygon fill="none" points="404.454,275.063 402.639,274.159 403.849,275.973 		"/>
		<polygon fill="none" points="638.545,9.901 640.364,11.099 639.147,16.531 632.222,23.772 625.278,26.79 599.027,20.152 
			598.726,17.437 593.294,17.137 586.962,11.099 584.246,12.304 601.14,29.808 600.538,36.444 598.434,37.952 601.437,44.292 
			601.741,47.906 600.235,50.32 605.972,51.529 609.59,56.047 617.433,59.371 621.654,57.86 619.543,50.32 616.227,51.529 
			612.299,46.702 611.398,43.983 613.812,40.058 622.258,44.892 620.447,45.792 621.05,47.906 623.167,45.489 637.343,50.017 
			631.612,37.952 631.307,33.734 640.653,27.392 645.79,20.45 653.332,24.373 652.431,27.392 654.54,26.183 656.648,29.808 
			656.342,23.772 659.064,13.813 654.839,8.382 656.342,1.746 656.4,0.033 634.859,0.033 637.944,3.562 		"/>
		<polygon fill="none" points="716.68,290.15 717.89,289.242 716.68,288.641 719.701,286.224 715.783,282.605 715.041,281.443 
			715.041,289.865 		"/>
		<path fill="none" d="M430.089,208.997l-2.712,2.423l0.902,3.011l3.014,0.301l0.31-1.812L430.089,208.997z M431.123,214.461
			l-2.574-0.208l-0.96-2.708v-0.104l2.366-2.023l1.474,3.428L431.123,214.461z"/>
		<polygon fill="none" points="490.617,241.24 491.312,239.844 491.312,239.844 		"/>
		<polygon fill="#B7B7B7" stroke="#FFFFFF" stroke-width="0.25" points="443.67,326.651 444.571,322.123 443.367,321.525 
			446.088,318.509 441.253,319.11 437.64,317.298 435.824,318.806 432.207,317.298 426.17,320.315 424.055,319.11 418.029,318.806 
			402.339,321.824 396.605,324.539 395.101,326.348 389.975,327.255 387.48,330 444.296,330 		"/>
		<polygon fill="#B7B7B7" stroke="#FFFFFF" stroke-width="0.25" points="365.238,329.667 362.823,326.348 360.106,327.553 
			359.04,330 365.902,330 		"/>
		<polygon fill="#B7B7B7" stroke="#FFFFFF" stroke-width="0.25" points="457.549,326.651 456.646,324.539 460.26,319.11 
			459.965,317.597 456.646,320.013 455.441,319.406 455.136,316.39 451.508,315.787 446.088,318.509 443.367,321.525 
			444.571,322.123 443.67,326.651 444.296,330 460.164,330 459.965,328.157 		"/>
		<polygon fill="#B7B7B7" stroke="#FFFFFF" stroke-width="0.25" points="489.822,238.563 491.938,237.058 492.545,231.019 
			495.557,231.019 495.858,228.005 493.441,221.669 483.792,219.55 480.777,222.877 476.254,221.97 470.814,226.5 471.425,231.925 
			470.215,232.527 467.195,231.325 460.565,233.74 456.646,232.527 455.136,234.342 452.42,232.527 450.305,233.132 
			451.508,237.356 455.736,238.563 465.992,236.759 468.407,240.068 475.346,241.881 480.469,242.186 		"/>
		<polygon fill="#B7B7B7" stroke="#FFFFFF" stroke-width="0.25" points="418.328,207.49 419.537,210.508 423.762,209.61 
			423.762,212.92 428.279,214.432 427.377,211.42 430.089,208.997 431.294,206.58 429.795,203.871 427.982,202.967 427.377,199.648 
			424.362,197.835 417.118,199.343 415.009,198.138 411.086,200.557 411.086,202.967 		"/>
		<polygon fill="#B7B7B7" stroke="#FFFFFF" stroke-width="0.25" points="596.921,329.059 590.879,329.667 590.297,330 598.559,330 
			600.235,327.255 		"/>
		<polygon fill="#B7B7B7" stroke="#FFFFFF" stroke-width="0.25" points="512.453,217.446 509.732,214.732 507.021,215.628 
			504.003,213.822 499.479,209.905 499.176,207.792 494.651,206.888 493.441,208.701 488.622,203.568 484.088,201.154 
			481.38,202.66 478.362,199.945 478.063,202.363 467.195,208.997 465.381,207.49 468.706,215.029 476.254,221.97 480.777,222.877 
			483.792,219.55 493.441,221.669 495.858,228.005 499.779,230.715 503.695,230.715 505.514,228.311 512.453,227.101 
			517.281,223.788 525.722,224.988 527.532,218.646 521.5,215.628 		"/>
		<polygon fill="#B7B7B7" stroke="#FFFFFF" stroke-width="0.25" points="491.312,239.844 491.312,239.844 491.312,239.844 		"/>
		<polygon fill="#B7B7B7" stroke="#FFFFFF" stroke-width="0.25" points="512.453,227.101 505.514,228.311 503.695,230.715 
			499.779,230.715 495.858,228.005 495.557,231.019 492.545,231.019 491.938,237.058 489.822,238.563 491.292,239.824 
			491.368,239.729 491.312,239.844 500.684,247.917 505.35,246.406 510.946,244.596 514.262,244.897 519.694,243.092 
			524.819,231.925 529.645,228.911 525.722,224.988 517.281,223.788 		"/>
		<polygon fill="#B7B7B7" stroke="#FFFFFF" stroke-width="0.25" points="451.508,163.15 450.305,160.726 451.508,155.597 
			450.908,154.39 452.721,154.39 452.42,152.582 455.136,151.68 455.136,149.271 456.335,149.865 458.454,148.057 458.454,146.261 
			454.224,146.546 455.136,144.439 453.628,144.439 456.335,137.805 455.736,132.366 443.367,141.425 441.858,147.159 
			442.165,155.908 445.479,158.317 445.479,162.547 450.611,163.15 		"/>
		<polygon fill="#B7B7B7" stroke="#FFFFFF" stroke-width="0.25" points="453.924,156.201 452.121,156.515 454.224,161.334 
			458.454,160.726 458.75,158.916 457.242,155.294 		"/>
		<polygon fill="#B7B7B7" stroke="#FFFFFF" stroke-width="0.25" points="460.565,155.597 461.47,159.528 464.487,160.13 
			464.178,161.334 466.6,161.932 466.6,159.528 468.407,159.221 467.195,156.515 469.614,154.701 467.809,149.865 465.381,151.374 
			465.381,152.281 464.487,154.701 464.487,151.68 462.374,151.374 462.979,152.582 459.361,154.39 		"/>
		<polygon fill="#B7B7B7" stroke="#FFFFFF" stroke-width="0.25" points="433.416,185.765 435.824,188.784 433.109,192.709 
			429.795,192.399 429.795,203.871 431.294,206.58 430.089,208.997 431.604,212.92 431.294,214.732 434.017,217.745 
			441.858,219.858 438.847,227.698 438.847,231.925 446.383,231.626 450.305,233.132 452.42,232.527 455.136,234.342 
			456.646,232.527 460.565,233.74 467.195,231.325 470.215,232.527 471.425,231.925 470.814,226.5 476.254,221.97 468.706,215.029 
			465.381,207.49 467.195,208.997 478.063,202.363 478.362,199.945 481.38,202.66 482.575,197.538 480.777,195.126 479.561,184.864 
			478.063,183.652 479.269,178.834 478.063,174.306 470.814,167.977 467.504,169.182 468.706,167.367 461.767,172.497 
			457.549,172.497 459.361,168.574 453.628,168.273 452.42,166.768 452.42,163.743 450.611,163.15 445.479,162.547 447.595,166.768 
			445.479,168.574 448.19,173.403 445.176,174.306 445.479,178.834 444.571,176.723 442.461,177.629 441.858,175.511 
			440.049,175.209 437.336,175.511 436.127,177.629 438.847,180.032 436.127,179.733 435.219,184.567 		"/>
		<polygon fill="#B7B7B7" stroke="#FFFFFF" stroke-width="0.25" points="478.063,183.652 479.561,184.864 480.777,195.126 
			482.575,197.538 481.38,202.66 484.088,201.154 488.622,203.568 493.441,208.701 494.651,206.888 499.176,207.792 
			499.479,209.905 504.003,213.822 507.021,215.628 509.732,214.732 512.453,217.446 521.5,215.628 527.532,218.646 
			529.043,218.646 529.043,215.628 530.854,211.42 536.886,204.772 533.57,195.421 533.867,191.5 532.062,188.784 535.681,184.567 
			534.171,172.8 533.867,171.289 529.645,167.977 518.789,168.574 510.638,167.367 505.514,169.182 503.695,164.95 505.514,165.562 
			504.904,163.743 496.465,164.35 479.561,172.497 478.668,173.403 480.469,173.709 479.869,175.209 478.063,174.306 
			479.269,178.834 		"/>
		<polygon fill="#B7B7B7" stroke="#FFFFFF" stroke-width="0.25" points="550.763,280.797 549.859,280.797 549.859,282.906 
			547.745,284.119 545.936,285.025 539.604,282.307 530.854,284.119 519.085,288.039 519.694,290.451 514.262,297.388 
			517.579,301.912 519.694,302.519 519.993,303.425 517.579,303.425 519.993,307.346 529.043,307.045 532.062,308.549 
			530.558,309.757 534.778,310.06 537.188,312.471 536.886,308.549 528.142,303.121 530.854,302.519 530.558,300.102 
			532.359,300.706 529.043,294.976 529.043,290.451 530.558,290.15 529.946,291.359 534.171,295.274 533.867,292.859 
			536.886,294.976 535.681,291.957 538.694,293.167 535.075,290.15 539.604,287.433 542.92,287.132 549.258,288.938 
			551.973,283.208 		"/>
		<polygon fill="#B7B7B7" stroke="#FFFFFF" stroke-width="0.25" points="533.57,313.979 531.758,310.358 525.119,307.946 
			521.5,308.549 519.993,311.564 523.008,315.488 523.008,318.509 523.914,319.406 525.119,317.298 526.932,321.824 529.043,319.11 
			531.758,321.824 529.344,313.377 531.758,315.488 		"/>
		<polygon fill="#B7B7B7" stroke="#FFFFFF" stroke-width="0.25" points="540.808,309.454 538.396,305.232 533.57,302.213 
			531.453,303.726 538.396,308.25 539.604,310.358 540.808,310.358 		"/>
		<polygon fill="#B7B7B7" points="292.537,56.657 297.062,56.354 302.795,50.017 305.506,52.127 309.425,46.702 307.916,46.1 
			312.142,43.081 313.645,38.55 311.841,37.952 312.441,35.536 310.633,32.216 306.104,31.922 306.41,26.483 304.305,26.79 
			306.714,21.656 301.889,24.979 297.354,19.852 295.551,20.45 296.444,24.979 291.026,24.979 289.215,27.689 285.29,24.979 
			286.494,32.517 282.579,24.675 278.648,26.79 278.351,31.623 273.222,25.882 272.926,33.734 270.202,32.517 269.903,35.837 
			268.099,38.55 266.896,33.429 264.48,31.623 267.188,30.711 265.694,28.595 266.896,27.392 260.551,21.359 256.636,20.75 
			256.337,22.865 260.261,23.772 257.837,24.675 260.551,26.183 260.551,29.808 253.613,25.582 254.521,26.483 252.104,26.79 
			253.613,29.204 252.415,29.501 255.435,32.517 250.298,30.413 252.415,33.734 249.091,32.826 248.189,35.236 260.261,33.429 
			264.183,35.536 260.261,39.763 264.48,38.856 263.878,41.57 258.452,41.27 251.807,44.892 259.647,44.292 262.663,49.117 
			264.183,47.906 262.37,51.529 264.183,50.923 264.183,53.336 259.044,54.844 259.351,58.162 268.099,57.56 275.34,62.087 
			283.182,64.196 		"/>
		<polygon fill="#B7B7B7" stroke="#FFFFFF" stroke-width="0.25" points="475.654,247.012 474.734,243.996 473.837,243.996 
			475.346,241.881 468.407,240.068 465.992,236.759 455.736,238.563 455.736,240.371 453.924,240.673 454.224,243.393 
			449.396,241.881 447.595,246.708 444.27,242.784 440.653,246.406 435.824,247.012 434.316,247.616 436.127,252.138 
			434.316,255.151 435.219,255.76 436.127,261.188 438.847,261.491 439.143,264.204 442.461,263.302 446.383,259.68 
			454.526,263.004 456.948,270.544 460.565,275.973 463.269,276.271 471.717,285.025 475.654,285.025 479.561,289.848 
			482.282,289.848 483.492,293.167 485.901,294.976 487.114,294.069 490.427,303.726 488.315,304.929 487.412,308.25 
			487.715,310.358 489.822,310.358 492.545,307.045 493.147,303.425 495.858,302.213 495.858,298.894 492.545,296.485 
			493.747,291.957 496.465,290.451 500.684,292.859 503.399,295.877 504.003,294.069 500.684,288.938 488.92,283.208 
			490.125,279.895 489.525,279.29 484.394,280.196 481.38,278.079 478.063,274.159 474.734,266.013 468.407,261.491 
			467.195,257.867 468.407,254.853 467.195,253.644 467.195,251.231 472.623,248.215 474.734,248.215 475.346,249.723 
			476.855,249.122 		"/>
		<polygon fill="#B7B7B7" stroke="#FFFFFF" stroke-width="0.25" points="443.063,287.433 444.878,295.274 444.571,300.406 
			446.383,303.425 449.103,300.706 450.611,301.007 451.508,299.501 451.508,289.242 450.611,285.923 448.488,284.415 
			445.176,288.039 		"/>
		<polygon fill="#B7B7B7" stroke="#FFFFFF" stroke-width="0.25" points="475.654,310.06 472.623,308.25 469.316,308.549 
			468.706,310.358 469.316,312.77 479.269,317.298 481.38,319.406 484.088,319.406 484.699,317.298 484.088,314.281 
			487.114,307.946 		"/>
		<polygon fill="#B7B7B7" stroke="#FFFFFF" stroke-width="0.25" points="424.362,197.835 427.377,199.648 427.982,202.967 
			429.795,203.871 429.795,192.399 433.109,192.709 435.824,188.784 433.416,185.765 435.219,184.567 436.127,179.733 
			434.017,177.629 426.773,179.733 426.47,183.055 427.377,183.357 426.17,186.677 426.47,189.089 424.055,187.886 424.055,185.765 
			425.264,184.864 424.055,183.055 419.238,192.709 420.141,194.519 423.452,194.819 417.728,196.637 420.141,197.835 
			415.009,198.138 417.118,199.343 		"/>
		<polygon fill="#B7B7B7" stroke="#FFFFFF" stroke-width="0.25" points="353.775,309.757 351.966,306.136 353.167,302.213 
			351.357,297.691 354.375,295.274 354.069,292.859 354.678,286.831 358,282.307 356.786,279.895 347.735,280.196 346.832,278.378 
			342.612,280.797 343.52,287.433 338.985,304.328 340.799,306.741 343.52,306.136 342.302,316.995 351.059,315.787 350.751,312.77 
					"/>
		<polygon fill="#B7B7B7" stroke="#FFFFFF" stroke-width="0.25" points="561.929,250.632 561.02,238.861 556.8,230.118 
			553.176,226.5 542.615,230.118 540.206,228.608 529.645,228.911 524.819,231.925 519.694,243.092 514.262,244.897 
			517.281,247.012 519.694,252.138 521.5,252.746 521.802,255.457 526.639,258.172 527.84,256.965 528.741,258.172 527.532,259.074 
			529.344,261.491 530.854,261.788 529.946,263.302 531.153,264.512 545.634,265.71 554.686,261.788 564.939,264.512 
			566.14,254.853 567.353,256.061 566.749,258.773 569.771,256.061 570.064,250.933 564.038,252.138 		"/>
		<polygon fill="#B7B7B7" stroke="#FFFFFF" stroke-width="0.25" points="491.292,239.824 489.822,238.563 480.469,242.186 
			475.346,241.881 473.837,243.996 474.734,243.996 475.654,247.012 476.855,249.122 480.054,247.839 484.583,248.972 
			486.283,243.126 490.617,241.24 491.312,239.844 		"/>
		<path fill="#B7B7B7" stroke="#FFFFFF" stroke-width="0.25" d="M491.312,239.844l-0.02-0.02L491.312,239.844z"/>
		<polygon fill="#B7B7B7" stroke="#FFFFFF" stroke-width="0.25" points="496.499,267.068 489.107,255.76 487.228,254.059 
			488.92,250.668 490.997,253.119 494.563,250.857 504.94,252.93 506.83,255.19 507.771,254.814 508.522,253.119 510.417,252.746 
			506.83,250.857 505.35,246.406 500.684,247.917 491.312,239.844 490.617,241.24 486.283,243.126 484.583,248.972 480.054,247.839 
			476.855,249.122 475.346,249.723 475.041,252.746 476.549,255.457 477.459,255.76 479.561,251.837 480.777,252.138 
			482.575,253.951 483.792,258.473 485.901,259.987 484.394,261.491 489.525,266.922 494.651,267.527 498.572,270.843 
			495.858,270.843 500.684,272.351 502.694,274.208 503.813,273.104 		"/>
		<path fill="#B7B7B7" stroke="#FFFFFF" stroke-width="0.25" d="M491.312,239.844l0.057-0.114L491.312,239.844z"/>
		<path fill="#B7B7B7" stroke="#FFFFFF" stroke-width="0.25" d="M491.312,239.844l9.372,8.073L491.312,239.844z"/>
		<polygon fill="#B7B7B7" stroke="#FFFFFF" stroke-width="0.25" points="491.368,239.729 491.292,239.824 491.312,239.844 		"/>
		<polygon fill="#B7B7B7" stroke="#FFFFFF" stroke-width="0.25" points="508.714,262.544 510.417,262.356 510.602,261.603 
			507.582,259.341 509.853,255.19 507.771,254.814 506.83,255.19 504.94,252.93 494.563,250.857 490.997,253.119 488.92,250.668 
			487.228,254.059 489.107,255.76 496.499,267.068 503.813,273.104 503.246,270.286 505.324,269.141 504.188,266.881 
			504.94,265.936 507.214,267.635 506.458,265.936 508.343,265.936 509.853,264.995 		"/>
		<polygon fill="#B7B7B7" stroke="#FFFFFF" stroke-width="0.25" points="505.35,246.406 506.83,250.857 510.417,252.746 
			508.522,253.119 507.771,254.814 509.853,255.19 507.582,259.341 510.602,261.603 510.417,262.356 508.714,262.544 
			509.853,264.995 508.343,265.936 508.153,266.881 514.184,271.411 513.619,272.915 512.112,271.97 512.212,274.084 
			513.96,274.764 516.978,278.079 521.543,275.175 527.532,275.364 527.532,274.159 529.946,270.234 527.532,266.922 
			526.932,264.512 527.532,262.093 529.344,261.491 527.532,259.074 528.741,258.172 527.84,256.965 526.639,258.172 
			521.802,255.457 521.5,252.746 519.694,252.138 517.281,247.012 514.262,244.897 510.946,244.596 		"/>
		<polygon fill="#B7B7B7" stroke="#FFFFFF" stroke-width="0.25" points="511.249,273.854 512.212,274.084 512.112,271.97 
			513.619,272.915 514.184,271.411 508.153,266.881 508.343,265.936 506.458,265.936 507.214,267.635 504.94,265.936 
			504.188,266.881 505.324,269.141 503.246,270.286 503.813,273.104 502.701,274.215 508.839,279.895 509.732,275.364 		"/>
		<polygon fill="#B7B7B7" stroke="#FFFFFF" stroke-width="0.25" points="502.682,274.236 502.701,274.215 502.694,274.208 		"/>
		<polygon fill="#B7B7B7" stroke="#FFFFFF" stroke-width="0.25" points="404.454,275.063 403.849,275.973 402.639,274.159 
			399.929,273.252 397.211,274.159 390.574,272.951 384.241,268.126 346.532,265.71 345.022,268.727 341.707,269.031 
			339.896,271.144 342.612,273.854 342.011,275.364 342.612,276.875 343.52,276.573 342.612,280.797 346.832,278.378 
			347.735,280.196 356.786,279.895 358,282.307 354.678,286.831 354.069,292.859 354.375,295.274 351.357,297.691 353.167,302.213 
			351.966,306.136 353.775,309.757 350.751,312.77 351.059,315.787 355.877,316.995 359.206,323.026 362.823,324.539 
			369.153,319.406 383.032,319.11 387.254,313.377 390.574,313.07 392.388,307.946 395.402,305.232 396.005,304.025 
			393.591,302.519 392.991,299.501 399.629,288.641 412.897,280.797 414.407,276.875 413.206,275.973 406.871,276.271 		"/>
		<polygon fill="#B7B7B7" points="462.374,119.099 463.269,114.878 462.669,111.867 464.178,107.635 467.504,105.22 468.407,99.794 
			465.992,94.966 469.614,90.141 466.288,84.713 465.688,74.455 467.195,68.117 465.688,63.895 466.288,59.981 471.425,55.748 
			478.063,53.941 478.063,50.623 475.654,46.702 479.561,38.856 480.777,26.483 484.394,24.675 485.901,19.548 491.329,11.705 
			490.125,6.88 492.868,0.033 486.232,0.033 486.804,1.746 484.699,3.562 487.715,3.562 481.082,5.068 478.668,12.61 
			473.535,17.137 473.235,18.944 474.444,19.548 472.332,20.45 473.837,23.469 468.706,28.595 471.717,26.79 472.332,29.501 
			470.215,28.595 469.614,32.216 468.407,32.517 469.316,36.444 467.195,33.734 465.992,37.952 467.504,36.746 467.809,39.459 
			461.767,42.776 461.47,44.892 462.374,45.489 461.767,48.506 459.361,47.603 454.224,53.941 454.224,56.047 452.121,57.56 
			454.526,61.78 461.47,58.162 454.224,63.895 452.121,60.578 449.396,62.087 450.305,63.895 449.103,64.804 448.19,62.386 
			445.176,63.595 439.143,69.024 435.524,71.133 439.143,73.249 438.847,74.757 432.207,75.054 433.416,75.961 432.804,77.17 
			433.109,79.884 431.604,77.472 429.795,80.185 430.396,81.691 424.963,80.486 425.264,83.201 432.207,83.501 424.055,85.314 
			425.57,86.816 424.055,89.532 424.362,92.854 431.604,92.556 432.804,89.532 432.804,91.951 435.824,92.248 438.847,87.727 
			437.64,91.951 439.449,91.344 436.127,93.151 436.435,95.265 435.219,95.869 434.017,93.151 424.362,95.265 425.57,96.173 
			425.57,97.988 423.762,97.077 424.963,99.187 427.982,98.281 424.963,102.203 425.57,104.621 427.079,103.111 427.377,105.22 
			426.47,106.428 426.773,107.635 431.604,100.095 435.824,100.095 433.416,102.809 432.804,101.3 428.279,108.24 431.604,108.847 
			425.264,113.067 425.57,114.271 431.604,112.17 429.488,119.099 427.377,118.199 426.773,121.515 431.604,126.336 
			434.017,125.438 433.416,128.752 439.449,128.752 447.888,122.423 450.908,116.988 454.224,117.9 455.736,114.878 
			454.526,110.048 456.335,111.867 455.736,108.24 456.948,107.635 457.549,115.476 460.26,116.988 460.565,120.009 		"/>
		<polygon fill="#B7B7B7" stroke="#FFFFFF" stroke-width="0.25" points="536.587,16.834 533.867,10.5 534.119,0.033 492.868,0.033 
			490.125,6.88 491.329,11.705 485.901,19.548 484.394,24.675 480.777,26.483 479.561,38.856 475.654,46.702 478.063,50.623 
			478.063,53.941 471.425,55.748 466.288,59.981 465.688,63.895 467.195,68.117 465.688,74.455 466.288,84.713 469.614,90.141 
			465.992,94.966 468.407,99.794 467.504,105.22 464.178,107.635 462.669,111.867 463.269,114.878 462.374,119.099 460.565,120.009 
			460.26,116.988 459.965,118.492 460.26,123.925 461.166,126.336 462.669,125.438 462.979,126.336 461.47,128.153 463.269,128.752 
			463.269,131.469 464.487,131.469 464.178,136.292 470.516,145.352 468.706,146.851 469.316,148.665 467.809,149.271 
			470.814,155.294 469.614,157.41 477.459,157.41 479.269,150.471 488.315,149.564 492.545,135.383 491.627,130.27 492.844,129.965 
			493.147,125.736 490.729,124.226 493.441,123.322 489.822,122.423 494.353,121.515 497.668,117.288 499.779,119.099 
			502.194,116.386 502.194,114.878 504.003,113.973 496.16,114.878 490.427,112.464 494.651,111.258 499.779,113.669 
			503.695,111.867 505.514,107.635 502.495,103.111 503.399,102.809 497.97,98.588 493.747,104.02 490.125,104.621 495.557,100.996 
			494.956,87.727 495.557,85.314 496.766,86.213 497.668,78.677 496.465,75.054 498.572,75.961 499.479,74.15 499.479,69.928 
			500.684,71.741 502.495,69.024 505.203,65.101 515.773,58.764 522.101,50.32 519.694,44.585 522.101,40.058 521.5,37.042 
			525.119,34.028 523.914,31.623 526.33,33.429 527.532,29.204 536.587,31.012 537.188,28.595 535.075,22.865 		"/>
		<polygon fill="#B7B7B7" stroke="#FFFFFF" stroke-width="0.25" points="504.614,130.562 501.896,134.484 501.593,140.817 
			505.816,135.993 505.514,132.366 506.418,130.562 		"/>
		<polygon fill="#B7B7B7" stroke="#FFFFFF" stroke-width="0.25" points="450.305,233.132 446.383,231.626 438.847,231.925 
			435.524,232.826 429.795,242.186 430.089,244.897 432.207,242.784 434.316,242.784 435.824,247.012 440.653,246.406 
			444.27,242.784 447.595,246.708 449.396,241.881 454.224,243.393 453.924,240.673 455.736,240.371 455.736,238.563 
			451.508,237.356 		"/>
		<polygon fill="#B7B7B7" stroke="#FFFFFF" stroke-width="0.25" points="436.127,261.188 435.219,255.76 434.316,255.151 
			436.127,252.138 434.316,247.616 435.824,247.012 434.316,242.784 432.207,242.784 430.089,244.897 429.795,242.186 
			435.524,232.826 438.847,231.925 438.847,227.698 441.858,219.858 434.017,217.745 431.294,214.732 428.279,214.432 
			423.762,212.92 423.762,209.61 419.537,210.508 418.328,207.49 411.086,202.967 411.086,200.557 405.359,202.363 404.454,208.701 
			396.605,213.217 396.005,215.628 397.816,215.938 388.764,216.535 387.254,213.822 383.942,213.525 386.05,223.473 
			379.111,223.788 374.286,221.669 366.748,224.086 366.445,225.894 368.856,225.592 367.647,226.797 368.856,228.005 
			367.048,228.311 369.153,230.715 371.267,230.118 380.018,233.132 380.319,234.941 384.546,235.547 382.128,235.848 
			382.737,239.16 384.241,241.881 388.164,243.688 388.164,248.215 390.875,252.443 389.065,250.023 387.858,256.662 
			389.065,257.266 386.956,266.316 384.241,268.126 390.574,272.951 397.211,274.159 399.929,273.252 402.639,274.159 
			404.454,275.063 406.871,276.271 413.206,275.973 412.897,272.351 413.5,269.935 418.328,266.922 424.362,267.824 
			430.995,270.544 439.143,264.204 438.847,261.491 		"/>
		<polygon fill="#B7B7B7" stroke="#FFFFFF" stroke-width="0.25" points="450.908,277.175 449.697,270.843 449.396,272.951 
			446.088,274.159 445.176,275.364 446.088,280.797 449.103,284.119 		"/>
		<polygon fill="#B7B7B7" stroke="#FFFFFF" stroke-width="0.25" points="669.32,326.348 664.495,324.539 660.873,319.11 
			660.576,315.787 657.854,316.095 657.25,315.184 649.713,314.281 647.002,316.39 643.377,320.617 639.761,321.824 639.334,330 
			668.337,330 668.114,328.459 		"/>
		<polygon fill="#B7B7B7" stroke="#FFFFFF" stroke-width="0.25" points="639.761,321.824 643.377,320.617 647.002,316.39 
			645.186,315.488 642.468,316.995 636.439,316.39 627.385,320.013 622.561,318.208 617.133,320.315 612.299,318.806 
			611.398,321.525 612.299,323.332 610.49,323.633 609.288,326.348 607.779,325.139 607.779,326.651 607.907,330 639.334,330 		"/>
		<polygon fill="#B7B7B7" stroke="#FFFFFF" stroke-width="0.25" points="550.763,280.797 551.973,283.208 549.258,288.938 
			552.572,289.848 550.461,291.656 550.153,294.069 558.304,287.132 565.845,286.831 567.047,285.025 561.929,282.605 
			561.02,279.585 555.896,278.986 		"/>
		<polygon fill="#B7B7B7" stroke="#FFFFFF" stroke-width="0.25" points="610.49,323.633 612.299,323.332 611.398,321.525 
			612.299,318.806 617.133,320.315 622.561,318.208 627.385,320.013 636.439,316.39 642.468,316.995 645.186,315.488 
			647.002,316.39 649.713,314.281 657.25,315.184 657.854,316.095 660.576,315.787 660.576,313.979 657.558,311.266 
			657.558,302.519 656.648,299.501 659.357,296.178 654.839,293.167 652.731,286.831 648.512,282.605 645.79,283.208 
			640.966,282.307 634.325,287.132 628.289,286.224 620.447,288.039 610.49,285.025 608.979,281.398 606.268,282.006 
			603.246,278.986 592.693,279.29 586.665,281.398 579.423,287.132 568.261,285.319 567.047,287.132 567.959,288.338 
			571.88,289.242 567.047,289.848 565.845,290.15 567.047,291.656 565.845,291.656 559.21,291.053 559.505,292.258 553.485,292.859 
			551.068,294.675 549.859,298.894 553.782,298.29 553.176,301.007 554.686,303.726 553.485,305.232 555.896,307.045 
			552.876,307.045 551.667,305.232 550.763,308.25 555.896,310.06 555.294,312.471 557.097,313.07 556.494,314.579 558.304,316.095 
			557.097,317.597 562.83,317.298 557.698,320.315 561.314,319.406 561.314,320.617 564.34,319.11 565.845,320.617 567.353,320.013 
			568.56,323.026 571.88,324.24 575.803,323.026 576.396,318.806 578.214,318.509 589.675,324.838 597.219,322.424 599.33,320.013 
			601.741,319.406 605.357,321.226 608.387,318.806 609.59,320.013 608.077,321.525 607.779,325.139 609.288,326.348 		"/>
		<polygon fill="#B7B7B7" stroke="#FFFFFF" stroke-width="0.25" points="715.041,315.044 715.041,314.236 714.878,314.281 		"/>
		<polygon fill="#B7B7B7" stroke="#FFFFFF" stroke-width="0.25" points="701.301,320.617 695.566,318.208 692.243,314.579 
			686.213,313.07 684.71,306.44 679.577,303.726 681.386,302.213 680.477,298.29 678.674,297.691 674.447,299.199 671.738,303.425 
			668.114,303.425 664.495,303.121 660.271,297.388 659.357,296.178 656.648,299.501 657.558,302.519 657.558,311.266 
			660.576,313.979 660.576,315.787 660.873,319.11 664.495,324.539 669.32,326.348 668.114,328.459 668.337,330 715.041,330 
			715.041,318.555 710.952,318.806 		"/>
		<polygon fill="#B7B7B7" stroke="#FFFFFF" stroke-width="0.25" points="512.756,101.905 511.249,101.905 510.946,104.919 
			513.053,106.123 		"/>
		<polygon fill="#B7B7B7" stroke="#FFFFFF" stroke-width="0.25" points="580.927,72.947 580.927,68.417 577.308,63.895 
			574.299,59.667 576.11,52.127 573.387,48.813 573.088,44.585 571.275,44.292 571.275,37.952 573.387,30.711 567.959,13.813 
			572.787,3.86 570.941,0.033 534.119,0.033 533.867,10.5 536.587,16.834 535.075,22.865 537.188,28.595 544.425,35.536 
			545.936,42.474 540.808,44.585 539.896,48.506 529.344,62.386 526.33,65.705 523.314,65.705 523.008,68.718 520.9,68.718 
			518.789,73.249 520.295,78.677 519.993,81.089 522.714,88.025 521.5,88.025 521.5,91.951 520.295,94.36 521.5,97.077 
			520.594,98.588 527.84,103.111 529.645,101.905 531.153,106.428 532.664,105.22 533.57,107.032 538.694,105.826 547.745,100.996 
			558.304,99.187 571.88,86.518 		"/>
		<polygon fill="#B7B7B7" stroke="#FFFFFF" stroke-width="0.25" points="335.975,189.693 333.26,190.297 335.975,191.5 
			333.56,193.617 337.482,193.617 334.767,195.729 338.084,194.819 336.877,196.936 339.594,196.637 349.851,190.899 
			356.786,190.596 358.604,183.055 358.604,177.02 357.091,173.403 358,172.194 355.877,167.67 348.938,170.391 346.832,167.367 
			349.851,162.244 349.55,159.528 346.532,160.726 342.612,165.262 345.93,166.166 343.812,169.783 336.877,169.182 335.975,170.99 
			336.276,172.497 334.767,172.497 337.781,174.306 335.069,176.723 336.276,178.834 341.707,180.342 336.576,186.377 
			342.011,184.267 342.912,185.765 337.781,186.677 		"/>
		<polygon fill="#B7B7B7" stroke="#FFFFFF" stroke-width="0.25" points="348.938,170.391 355.877,167.67 358,172.194 
			361.615,169.182 360.705,166.768 361.615,168.273 361.911,167.367 359.206,165.562 359.803,162.547 358,160.13 351.966,161.638 
			353.167,159.528 351.059,158.622 349.851,162.244 346.832,167.367 		"/>
		<polygon fill="#B7B7B7" stroke="#FFFFFF" stroke-width="0.25" points="358,143.84 360.705,146.546 363.43,145.042 
			360.413,158.622 363.118,154.088 362.219,151.374 364.03,149.271 363.43,152.884 365.238,151.085 366.748,152.281 
			365.841,154.701 366.748,157.105 364.933,162.547 363.729,162.547 364.933,165.262 365.841,163.448 368.255,165.262 
			368.856,163.743 376.096,162.547 372.774,167.367 375.493,171.289 378.505,169.783 376.699,174.306 377.902,174.61 
			376.699,177.33 377.3,178.229 372.174,178.834 366.748,183.652 370.059,182.755 371.267,186.677 370.059,189.089 363.43,193.309 
			364.933,195.421 368.255,193.914 369.153,195.729 371.868,195.126 374.286,197.835 379.719,195.126 376.699,199.343 
			370.059,199.945 361.615,210.508 364.03,210.508 366.748,207.49 372.774,208.392 374.286,204.772 378.203,203.871 
			380.018,205.679 385.147,204.17 386.349,202.363 389.975,203.871 400.227,201.755 402.945,198.442 399.025,198.138 
			398.118,196.637 404.146,190.596 404.454,184.864 402.036,182.755 394.793,183.652 396.605,179.432 392.388,175.209 
			395.402,176.422 395.402,174.306 390.875,166.768 387.858,165.562 385.147,156.201 379.111,151.374 375.192,151.374 
			378.812,149.271 376.996,146.546 378.812,146.261 381.226,142.318 383.942,136.292 383.337,133.285 369.756,134.783 
			369.153,133.285 371.868,131.768 370.059,130.562 375.793,125.736 375.793,122.719 374.89,122.423 365.238,123.322 
			364.03,126.937 362.823,127.252 362.219,128.752 363.43,130.27 360.413,131.768 361.012,134.783 360.106,134.783 360.106,136.595 
			361.911,137.499 360.106,143.229 		"/>
		<polygon fill="#B7B7B7" stroke="#FFFFFF" stroke-width="0.25" points="529.043,118.199 524.819,119.402 526.932,121.515 
			529.946,120.009 		"/>
		<polygon fill="#B7B7B7" stroke="#FFFFFF" stroke-width="0.25" points="523.609,126.336 525.119,127.546 525.119,129.965 
			526.639,126.336 532.062,124.532 530.558,122.719 523.609,123.925 		"/>
		<polygon fill="#B7B7B7" stroke="#FFFFFF" stroke-width="0.25" points="549.859,131.469 552.572,134.484 555.896,133.881 
			558.011,134.484 557.698,133.577 559.811,131.169 559.505,129.358 558.304,128.153 557.698,125.736 556.8,125.438 
			555.294,119.402 560.115,117.9 562.531,113.973 562.229,110.654 560.723,109.447 560.115,113.067 559.21,113.367 546.233,110.654 
			533.57,116.085 532.961,120.304 535.075,121.208 533.57,122.423 534.778,125.736 539.604,125.438 539.003,131.169 
			545.034,129.358 		"/>
		<polygon fill="#B7B7B7" stroke="#FFFFFF" stroke-width="0.25" points="522.101,148.665 526.33,146.851 535.681,147.159 
			539.003,148.363 542.615,146.546 544.425,149.564 546.842,149.865 551.667,154.088 554.084,155.294 555.896,153.187 
			558.304,153.793 561.02,150.17 562.83,149.865 562.531,145.352 561.02,142.318 559.505,141.425 560.115,137.196 558.011,134.484 
			555.896,133.881 552.572,134.484 549.859,131.469 545.034,129.358 539.003,131.169 538.396,138.106 537.188,141.116 
			532.664,139.613 527.84,132.366 523.008,134.783 518.789,143.539 518.485,149.271 520.295,150.471 		"/>
		<polygon fill="#B7B7B7" stroke="#FFFFFF" stroke-width="0.25" points="529.645,167.977 530.558,163.743 529.344,161.334 
			525.119,160.726 520.295,158.622 520.295,159.221 519.694,162.547 516.672,161.638 517.579,160.13 513.053,162.244 
			510.638,167.367 518.789,168.574 		"/>
		<polygon fill="#B7B7B7" stroke="#FFFFFF" stroke-width="0.25" points="529.344,161.334 530.558,163.743 529.645,167.977 
			533.867,171.289 534.171,172.8 542.615,172.194 542.318,170.691 545.336,169.182 547.447,170.691 548.346,170.391 
			547.141,167.977 548.649,162.244 553.176,160.426 554.084,158.622 552.266,158.01 552.266,156.515 554.084,155.294 
			551.667,154.088 546.842,149.865 544.425,149.564 542.615,146.546 539.003,148.363 535.681,147.159 526.33,146.851 
			522.101,148.665 520.295,150.471 518.485,149.271 520.295,158.622 525.119,160.726 		"/>
		<polygon fill="#B7B7B7" stroke="#FFFFFF" stroke-width="0.25" points="558.304,153.793 555.896,153.187 554.084,155.294 
			552.266,156.515 552.266,158.01 554.084,158.622 553.176,160.426 548.649,162.244 547.141,167.977 548.346,170.391 
			547.447,170.691 545.336,169.182 542.318,170.691 542.615,172.194 534.171,172.8 535.681,184.567 532.062,188.784 533.867,191.5 
			533.57,195.421 539.295,194.217 540.808,192.399 548.649,192.108 555.294,193.914 557.097,195.729 558.606,195.729 
			559.505,197.231 562.531,195.729 566.14,197.538 567.959,195.421 570.372,197.835 574.586,197.231 575.803,198.138 
			577.006,197.231 577.613,193.015 579.423,191.205 583.945,190.297 582.135,182.456 580.927,180.645 582.434,179.135 
			586.356,180.342 589.675,177.629 589.675,176.119 588.771,175.812 588.475,174.306 586.962,173.709 584.246,174.005 
			583.945,171.595 581.833,169.783 578.513,163.743 579.423,160.13 578.513,158.317 578.814,155.597 574.586,152.884 
			569.771,154.39 570.064,152.281 568.861,151.374 563.13,150.471 562.83,149.865 561.02,150.17 		"/>
		<polygon fill="#B7B7B7" stroke="#FFFFFF" stroke-width="0.25" points="561.02,238.861 561.929,250.632 564.34,249.723 
			564.939,247.917 567.047,245.502 567.959,242.186 573.088,242.186 573.088,238.861 571.275,237.356 570.372,234.039 
			568.261,232.527 568.261,228.311 565.238,226.797 562.83,227.101 558.011,224.387 554.686,224.69 553.176,226.5 556.8,230.118 		
			"/>
		<polygon fill="#B7B7B7" stroke="#FFFFFF" stroke-width="0.25" points="622.864,231.925 624.369,231.325 626.184,229.212 
			627.69,230.118 631.012,230.118 632.222,225.592 631.307,225.289 631.012,221.97 633.115,220.761 631.012,219.251 
			632.812,218.646 633.724,217.147 632.812,214.732 633.417,214.126 627.385,211.42 625.57,211.704 622.864,209.905 
			620.749,210.508 616.826,205.981 612.604,207.49 611.097,207.49 609.889,206.277 606.571,206.277 605.357,204.772 
			605.067,200.852 603.555,198.743 601.741,199.047 598.726,197.835 597.823,194.519 599.33,193.914 599.33,193.015 
			595.711,188.188 587.866,188.479 585.455,191.205 583.945,190.297 579.423,191.205 577.613,193.015 577.006,197.231 
			575.803,198.138 574.586,197.231 570.372,197.835 567.959,195.421 566.14,197.538 562.531,195.729 559.505,197.231 
			558.606,195.729 557.097,195.729 555.294,193.914 548.649,192.108 540.808,192.399 539.295,194.217 533.57,195.421 
			536.886,204.772 530.854,211.42 529.043,215.628 529.043,218.646 527.532,218.646 525.722,224.988 529.645,228.911 
			540.206,228.608 542.615,230.118 553.176,226.5 554.686,224.69 558.011,224.387 562.83,227.101 565.238,226.797 568.261,228.311 
			568.261,232.527 570.372,234.039 571.275,237.356 573.088,238.861 573.088,242.186 567.959,242.186 567.047,245.502 
			564.939,247.917 564.34,249.723 561.929,250.632 564.038,252.138 570.064,250.933 570.372,247.616 571.275,249.422 
			574.894,246.104 573.387,243.092 575.803,244.897 577.006,241.881 583.945,239.772 586.058,242.186 582.434,242.186 
			584.847,243.092 583.648,244.596 594.51,245.805 595.41,246.708 587.866,251.231 592.995,253.644 592.995,258.473 596.312,259.68 
			605.357,253.644 611.097,254.249 612.001,250.933 602.947,252.138 601.741,249.122 599.33,248.215 599.937,246.708 
			597.521,247.012 595.11,244.596 596.921,244.897 597.219,243.393 599.33,246.406 600.538,244.897 601.741,246.708 
			601.741,244.897 603.246,242.186 604.469,243.688 607.178,240.978 622.258,236.759 621.961,233.436 		"/>
		<polygon fill="#B7B7B7" stroke="#FFFFFF" stroke-width="0.25" points="662.085,296.485 664.193,297.99 666.609,297.99 
			668.114,303.425 671.738,303.425 670.227,300.706 670.83,300.406 670.83,297.388 669.32,297.388 666.609,294.976 667.508,292.258 
			664.802,290.15 665.097,286.831 663.286,286.224 662.085,284.119 660.873,284.722 652.731,286.831 654.839,293.167 
			659.357,296.178 660.271,297.388 		"/>
		<polygon fill="#B7B7B7" stroke="#FFFFFF" stroke-width="0.25" points="664.193,297.99 662.085,296.485 660.271,297.388 
			664.495,303.121 668.114,303.425 666.609,297.99 		"/>
		<polygon fill="#B7B7B7" stroke="#FFFFFF" stroke-width="0.25" points="665.097,286.831 664.802,290.15 667.508,292.258 
			666.609,294.976 669.32,297.388 670.83,297.388 670.83,300.406 670.227,300.706 671.738,303.425 674.447,299.199 678.674,297.691 
			680.477,298.29 681.386,302.213 679.577,303.726 684.71,306.44 684.71,301.007 686.819,302.213 688.928,293.468 690.739,291.656 
			693.449,292.258 692.553,290.451 688.928,289.848 685.004,283.208 682.293,280.495 679.275,284.722 675.658,284.415 
			674.751,282.006 670.528,279.29 669.32,281.398 671.431,283.815 671.431,285.319 664.193,282.906 662.085,284.119 
			663.286,286.224 		"/>
		<polygon fill="#B7B7B7" stroke="#FFFFFF" stroke-width="0.25" points="648.512,282.605 652.731,286.831 660.873,284.722 
			662.085,284.119 664.193,282.906 671.431,285.319 671.431,283.815 669.32,281.398 670.528,279.29 666.305,276.875 
			666.305,274.465 663.286,272.951 660.271,272.351 656.048,273.854 649.713,269.031 642.771,268.727 636.14,266.316 
			631.012,266.922 633.724,269.332 639.761,272.951 642.171,278.986 642.171,281.398 640.966,282.307 645.79,283.208 		"/>
		<polygon fill="#B7B7B7" stroke="#FFFFFF" stroke-width="0.25" points="708.537,286.224 707.635,292.258 708.537,295.274 
			711.556,294.376 712.759,295.274 711.556,296.485 714.566,297.99 711.556,300.102 715.041,302.093 715.041,289.865 
			709.739,288.938 		"/>
		<polygon fill="#B7B7B7" stroke="#FFFFFF" stroke-width="0.25" points="714.878,314.281 715.041,314.236 715.041,304.117 
			713.966,306.44 		"/>
		<polygon fill="#B7B7B7" stroke="#FFFFFF" stroke-width="0.25" points="706.121,280.196 707.935,285.622 707.635,281.398 
			712.155,278.986 713.665,279.29 715.041,281.443 715.041,276.114 710.044,277.474 		"/>
		<polygon fill="#B7B7B7" stroke="#FFFFFF" stroke-width="0.25" points="703.105,253.042 699.792,253.042 698.881,254.853 
			700.692,258.473 692.243,258.473 697.675,263.302 699.484,269.935 707.337,273.252 706.121,280.196 710.044,277.474 
			715.041,276.114 715.041,253.15 704.616,251.231 		"/>
		<polygon fill="#B7B7B7" stroke="#FFFFFF" stroke-width="0.25" points="707.337,196.329 706.121,193.914 705.22,193.914 
			703.414,194.217 702.203,196.637 701.603,196.028 700.092,196.329 699.484,194.519 695.865,195.126 693.449,198.442 
			688.63,200.244 688.022,202.66 685.004,204.472 683.502,204.772 685.311,210.508 682.594,212.612 677.166,205.679 
			676.262,209.905 674.144,211.42 673.245,216.535 674.751,218.353 672.638,220.152 671.431,224.69 674.447,225.894 
			675.351,229.815 676.553,231.019 676.553,230.118 681.386,230.715 683.502,233.436 685.911,239.472 682.594,239.472 
			682.293,240.978 683.197,241.278 693.449,239.16 697.074,235.547 702.501,237.356 707.337,236.148 710.646,238.861 
			715.041,246.487 715.041,198.637 713.061,196.329 		"/>
		<polygon fill="#B7B7B7" stroke="#FFFFFF" stroke-width="0.25" points="519.085,288.039 516.063,284.119 516.978,278.079 
			513.96,274.764 512.212,274.084 511.249,273.854 509.732,275.364 508.839,279.895 510.638,280.797 509.438,284.119 
			509.732,291.359 508.839,291.359 514.262,297.388 519.694,290.451 		"/>
		<polygon fill="#B7B7B7" stroke="#FFFFFF" stroke-width="0.25" points="516.978,278.079 516.063,284.119 519.085,288.039 
			530.854,284.119 529.946,278.986 527.532,276.875 527.532,275.364 521.543,275.175 		"/>
		<polygon fill="#B7B7B7" stroke="#FFFFFF" stroke-width="0.25" points="545.634,265.71 531.153,264.512 529.946,263.302 
			530.854,261.788 529.344,261.491 527.532,262.093 526.932,264.512 527.532,266.922 529.946,270.234 527.532,274.159 
			527.532,275.364 527.532,276.875 529.946,278.986 530.854,284.119 539.604,282.307 545.936,285.025 547.745,284.119 
			549.859,282.906 549.859,280.797 550.763,280.797 555.896,278.986 561.02,279.585 558.011,275.063 560.115,272.951 
			560.723,269.935 563.731,267.527 564.939,264.512 554.686,261.788 		"/>
		<polygon fill="#B7B7B7" stroke="#FFFFFF" stroke-width="0.25" points="642.771,268.727 649.713,269.031 656.048,273.854 
			660.271,272.351 663.286,272.951 666.305,274.465 666.305,276.875 670.528,279.29 674.751,282.006 675.658,284.415 
			679.275,284.722 682.293,280.495 681.386,279.585 676.866,270.544 677.166,263.903 676.553,266.013 674.447,261.491 
			671.431,258.172 675.351,252.138 675.952,248.215 676.866,248.825 677.466,244.897 676.553,243.393 678.674,243.688 
			680.477,247.616 683.197,243.996 685.911,243.092 683.197,241.278 682.293,240.978 682.594,239.472 685.911,239.472 
			683.502,233.436 681.386,230.715 676.553,230.118 676.553,231.019 675.351,229.815 674.447,225.894 671.431,224.69 
			672.638,220.152 674.751,218.353 673.245,216.535 674.144,211.42 676.262,209.905 677.166,205.679 682.594,212.612 
			685.311,210.508 683.502,204.772 685.004,204.472 688.022,202.66 688.63,200.244 693.449,198.442 695.865,195.126 
			699.484,194.519 700.092,196.329 701.603,196.028 702.203,196.637 703.414,194.217 705.22,193.914 706.121,193.914 
			707.337,196.329 713.061,196.329 715.041,198.637 715.041,0.033 686.581,0.033 679.883,4.469 677.765,10.5 677.765,13.517 
			671.431,18.646 670.83,15.324 667.508,15.626 661.783,6.58 663.894,2.354 671.431,0.546 671.297,0.033 656.4,0.033 656.342,1.746 
			654.839,8.382 659.064,13.813 656.342,23.772 656.648,29.808 654.54,26.183 652.431,27.392 653.332,24.373 645.79,20.45 
			640.653,27.392 631.307,33.734 631.612,37.952 637.343,50.017 623.167,45.489 621.05,47.906 620.447,45.792 622.258,44.892 
			613.812,40.058 611.398,43.983 612.299,46.702 616.227,51.529 619.543,50.32 621.654,57.86 617.433,59.371 609.59,56.047 
			605.972,51.529 600.235,50.32 601.741,47.906 601.437,44.292 598.434,37.952 600.538,36.444 601.14,29.808 584.246,12.304 
			586.962,11.099 593.294,17.137 598.726,17.437 599.027,20.152 625.278,26.79 632.222,23.772 639.147,16.531 640.364,11.099 
			638.545,9.901 637.944,3.562 634.859,0.033 570.941,0.033 572.787,3.86 567.959,13.813 573.387,30.711 571.275,37.952 
			571.275,44.292 573.088,44.585 573.387,48.813 576.11,52.127 574.299,59.667 577.308,63.895 580.927,68.417 580.927,72.947 
			571.88,86.518 558.304,99.187 564.038,97.988 564.038,101.3 562.83,100.095 563.731,102.809 571.275,104.621 573.987,107.341 
			567.047,107.032 562.229,110.654 562.531,113.973 560.115,117.9 555.294,119.402 556.8,125.438 557.698,125.736 558.304,128.153 
			559.505,129.358 559.811,131.169 557.698,133.577 558.011,134.484 560.115,137.196 559.505,141.425 561.02,142.318 
			562.531,145.352 562.83,149.865 563.13,150.471 568.861,151.374 570.064,152.281 569.771,154.39 574.586,152.884 578.814,155.597 
			578.513,158.317 579.423,160.13 578.513,163.743 581.833,169.783 583.945,171.595 584.246,174.005 586.962,173.709 
			588.475,174.306 588.771,175.812 589.675,176.119 589.675,177.629 586.356,180.342 582.434,179.135 580.927,180.645 
			582.135,182.456 583.945,190.297 585.455,191.205 587.866,188.479 595.711,188.188 599.33,193.015 599.33,193.914 
			597.823,194.519 598.726,197.835 601.741,199.047 603.555,198.743 605.067,200.852 605.357,204.772 606.571,206.277 
			609.889,206.277 611.097,207.49 612.604,207.49 616.826,205.981 620.749,210.508 622.864,209.905 625.57,211.704 627.385,211.42 
			633.417,214.126 632.812,214.732 633.724,217.147 632.812,218.646 631.012,219.251 633.115,220.761 631.012,221.97 
			631.307,225.289 632.222,225.592 631.012,230.118 627.69,230.118 626.184,229.212 624.369,231.325 622.864,231.925 
			621.961,233.436 622.258,236.759 627.087,235.547 628.289,237.058 622.864,238.861 623.167,240.068 619.244,240.371 
			618.644,241.584 623.167,245.198 619.845,246.104 616.826,251.231 613.515,251.231 612.299,252.746 616.523,257.266 
			618.034,256.965 624.678,261.188 631.012,266.922 636.14,266.316 		"/>
		<polygon fill="#B7B7B7" points="429.956,209.418 427.591,211.441 427.591,211.546 428.55,214.253 431.123,214.461 431.43,212.848 
					"/>
	</g>
</g>
<path fill="#25B5E9" d="M397.324,175.654c0,10.14-8.228,18.371-18.375,18.371c-10.148,0-18.374-8.231-18.374-18.371
	c0-10.152,8.227-18.376,18.374-18.376C389.096,157.278,397.324,165.502,397.324,175.654z"/>
<path fill="#25B5E9" d="M467.593,90.917c0,10.146-8.233,18.371-18.381,18.371c-10.144,0-18.371-8.226-18.371-18.371
	c0-10.15,8.228-18.375,18.371-18.375C459.358,72.542,467.593,80.768,467.593,90.917z"/>
<path fill="#25B5E9" d="M503.888,119.985c0,10.146-8.233,18.371-18.381,18.371c-10.142,0-18.372-8.226-18.372-18.371
	c0-10.151,8.23-18.377,18.372-18.377C495.653,101.608,503.888,109.834,503.888,119.985z"/>
<path fill="#25B5E9" d="M473.661,146.415c0,10.146-8.235,18.37-18.382,18.37c-10.143,0-18.372-8.225-18.372-18.37
	c0-10.151,8.229-18.376,18.372-18.376C465.426,128.039,473.661,136.262,473.661,146.415z"/>
<path fill="#25B5E9" d="M499.663,183.121c0,10.15-8.227,18.378-18.372,18.378c-10.14,0-18.374-8.228-18.374-18.378
	c0-10.148,8.234-18.374,18.374-18.374C491.436,164.747,499.663,172.973,499.663,183.121z"/>
<path fill="#25B5E9" d="M570.909,169.916c0,10.146-8.227,18.378-18.371,18.378s-18.377-8.231-18.377-18.378
	c0-10.145,8.232-18.371,18.377-18.371S570.909,159.771,570.909,169.916z"/>
<path fill="#25B5E9" d="M433.919,233.763c0,10.147-8.227,18.376-18.375,18.376c-10.141,0-18.371-8.229-18.371-18.376
	c0-10.151,8.23-18.376,18.371-18.376C425.692,215.387,433.919,223.611,433.919,233.763z"/>
<path fill="#25B5E9" d="M384.798,294.829c0,10.147-8.227,18.376-18.369,18.376c-10.148,0-18.376-8.229-18.376-18.376
	c0-10.144,8.228-18.369,18.376-18.369C376.571,276.461,384.798,284.687,384.798,294.829z"/>
<path fill="#25B5E9" d="M509.811,294.829c0,10.147-8.227,18.376-18.375,18.376c-10.146,0-18.369-8.229-18.369-18.376
	c0-10.144,8.225-18.369,18.369-18.369C501.584,276.461,509.811,284.687,509.811,294.829z"/>
<circle fill="#25B5E9" cx="551.379" cy="108.985" r="18.376"/>
</svg>
