<?xml version="1.0" encoding="utf-8"?>
<!-- Generator: Adobe Illustrator 16.0.4, SVG Export Plug-In . SVG Version: 6.00 Build 0)  -->
<!DOCTYPE svg PUBLIC "-//W3C//DTD SVG 1.1//EN" "http://www.w3.org/Graphics/SVG/1.1/DTD/svg11.dtd">
<svg version="1.1" id="Layer_1" xmlns="http://www.w3.org/2000/svg" xmlns:xlink="http://www.w3.org/1999/xlink" x="0px" y="0px"
	 width="770px" height="300px" viewBox="0 0 770 300" enable-background="new 0 0 770 300" xml:space="preserve">
<g>
	<linearGradient id="SVGID_1_" gradientUnits="userSpaceOnUse" x1="120.1699" y1="107.2939" x2="200.4678" y2="107.2939">
		<stop  offset="0" style="stop-color:#27B4E8"/>
		<stop  offset="0.2718" style="stop-color:#3FB8C0"/>
		<stop  offset="0.8794" style="stop-color:#7BC25B"/>
		<stop  offset="1" style="stop-color:#87C446"/>
	</linearGradient>
	<circle fill="url(#SVGID_1_)" cx="160.319" cy="107.295" r="40.149"/>
	<g>
		<text transform="matrix(1 0 0 1 136.0693 116.3691)" fill="#FFFFFF" font-family="'Bauexport'" font-size="34.1818">mr</text>
	</g>
	<circle fill="#D0D2D3" cx="310.106" cy="107.295" r="40.149"/>
	<g>
		<text transform="matrix(1 0 0 1 286.9448 116.3691)" fill="#FFFFFF" font-family="'Bauexport'" font-size="34.1818">ex</text>
	</g>
	<circle fill="#D0D2D3" cx="459.894" cy="107.295" r="40.149"/>
	<g>
		<text transform="matrix(1 0 0 1 441.9102 116.3691)" fill="#FFFFFF" font-family="'Bauexport'" font-size="34.1818">st</text>
	</g>
	<circle fill="#D0D2D3" cx="609.681" cy="107.295" r="40.149"/>
	<g>
		<text transform="matrix(1 0 0 1 590.6084 116.3691)" fill="#FFFFFF" font-family="'Bauexport'" font-size="34.1818">sc</text>
	</g>
	<circle fill="#D0D2D3" cx="235.309" cy="192.707" r="40.149"/>
	<g>
		<text transform="matrix(1 0 0 1 216.7812 202.6797)" fill="#FFFFFF" font-family="'Bauexport'" font-size="34.1818">fa</text>
	</g>
	<circle fill="#D0D2D3" cx="385.097" cy="192.707" r="40.149"/>
	<text transform="matrix(1 0 0 1 358.2959 202.6797)" fill="#FFFFFF" font-family="'Bauexport'" font-size="34.1818">mp</text>
	<circle fill="#D0D2D3" cx="534.884" cy="192.707" r="40.149"/>
	<g>
		<text transform="matrix(1 0 0 1 513.1641 202.6797)" fill="#FFFFFF" font-family="'Bauexport'" font-size="34.1818">ap</text>
	</g>
	<rect x="210.932" y="104.234" fill="#D0D2D3" width="50.958" height="7.721"/>
	<rect x="360.719" y="104.234" fill="#D0D2D3" width="50.959" height="7.721"/>
	<rect x="510.506" y="104.234" fill="#D0D2D3" width="50.959" height="7.721"/>
	<rect x="136.134" y="189.646" fill="#D0D2D3" width="50.959" height="7.721"/>
	<rect x="285.922" y="189.646" fill="#D0D2D3" width="50.958" height="7.721"/>
	<rect x="435.709" y="189.646" fill="#D0D2D3" width="50.958" height="7.721"/>
</g>
</svg>
