<?xml version="1.0" encoding="utf-8"?>
<!-- Generator: Adobe Illustrator 16.0.4, SVG Export Plug-In . SVG Version: 6.00 Build 0)  -->
<!DOCTYPE svg PUBLIC "-//W3C//DTD SVG 1.1//EN" "http://www.w3.org/Graphics/SVG/1.1/DTD/svg11.dtd">
<svg version="1.1" id="Layer_1" xmlns="http://www.w3.org/2000/svg" xmlns:xlink="http://www.w3.org/1999/xlink" x="0px" y="0px"
	 width="770px" height="300px" viewBox="0 0 770 300" enable-background="new 0 0 770 300" xml:space="preserve">
<g>
	
		<linearGradient id="SVGID_1_" gradientUnits="userSpaceOnUse" x1="418.6699" y1="-194.2949" x2="498.9678" y2="-194.2949" gradientTransform="matrix(1 0 0 -1 -298.5 -87)">
		<stop  offset="0" style="stop-color:#27B4E8"/>
		<stop  offset="0.2718" style="stop-color:#3FB8C0"/>
		<stop  offset="0.8794" style="stop-color:#7BC25B"/>
		<stop  offset="1" style="stop-color:#87C446"/>
	</linearGradient>
	<circle fill="url(#SVGID_1_)" cx="160.319" cy="107.295" r="40.149"/>
	<g>
		<g enable-background="new    ">
			<path fill="#FFFFFF" d="M149.331,106.149c0-1.891-0.74-2.837-2.222-2.837c-1.162,0-1.96,0.456-2.393,1.367
				c-0.296,0.615-0.444,1.583-0.444,2.905v8.784h-6.016V98.698h6.016l-0.068,2.734c1.208-2.142,2.962-3.213,5.264-3.213
				c2.757,0,4.534,0.957,5.332,2.871c1.367-1.914,3.27-2.871,5.708-2.871c1.868,0,3.281,0.421,4.238,1.265
				c1.116,1.002,1.675,2.563,1.675,4.683v12.202h-6.016v-10.22c0-1.891-0.74-2.837-2.222-2.837c-1.162,0-1.96,0.456-2.393,1.367
				c-0.296,0.615-0.444,1.583-0.444,2.905v8.784h-6.016V106.149z"/>
			<path fill="#FFFFFF" d="M176.677,107.722v8.647h-6.016V98.698h6.016l-0.068,2.153c0.889-1.549,2.29-2.324,4.204-2.324
				c0.228,0,0.456,0.011,0.684,0.034l-0.068,5.776c-0.319-0.045-0.729-0.068-1.23-0.068c-1.481,0-2.461,0.308-2.939,0.923
				C176.87,105.716,176.677,106.56,176.677,107.722z"/>
		</g>
	</g>
	<circle fill="#D0D2D3" cx="310.106" cy="107.295" r="40.149"/>
	<g>
		<g enable-background="new    ">
			<path fill="#FFFFFF" d="M297.438,112.268c2.028,0,3.384-0.718,4.067-2.153l5.093,1.606c-1.618,3.509-4.648,5.264-9.092,5.264
				c-2.826,0-5.104-0.809-6.836-2.427c-1.823-1.663-2.734-3.931-2.734-6.802c0-2.962,0.866-5.292,2.598-6.99s4.022-2.546,6.87-2.546
				c2.644,0,4.819,0.763,6.528,2.29c1.846,1.686,2.769,4.056,2.769,7.109c0,0.433-0.022,0.889-0.068,1.367h-12.886
				C294.111,111.174,295.341,112.268,297.438,112.268z M297.403,102.902c-2.028,0-3.236,0.877-3.623,2.632h7.109
				C300.616,103.78,299.454,102.902,297.403,102.902z"/>
			<path fill="#FFFFFF" d="M308.273,98.698h7.212l3.213,4.58l3.315-4.58h6.357l-6.494,8.306l7.075,9.365h-7.212l-3.657-5.195
				l-3.794,5.195h-6.357l6.938-8.887L308.273,98.698z"/>
		</g>
	</g>
	<circle fill="#D0D2D3" cx="459.894" cy="107.295" r="40.149"/>
	<g>
		<g enable-background="new    ">
			<path fill="#FFFFFF" d="M442.286,113.737l3.145-3.486c1.595,1.39,3.657,2.085,6.187,2.085c1.868,0,2.803-0.398,2.803-1.196
				c0-0.433-0.251-0.706-0.752-0.82c-0.729-0.091-1.8-0.217-3.213-0.376c-2.484-0.296-4.262-0.82-5.332-1.572
				c-1.344-0.934-2.017-2.381-2.017-4.341c0-2.917,1.698-4.74,5.093-5.469c1.002-0.205,2.085-0.308,3.247-0.308
				c3.601,0,6.301,0.626,8.101,1.88l-2.734,3.965c-1.345-0.957-3.201-1.436-5.571-1.436c-1.481,0-2.324,0.228-2.529,0.684
				c-0.068,0.137-0.103,0.273-0.103,0.41c0,0.501,0.529,0.814,1.59,0.94c1.059,0.125,2.626,0.325,4.699,0.598
				c3.601,0.661,5.4,2.495,5.4,5.503c0,4.056-2.814,6.084-8.442,6.084C447.664,116.882,444.474,115.834,442.286,113.737z"/>
			<path fill="#FFFFFF" d="M466.008,93.059l2.939-1.265h0.273v6.973h3.623v4.751h-3.623v6.528c0,1.003,0.444,1.504,1.333,1.504
				c0.706,0,1.265-0.125,1.675-0.376h0.068v5.059c-1.14,0.456-2.449,0.684-3.931,0.684c-2.005,0-3.366-0.416-4.085-1.248
				c-0.717-0.831-1.076-2.124-1.076-3.879v-8.271v-9.092C463.661,94.175,464.595,93.719,466.008,93.059z M463.205,94.426v9.092
				V94.426z"/>
		</g>
	</g>
	<circle fill="#D0D2D3" cx="609.681" cy="107.295" r="40.149"/>
	<g>
		<g enable-background="new    ">
			<path fill="#FFFFFF" d="M590.984,113.737l3.145-3.486c1.596,1.39,3.657,2.085,6.187,2.085c1.868,0,2.803-0.398,2.803-1.196
				c0-0.433-0.251-0.706-0.752-0.82c-0.729-0.091-1.8-0.217-3.213-0.376c-2.483-0.296-4.261-0.82-5.332-1.572
				c-1.345-0.934-2.017-2.381-2.017-4.341c0-2.917,1.697-4.74,5.093-5.469c1.003-0.205,2.085-0.308,3.247-0.308
				c3.601,0,6.301,0.626,8.101,1.88l-2.734,3.965c-1.345-0.957-3.201-1.436-5.571-1.436c-1.48,0-2.324,0.228-2.529,0.684
				c-0.068,0.137-0.103,0.273-0.103,0.41c0,0.501,0.53,0.814,1.59,0.94c1.059,0.125,2.626,0.325,4.699,0.598
				c3.601,0.661,5.4,2.495,5.4,5.503c0,4.056-2.814,6.084-8.442,6.084C596.361,116.882,593.172,115.834,590.984,113.737z"/>
			<path fill="#FFFFFF" d="M613.476,114.558c-1.777-1.663-2.666-3.931-2.666-6.802c0-2.917,0.877-5.252,2.632-7.007
				c1.687-1.686,3.896-2.529,6.631-2.529c4.216,0,7.075,1.823,8.579,5.469l-4.854,2.393c-0.706-1.982-1.88-2.974-3.521-2.974
				c-2.256,0-3.384,1.481-3.384,4.443c0,3.145,1.14,4.717,3.418,4.717c1.777,0,2.939-1.071,3.486-3.213l5.093,2.222
				c-1.458,3.806-4.387,5.708-8.784,5.708C617.372,116.984,615.162,116.176,613.476,114.558z"/>
		</g>
	</g>
	<circle fill="#D0D2D3" cx="235.309" cy="192.707" r="40.148"/>
	<g>
		<g enable-background="new    ">
			<path fill="#FFFFFF" d="M217.294,185.009h3.315v-3.281c0-3.646,1.971-5.469,5.913-5.469c1.755,0,3.304,0.284,4.648,0.854
				l-0.649,4.648h-0.068c-0.661-0.479-1.379-0.718-2.153-0.718c-1.116,0-1.675,0.479-1.675,1.436v2.529h4.136v4.751h-4.136v12.92
				h-6.016v-12.92h-3.315V185.009z"/>
			<path fill="#FFFFFF" d="M243.561,189.76c-0.353-0.342-1.122-0.513-2.307-0.513c-2.165,0-3.806,0.729-4.922,2.188l-3.794-3.145
				c2.233-2.507,5.378-3.76,9.434-3.76c2.324,0,4.113,0.342,5.366,1.025c1.641,0.911,2.461,2.472,2.461,4.683v6.665
				c0,1.276,0.444,1.914,1.333,1.914c0.319,0,0.615-0.057,0.889-0.171h0.137l-1.162,3.896c-0.593,0.273-1.39,0.41-2.393,0.41
				c-2.324,0-3.76-0.774-4.307-2.324c-1.367,1.755-3.384,2.632-6.05,2.632c-4.011,0-6.016-1.687-6.016-5.059
				c0-3.327,2.393-5.332,7.178-6.016c1.436-0.205,2.996-0.353,4.683-0.444C244.091,190.762,243.914,190.102,243.561,189.76z
				 M242.689,197.997c1.003-0.706,1.504-1.595,1.504-2.666c-4.102,0-6.152,0.786-6.152,2.358c0,0.843,0.581,1.265,1.743,1.265
				C240.832,198.954,241.801,198.635,242.689,197.997z"/>
		</g>
	</g>
	<circle fill="#D0D2D3" cx="385.097" cy="192.707" r="40.148"/>
	<g enable-background="new    ">
		<path fill="#FFFFFF" d="M371.558,192.46c0-1.892-0.74-2.837-2.222-2.837c-1.162,0-1.96,0.455-2.393,1.367
			c-0.296,0.615-0.444,1.584-0.444,2.905v8.784h-6.016v-17.671h6.016l-0.068,2.734c1.208-2.142,2.962-3.213,5.264-3.213
			c2.757,0,4.534,0.957,5.332,2.871c1.367-1.914,3.27-2.871,5.708-2.871c1.868,0,3.281,0.421,4.238,1.265
			c1.116,1.002,1.675,2.563,1.675,4.683v12.202h-6.016v-10.22c0-1.892-0.74-2.837-2.222-2.837c-1.162,0-1.96,0.455-2.393,1.367
			c-0.296,0.615-0.444,1.584-0.444,2.905v8.784h-6.016V192.46z"/>
		<path fill="#FFFFFF" d="M398.903,185.009l-0.068,2.598c1.185-2.051,2.996-3.076,5.435-3.076c2.552,0,4.466,0.923,5.742,2.769
			c1.116,1.596,1.675,3.736,1.675,6.426c0,2.644-0.501,4.785-1.504,6.426c-1.208,2.005-3.042,3.008-5.503,3.008
			c-2.666,0-4.592-0.957-5.776-2.871v8.511h-6.016v-23.789H398.903z M405.637,193.759c0-2.917-1.128-4.375-3.384-4.375
			c-1.116,0-1.994,0.468-2.632,1.401c-0.547,0.82-0.82,1.822-0.82,3.008c0,1.185,0.273,2.176,0.82,2.974
			c0.638,0.935,1.516,1.401,2.632,1.401C404.509,198.168,405.637,196.698,405.637,193.759z"/>
	</g>
	<circle fill="#D0D2D3" cx="534.884" cy="192.707" r="40.148"/>
	<g>
		<g enable-background="new    ">
			<path fill="#FFFFFF" d="M525.418,189.76c-0.354-0.342-1.123-0.513-2.308-0.513c-2.165,0-3.806,0.729-4.922,2.188l-3.794-3.145
				c2.232-2.507,5.377-3.76,9.434-3.76c2.324,0,4.113,0.342,5.366,1.025c1.641,0.911,2.461,2.472,2.461,4.683v6.665
				c0,1.276,0.444,1.914,1.333,1.914c0.319,0,0.615-0.057,0.889-0.171h0.137l-1.162,3.896c-0.593,0.273-1.39,0.41-2.393,0.41
				c-2.324,0-3.76-0.774-4.307-2.324c-1.367,1.755-3.384,2.632-6.05,2.632c-4.011,0-6.016-1.687-6.016-5.059
				c0-3.327,2.393-5.332,7.178-6.016c1.436-0.205,2.996-0.353,4.683-0.444C525.947,190.762,525.771,190.102,525.418,189.76z
				 M524.546,197.997c1.003-0.706,1.504-1.595,1.504-2.666c-4.102,0-6.152,0.786-6.152,2.358c0,0.843,0.581,1.265,1.743,1.265
				C522.688,198.954,523.657,198.635,524.546,197.997z"/>
			<path fill="#FFFFFF" d="M542.901,185.009l-0.068,2.598c1.185-2.051,2.996-3.076,5.435-3.076c2.552,0,4.466,0.923,5.742,2.769
				c1.116,1.596,1.675,3.736,1.675,6.426c0,2.644-0.501,4.785-1.504,6.426c-1.208,2.005-3.042,3.008-5.503,3.008
				c-2.666,0-4.592-0.957-5.776-2.871v8.511h-6.016v-23.789H542.901z M549.635,193.759c0-2.917-1.128-4.375-3.384-4.375
				c-1.116,0-1.994,0.468-2.632,1.401c-0.547,0.82-0.82,1.822-0.82,3.008c0,1.185,0.273,2.176,0.82,2.974
				c0.638,0.935,1.516,1.401,2.632,1.401C548.507,198.168,549.635,196.698,549.635,193.759z"/>
		</g>
	</g>
	<rect x="210.932" y="104.234" fill="#D0D2D3" width="50.958" height="7.721"/>
	<rect x="360.719" y="104.234" fill="#D0D2D3" width="50.959" height="7.721"/>
	<rect x="510.506" y="104.234" fill="#D0D2D3" width="50.959" height="7.721"/>
	<rect x="136.134" y="189.646" fill="#D0D2D3" width="50.959" height="7.721"/>
	<rect x="285.922" y="189.646" fill="#D0D2D3" width="50.958" height="7.721"/>
	<rect x="435.709" y="189.646" fill="#D0D2D3" width="50.958" height="7.721"/>
</g>
</svg>
