<?xml version="1.0" encoding="utf-8"?>
<!-- Generator: Adobe Illustrator 16.0.4, SVG Export Plug-In . SVG Version: 6.00 Build 0)  -->
<!DOCTYPE svg PUBLIC "-//W3C//DTD SVG 1.1//EN" "http://www.w3.org/Graphics/SVG/1.1/DTD/svg11.dtd">
<svg version="1.1" id="Layer_1" xmlns="http://www.w3.org/2000/svg" xmlns:xlink="http://www.w3.org/1999/xlink" x="0px" y="0px"
	 width="660px" height="330px" viewBox="55 0 660 330" enable-background="new 55 0 660 330" xml:space="preserve">
<g>
	
		<linearGradient id="SVGID_1_" gradientUnits="userSpaceOnUse" x1="684.6699" y1="609.2959" x2="774.3672" y2="609.2959" gradientTransform="matrix(1 0 0 1 -595.5 -492)">
		<stop  offset="0" style="stop-color:#27B4E8"/>
		<stop  offset="0.2718" style="stop-color:#3FB8C0"/>
		<stop  offset="0.8794" style="stop-color:#7BC25B"/>
		<stop  offset="1" style="stop-color:#87C446"/>
	</linearGradient>
	<circle fill="url(#SVGID_1_)" cx="134.019" cy="117.296" r="44.849"/>
	<g>
		<g enable-background="new    ">
			<path fill="#FFFFFF" d="M121.745,116.016c0-2.112-0.827-3.168-2.482-3.168c-1.298,0-2.189,0.509-2.673,1.527
				c-0.331,0.687-0.496,1.768-0.496,3.245v9.812h-6.721v-19.738h6.721l-0.076,3.054c1.35-2.393,3.309-3.59,5.88-3.59
				c3.08,0,5.065,1.069,5.957,3.207c1.527-2.138,3.653-3.207,6.376-3.207c2.086,0,3.665,0.471,4.734,1.414
				c1.246,1.119,1.87,2.863,1.87,5.231v13.631h-6.72v-11.417c0-2.112-0.827-3.168-2.482-3.168c-1.298,0-2.189,0.509-2.673,1.527
				c-0.331,0.687-0.496,1.768-0.496,3.245v9.812h-6.72L121.745,116.016L121.745,116.016z"/>
			<path fill="#FFFFFF" d="M152.291,117.773v9.659h-6.72v-19.74h6.72l-0.076,2.405c0.994-1.73,2.558-2.596,4.696-2.596
				c0.255,0,0.509,0.013,0.764,0.038l-0.076,6.452c-0.357-0.05-0.814-0.076-1.374-0.076c-1.655,0-2.75,0.344-3.283,1.031
				C152.507,115.532,152.291,116.475,152.291,117.773z"/>
		</g>
	</g>
	<circle fill="#D0D2D3" cx="301.34" cy="117.296" r="44.849"/>
	<g>
		<g enable-background="new    ">
			<path fill="#FFFFFF" d="M287.188,122.851c2.266,0,3.78-0.802,4.543-2.405l5.688,1.794c-1.807,3.919-5.191,5.88-10.156,5.88
				c-3.156,0-5.702-0.904-7.636-2.711c-2.036-1.858-3.054-4.391-3.054-7.598c0-3.309,0.967-5.912,2.902-7.809
				c1.935-1.896,4.493-2.844,7.674-2.844c2.954,0,5.383,0.852,7.292,2.558c2.062,1.884,3.093,4.531,3.093,7.941
				c0,0.484-0.025,0.993-0.076,1.527h-14.394C283.472,121.629,284.846,122.851,287.188,122.851z M287.149,112.389
				c-2.265,0-3.615,0.979-4.046,2.94h7.941C290.739,113.369,289.44,112.389,287.149,112.389z"/>
			<path fill="#FFFFFF" d="M299.292,107.693h8.056l3.589,5.116l3.703-5.116h7.102l-7.254,9.278l7.903,10.462h-8.056l-4.085-5.804
				l-4.238,5.804h-7.102l7.75-9.928L299.292,107.693z"/>
		</g>
	</g>
	<circle fill="#D0D2D3" cx="468.66" cy="117.296" r="44.849"/>
	<g>
		<g enable-background="new    ">
			<path fill="#FFFFFF" d="M448.992,124.492l3.512-3.894c1.783,1.553,4.086,2.329,6.912,2.329c2.087,0,3.131-0.445,3.131-1.336
				c0-0.484-0.28-0.789-0.84-0.916c-0.813-0.102-2.011-0.243-3.589-0.42c-2.775-0.33-4.761-0.916-5.956-1.756
				c-1.501-1.043-2.253-2.66-2.253-4.849c0-3.258,1.896-5.295,5.688-6.109c1.12-0.229,2.33-0.344,3.628-0.344
				c4.022,0,7.038,0.699,9.049,2.1l-3.054,4.43c-1.503-1.069-3.576-1.604-6.223-1.604c-1.655,0-2.598,0.254-2.826,0.764
				c-0.075,0.152-0.115,0.305-0.115,0.458c0,0.56,0.591,0.909,1.776,1.05c1.183,0.14,2.934,0.363,5.249,0.668
				c4.022,0.739,6.031,2.788,6.031,6.147c0,4.531-3.143,6.796-9.429,6.796C454.999,128.005,451.435,126.834,448.992,124.492z"/>
			<path fill="#FFFFFF" d="M475.49,101.394l3.283-1.413h0.306v7.79h4.046v5.307h-4.046v7.292c0,1.12,0.495,1.68,1.488,1.68
				c0.789,0,1.413-0.14,1.87-0.42h0.077v5.651c-1.272,0.51-2.736,0.764-4.391,0.764c-2.24,0-3.761-0.464-4.563-1.394
				c-0.802-0.929-1.202-2.373-1.202-4.333v-9.239v-10.156C472.868,102.64,473.911,102.13,475.49,101.394z M472.359,102.92v10.157
				V102.92z"/>
		</g>
	</g>
	<circle fill="#D0D2D3" cx="635.98" cy="117.296" r="44.849"/>
	<g>
		<g enable-background="new    ">
			<path fill="#FFFFFF" d="M615.096,124.492l3.514-3.894c1.782,1.553,4.084,2.329,6.911,2.329c2.085,0,3.131-0.445,3.131-1.336
				c0-0.484-0.28-0.789-0.84-0.916c-0.815-0.102-2.011-0.243-3.59-0.42c-2.773-0.33-4.76-0.916-5.955-1.756
				c-1.503-1.043-2.254-2.66-2.254-4.849c0-3.258,1.896-5.295,5.69-6.109c1.12-0.229,2.328-0.344,3.625-0.344
				c4.023,0,7.039,0.699,9.051,2.1l-3.055,4.43c-1.502-1.069-3.576-1.604-6.223-1.604c-1.654,0-2.596,0.254-2.825,0.764
				c-0.077,0.152-0.115,0.305-0.115,0.458c0,0.56,0.592,0.909,1.776,1.05c1.183,0.14,2.934,0.363,5.249,0.668
				c4.022,0.739,6.032,2.788,6.032,6.147c0,4.531-3.144,6.796-9.432,6.796C621.103,128.005,617.54,126.834,615.096,124.492z"/>
			<path fill="#FFFFFF" d="M640.221,125.409c-1.985-1.858-2.979-4.391-2.979-7.598c0-3.259,0.98-5.867,2.94-7.827
				c1.885-1.884,4.352-2.825,7.408-2.825c4.709,0,7.902,2.036,9.583,6.109l-5.423,2.673c-0.789-2.213-2.101-3.322-3.933-3.322
				c-2.521,0-3.781,1.655-3.781,4.963c0,3.513,1.273,5.269,3.817,5.269c1.986,0,3.284-1.196,3.896-3.589l5.688,2.482
				c-1.629,4.251-4.9,6.376-9.812,6.376C644.572,128.119,642.104,127.216,640.221,125.409z"/>
		</g>
	</g>
	<circle fill="#D0D2D3" cx="217.787" cy="212.706" r="44.848"/>
	<g>
		<g enable-background="new    ">
			<path fill="#FFFFFF" d="M197.663,204.106h3.704v-3.664c0-4.073,2.202-6.109,6.605-6.109c1.96,0,3.691,0.317,5.192,0.954
				l-0.725,5.192h-0.075c-0.739-0.536-1.541-0.803-2.406-0.803c-1.247,0-1.871,0.534-1.871,1.604v2.825h4.621v5.308h-4.621v14.433
				h-6.72v-14.433h-3.704V204.106L197.663,204.106z"/>
			<path fill="#FFFFFF" d="M227.005,209.414c-0.395-0.382-1.253-0.573-2.578-0.573c-2.418,0-4.25,0.814-5.498,2.445l-4.238-3.515
				c2.495-2.8,6.007-4.2,10.539-4.2c2.596,0,4.594,0.383,5.994,1.145c1.833,1.019,2.749,2.763,2.749,5.232v7.444
				c0,1.427,0.497,2.138,1.489,2.138c0.357,0,0.688-0.062,0.994-0.189h0.153l-1.298,4.351c-0.663,0.306-1.553,0.459-2.673,0.459
				c-2.596,0-4.2-0.865-4.811-2.597c-1.526,1.961-3.78,2.94-6.758,2.94c-4.481,0-6.721-1.885-6.721-5.651
				c0-3.716,2.673-5.956,8.019-6.719c1.604-0.229,3.346-0.395,5.231-0.497C227.597,210.533,227.399,209.795,227.005,209.414z
				 M226.03,218.615c1.121-0.789,1.68-1.781,1.68-2.979c-4.582,0-6.872,0.879-6.872,2.635c0,0.941,0.649,1.413,1.947,1.413
				C223.957,219.685,225.039,219.328,226.03,218.615z"/>
		</g>
	</g>
	<circle fill="#D0D2D3" cx="385.108" cy="212.706" r="44.848"/>
	<g enable-background="new    ">
		<path fill="#FFFFFF" d="M369.984,212.43c0-2.113-0.826-3.169-2.482-3.169c-1.298,0-2.189,0.509-2.672,1.527
			c-0.331,0.688-0.496,1.77-0.496,3.245v9.812h-6.72v-19.74h6.72l-0.077,3.055c1.35-2.393,3.309-3.589,5.881-3.589
			c3.08,0,5.064,1.069,5.956,3.207c1.527-2.138,3.652-3.207,6.376-3.207c2.087,0,3.665,0.471,4.734,1.412
			c1.247,1.119,1.871,2.864,1.871,5.231v13.631h-6.721v-11.417c0-2.114-0.827-3.169-2.481-3.169c-1.298,0-2.189,0.508-2.674,1.526
			c-0.331,0.687-0.496,1.77-0.496,3.247v9.811h-6.72L369.984,212.43L369.984,212.43z"/>
		<path fill="#FFFFFF" d="M400.53,204.106l-0.076,2.903c1.323-2.291,3.347-3.437,6.071-3.437c2.852,0,4.989,1.03,6.414,3.093
			c1.247,1.783,1.872,4.173,1.872,7.179c0,2.953-0.561,5.346-1.682,7.179c-1.349,2.238-3.397,3.359-6.146,3.359
			c-2.979,0-5.129-1.068-6.452-3.207v9.507h-6.721v-26.574h6.72V204.106z M408.053,213.881c0-3.258-1.26-4.888-3.78-4.888
			c-1.247,0-2.228,0.523-2.939,1.566c-0.611,0.916-0.917,2.036-0.917,3.359c0,1.324,0.306,2.431,0.917,3.323
			c0.712,1.044,1.692,1.564,2.939,1.564C406.793,218.807,408.053,217.164,408.053,213.881z"/>
	</g>
	<circle fill="#D0D2D3" cx="552.429" cy="212.706" r="44.848"/>
	<g>
		<g enable-background="new    ">
			<path fill="#FFFFFF" d="M541.855,209.414c-0.396-0.382-1.255-0.573-2.578-0.573c-2.419,0-4.253,0.814-5.498,2.445l-4.238-3.515
				c2.493-2.8,6.007-4.2,10.538-4.2c2.596,0,4.595,0.383,5.994,1.145c1.832,1.019,2.749,2.763,2.749,5.232v7.444
				c0,1.427,0.495,2.138,1.489,2.138c0.355,0,0.687-0.062,0.992-0.189h0.152l-1.297,4.351c-0.663,0.306-1.553,0.459-2.673,0.459
				c-2.597,0-4.2-0.865-4.812-2.597c-1.527,1.961-3.779,2.94-6.758,2.94c-4.481,0-6.721-1.885-6.721-5.651
				c0-3.716,2.674-5.956,8.018-6.719c1.605-0.229,3.347-0.395,5.232-0.497C542.446,210.533,542.25,209.795,541.855,209.414z
				 M540.88,218.615c1.121-0.789,1.681-1.781,1.681-2.979c-4.581,0-6.871,0.879-6.871,2.635c0,0.941,0.648,1.413,1.946,1.413
				C538.805,219.685,539.889,219.328,540.88,218.615z"/>
			<path fill="#FFFFFF" d="M561.385,204.106l-0.076,2.903c1.322-2.291,3.347-3.437,6.07-3.437c2.852,0,4.989,1.03,6.414,3.093
				c1.247,1.783,1.871,4.173,1.871,7.179c0,2.953-0.559,5.346-1.68,7.179c-1.35,2.238-3.398,3.359-6.147,3.359
				c-2.978,0-5.129-1.068-6.451-3.207v9.507h-6.721v-26.574h6.72V204.106z M568.906,213.881c0-3.258-1.26-4.888-3.78-4.888
				c-1.247,0-2.228,0.523-2.939,1.566c-0.61,0.916-0.916,2.036-0.916,3.359c0,1.324,0.306,2.431,0.916,3.323
				c0.712,1.044,1.692,1.564,2.939,1.564C567.646,218.807,568.906,217.164,568.906,213.881z"/>
		</g>
	</g>
	<rect x="190.556" y="113.876" fill="#D0D2D3" width="56.923" height="8.625"/>
	<rect x="357.876" y="113.876" fill="#D0D2D3" width="56.923" height="8.625"/>
	<rect x="525.197" y="113.876" fill="#D0D2D3" width="56.924" height="8.625"/>
	<rect x="107.002" y="209.287" fill="#D0D2D3" width="56.924" height="8.625"/>
	<rect x="274.324" y="209.287" fill="#D0D2D3" width="56.923" height="8.625"/>
	<rect x="441.645" y="209.287" fill="#D0D2D3" width="56.923" height="8.625"/>
</g>
</svg>
