<?xml version="1.0" encoding="utf-8"?>
<!-- Generator: Adobe Illustrator 16.0.4, SVG Export Plug-In . SVG Version: 6.00 Build 0)  -->
<!DOCTYPE svg PUBLIC "-//W3C//DTD SVG 1.1//EN" "http://www.w3.org/Graphics/SVG/1.1/DTD/svg11.dtd">
<svg version="1.1" id="Layer_1" xmlns="http://www.w3.org/2000/svg" xmlns:xlink="http://www.w3.org/1999/xlink" x="0px" y="0px"
	 width="660px" height="330px" viewBox="55 0 660 330" enable-background="new 55 0 660 330" xml:space="preserve">
<g>
	<g>
		<g>
			<g>
				<defs>
					<rect id="SVGID_1_" x="217.9" width="518.1" height="330"/>
				</defs>
				<clipPath id="SVGID_2_">
					<use xlink:href="#SVGID_1_"  overflow="visible"/>
				</clipPath>
				<path clip-path="url(#SVGID_2_)" fill="#B7B7B7" d="M693.987,172.335c0,119.885-97.178,217.066-217.056,217.066
					c-119.884,0-217.064-97.182-217.064-217.066c0-119.878,97.179-217.062,217.064-217.062
					C596.81-44.727,693.987,52.457,693.987,172.335z"/>
			</g>
		</g>
		<g>
			<g>
				<defs>
					<rect id="SVGID_3_" x="217.9" width="518.1" height="330"/>
				</defs>
				<clipPath id="SVGID_4_">
					<use xlink:href="#SVGID_3_"  overflow="visible"/>
				</clipPath>
				<path clip-path="url(#SVGID_4_)" fill="#FFFFFF" d="M658.386,172.335c0,100.223-81.24,181.463-181.457,181.463
					c-100.219,0-181.459-81.24-181.459-181.463c0-100.217,81.24-181.459,181.459-181.459
					C577.146-9.125,658.386,72.118,658.386,172.335z"/>
			</g>
		</g>
		<g>
			<g>
				<defs>
					<rect id="SVGID_5_" x="217.9" width="518.1" height="330"/>
				</defs>
				<clipPath id="SVGID_6_">
					<use xlink:href="#SVGID_5_"  overflow="visible"/>
				</clipPath>
				<path clip-path="url(#SVGID_6_)" fill="#B7B7B7" d="M628.84,172.335c0,83.9-68.01,151.918-151.911,151.918
					c-83.903,0-151.915-68.018-151.915-151.918c0-83.898,68.012-151.915,151.915-151.915C560.83,20.42,628.84,88.436,628.84,172.335
					z"/>
			</g>
		</g>
		<g>
			<g>
				<defs>
					<rect id="SVGID_7_" x="217.9" width="518.1" height="330"/>
				</defs>
				<clipPath id="SVGID_8_">
					<use xlink:href="#SVGID_7_"  overflow="visible"/>
				</clipPath>
				<path clip-path="url(#SVGID_8_)" fill="#FFFFFF" d="M594.053,172.335c0,64.689-52.438,117.131-117.124,117.131
					c-64.688,0-117.126-52.443-117.126-117.131c0-64.682,52.439-117.125,117.126-117.125
					C541.614,55.21,594.053,107.653,594.053,172.335z"/>
			</g>
		</g>
		<g>
			<g>
				<defs>
					<rect id="SVGID_9_" x="217.9" width="518.1" height="330"/>
				</defs>
				<clipPath id="SVGID_10_">
					<use xlink:href="#SVGID_9_"  overflow="visible"/>
				</clipPath>
				<path clip-path="url(#SVGID_10_)" fill="#B7B7B7" d="M561.583,172.335c0,46.756-37.9,84.658-84.653,84.658
					c-46.762,0-84.656-37.902-84.656-84.658c0-46.753,37.895-84.653,84.656-84.653C523.683,87.682,561.583,125.582,561.583,172.335z
					"/>
			</g>
		</g>
		<g>
			<g>
				<defs>
					<rect id="SVGID_11_" x="217.9" width="518.1" height="330"/>
				</defs>
				<clipPath id="SVGID_12_">
					<use xlink:href="#SVGID_11_"  overflow="visible"/>
				</clipPath>
				<path clip-path="url(#SVGID_12_)" fill="#FFFFFF" d="M524.474,172.335c0,26.264-21.285,47.551-47.544,47.551
					c-26.26,0-47.551-21.287-47.551-47.551c0-26.258,21.29-47.548,47.551-47.548C503.188,124.787,524.474,146.077,524.474,172.335z"
					/>
			</g>
		</g>
	</g>
	
		<linearGradient id="SVGID_13_" gradientUnits="userSpaceOnUse" x1="462.7002" y1="458.25" x2="845.9258" y2="458.25" gradientTransform="matrix(1 0 0 1 -368 -285)">
		<stop  offset="0" style="stop-color:#27B4E8"/>
		<stop  offset="0.2718" style="stop-color:#3FB8C0"/>
		<stop  offset="0.8794" style="stop-color:#7BC25B"/>
		<stop  offset="1" style="stop-color:#87C446"/>
	</linearGradient>
	<polygon fill="url(#SVGID_13_)" points="431.966,136.4 94.7,136.4 94.7,210.1 431.966,210.1 477.926,173.25 	"/>
</g>
</svg>
