<?xml version="1.0" encoding="utf-8"?>
<!-- Generator: Adobe Illustrator 16.0.4, SVG Export Plug-In . SVG Version: 6.00 Build 0)  -->
<!DOCTYPE svg PUBLIC "-//W3C//DTD SVG 1.1//EN" "http://www.w3.org/Graphics/SVG/1.1/DTD/svg11.dtd">
<svg version="1.1" id="Layer_1" xmlns="http://www.w3.org/2000/svg" xmlns:xlink="http://www.w3.org/1999/xlink" x="0px" y="0px"
	 width="60px" height="60px" viewBox="0 0 60 60" enable-background="new 0 0 60 60" xml:space="preserve">
<path fill="#B7B7B7" d="M58.5,30c0-1.121-0.071-2.223-0.193-3.309l-7.122-1.555l5.748-4.511c-0.726-2.11-1.688-4.106-2.858-5.96
	l-7.086,1.706L50.22,9.8c-1.544-1.567-3.272-2.951-5.142-4.127l-5.65,4.633l0.077-7.336c-2.04-0.726-4.188-1.226-6.413-1.469
	L30,8.14L26.907,1.5c-2.224,0.243-4.373,0.744-6.413,1.47l0.077,7.336l-5.649-4.633c-1.871,1.175-3.597,2.56-5.145,4.126
	l3.232,6.571l-7.087-1.706c-1.167,1.854-2.132,3.85-2.856,5.96l5.747,4.511l-7.119,1.554C1.571,27.777,1.5,28.879,1.5,30
	c0,1.12,0.071,2.222,0.195,3.31l7.12,1.556l-5.747,4.511c0.728,2.112,1.689,4.106,2.858,5.96l7.085-1.705L9.779,50.2
	c1.547,1.564,3.274,2.95,5.146,4.126l5.648-4.63l-0.076,7.334c2.04,0.728,4.188,1.228,6.412,1.47L30,51.861l3.093,6.639
	c2.226-0.242,4.373-0.743,6.413-1.47l-0.076-7.335l5.648,4.63c1.87-1.175,3.598-2.559,5.144-4.126l-3.233-6.569l7.088,1.705
	c1.169-1.854,2.131-3.849,2.857-5.96l-5.748-4.511l7.122-1.556C58.429,32.222,58.5,31.12,58.5,30z M30,38.792
	c-4.827,0-8.74-3.937-8.74-8.792s3.914-8.792,8.74-8.792c4.827,0,8.74,3.937,8.74,8.792S34.827,38.792,30,38.792z"/>
</svg>
