<?xml version="1.0" encoding="utf-8"?>
<!-- Generator: Adobe Illustrator 16.0.4, SVG Export Plug-In . SVG Version: 6.00 Build 0)  -->
<!DOCTYPE svg PUBLIC "-//W3C//DTD SVG 1.1//EN" "http://www.w3.org/Graphics/SVG/1.1/DTD/svg11.dtd">
<svg version="1.1" id="Layer_1" xmlns="http://www.w3.org/2000/svg" xmlns:xlink="http://www.w3.org/1999/xlink" x="0px" y="0px"
	 width="1170px" height="140px" viewBox="0 0 1170 140" enable-background="new 0 0 1170 140" xml:space="preserve">
<g>
	<g>
		<path d="M11.28,36.256l-0.044,2.003c0.866-1.541,2.208-2.311,4.027-2.311c2.464,0,3.696,1.283,3.696,3.851v7.833h-3.873v-6.491
			c0-1.276-0.521-1.914-1.562-1.914c-0.896,0-1.511,0.33-1.849,0.99c-0.264,0.484-0.396,1.218-0.396,2.2v5.215H7.408V36.256H11.28z"
			/>
		<path d="M27.032,44.991c1.306,0,2.179-0.462,2.618-1.386l3.278,1.034c-1.041,2.259-2.992,3.389-5.853,3.389
			c-1.818,0-3.286-0.521-4.4-1.562c-1.174-1.071-1.761-2.53-1.761-4.379c0-1.907,0.558-3.406,1.673-4.5
			c1.114-1.093,2.589-1.639,4.423-1.639c1.701,0,3.102,0.491,4.202,1.475c1.188,1.085,1.782,2.61,1.782,4.576
			c0,0.278-0.015,0.572-0.044,0.88h-8.295C24.891,44.287,25.683,44.991,27.032,44.991z M27.011,38.963
			c-1.306,0-2.083,0.564-2.333,1.694h4.577C29.079,39.527,28.33,38.963,27.011,38.963z"/>
		<path d="M38.01,36.256l1.54,6.8l1.915-6.8h2.948l1.694,6.8l1.76-6.8h3.829l-3.543,11.376h-3.851l-1.54-6.183l-1.65,6.183h-3.851
			l-3.389-11.376H38.01z"/>
		<path d="M65.774,41.053c0-1.218-0.477-1.826-1.43-1.826c-0.748,0-1.262,0.293-1.541,0.88c-0.19,0.396-0.285,1.02-0.285,1.87v5.655
			h-3.873V36.256h3.873l-0.045,1.761c0.778-1.379,1.907-2.068,3.389-2.068c1.775,0,2.919,0.616,3.433,1.849
			c0.88-1.232,2.105-1.849,3.675-1.849c1.203,0,2.112,0.271,2.729,0.814c0.719,0.645,1.078,1.649,1.078,3.014v7.855h-3.873v-6.579
			c0-1.218-0.477-1.826-1.43-1.826c-0.748,0-1.262,0.293-1.54,0.88c-0.191,0.396-0.286,1.02-0.286,1.87v5.655h-3.873L65.774,41.053
			L65.774,41.053z"/>
		<path d="M85.98,39.314c-0.227-0.22-0.722-0.33-1.484-0.33c-1.394,0-2.45,0.47-3.169,1.408l-2.442-2.024
			c1.438-1.613,3.462-2.42,6.073-2.42c1.496,0,2.647,0.22,3.454,0.66c1.057,0.587,1.584,1.592,1.584,3.015v4.29
			c0,0.821,0.286,1.232,0.858,1.232c0.205,0,0.396-0.037,0.572-0.11h0.088l-0.748,2.509c-0.382,0.176-0.895,0.264-1.54,0.264
			c-1.496,0-2.421-0.498-2.772-1.496c-0.88,1.13-2.179,1.694-3.895,1.694c-2.582,0-3.873-1.086-3.873-3.257
			c0-2.142,1.541-3.432,4.621-3.872c0.924-0.132,1.929-0.228,3.015-0.286C86.322,39.96,86.208,39.534,85.98,39.314z M85.42,44.617
			c0.646-0.454,0.968-1.026,0.968-1.716c-2.64,0-3.96,0.506-3.96,1.518c0,0.543,0.374,0.814,1.122,0.814
			C84.225,45.233,84.848,45.028,85.42,44.617z"/>
		<path d="M97.233,42.065v5.566H93.36V36.256h3.873l-0.045,1.387c0.572-0.998,1.475-1.496,2.707-1.496
			c0.146,0,0.293,0.007,0.439,0.021l-0.044,3.719c-0.205-0.029-0.469-0.044-0.792-0.044c-0.953,0-1.584,0.198-1.892,0.594
			C97.357,40.774,97.233,41.317,97.233,42.065z"/>
		<path d="M102.402,47.632V30.997h3.872v9.242l3.411-3.983h4.269l-4.114,4.379l4.466,6.997h-4.378l-2.641-4.269l-1.013,1.078v3.19
			L102.402,47.632L102.402,47.632z"/>
		<path d="M121.234,44.991c1.306,0,2.179-0.462,2.618-1.386l3.278,1.034c-1.041,2.259-2.992,3.389-5.853,3.389
			c-1.818,0-3.286-0.521-4.4-1.562c-1.174-1.071-1.761-2.53-1.761-4.379c0-1.907,0.558-3.406,1.673-4.5
			c1.114-1.093,2.589-1.639,4.423-1.639c1.701,0,3.102,0.491,4.202,1.475c1.188,1.085,1.782,2.61,1.782,4.576
			c0,0.278-0.015,0.572-0.044,0.88h-8.295C119.093,44.287,119.885,44.991,121.234,44.991z M121.213,38.963
			c-1.306,0-2.083,0.564-2.333,1.694h4.577C123.28,39.527,122.532,38.963,121.213,38.963z"/>
		<path d="M130.958,32.626l1.893-0.814h0.176V36.3h2.332v3.059h-2.332v4.203c0,0.646,0.286,0.968,0.858,0.968
			c0.454,0,0.813-0.081,1.078-0.242h0.044v3.257c-0.733,0.293-1.577,0.439-2.53,0.439c-1.291,0-2.168-0.268-2.63-0.803
			c-0.462-0.535-0.693-1.368-0.693-2.497v-5.325v-5.853C129.447,33.345,130.049,33.051,130.958,32.626z M129.153,33.506v5.853
			V33.506z"/>
		<path d="M136.985,45.938l2.024-2.244c1.026,0.895,2.354,1.342,3.982,1.342c1.203,0,1.804-0.257,1.804-0.77
			c0-0.279-0.161-0.455-0.483-0.528c-0.47-0.059-1.159-0.14-2.068-0.242c-1.599-0.19-2.743-0.528-3.433-1.012
			c-0.865-0.602-1.298-1.533-1.298-2.795c0-1.877,1.093-3.051,3.278-3.521c0.646-0.132,1.342-0.198,2.09-0.198
			c2.318,0,4.056,0.404,5.215,1.211l-1.76,2.552c-0.866-0.616-2.062-0.924-3.587-0.924c-0.953,0-1.496,0.146-1.628,0.44
			c-0.044,0.088-0.066,0.176-0.066,0.264c0,0.322,0.341,0.524,1.023,0.605c0.682,0.08,1.69,0.209,3.025,0.385
			c2.317,0.425,3.477,1.606,3.477,3.542c0,2.611-1.812,3.917-5.435,3.917C140.447,47.962,138.394,47.287,136.985,45.938z"/>
		<path d="M151.065,51.549l-0.021-1.431c0.66-0.073,1.217-0.278,1.672-0.616c0.514-0.366,0.8-0.836,0.858-1.408
			c-0.704,0.088-1.335-0.095-1.893-0.55c-0.439-0.353-0.66-0.873-0.66-1.562c0-0.675,0.231-1.225,0.693-1.65
			s1.023-0.638,1.684-0.638c0.719,0,1.298,0.23,1.738,0.693c0.439,0.462,0.711,1.066,0.813,1.814
			c0.132,0.954,0.044,1.805-0.264,2.553C154.938,50.573,153.398,51.505,151.065,51.549z"/>
		<path d="M11.28,59.256l-0.044,2.003c0.866-1.541,2.208-2.311,4.027-2.311c2.464,0,3.696,1.283,3.696,3.851v7.833h-3.873v-6.491
			c0-1.276-0.521-1.914-1.562-1.914c-0.896,0-1.511,0.33-1.849,0.99c-0.264,0.484-0.396,1.218-0.396,2.2v5.215H7.408V59.256H11.28z"
			/>
		<path d="M27.032,67.991c1.306,0,2.179-0.462,2.618-1.386l3.278,1.034c-1.041,2.259-2.992,3.388-5.853,3.388
			c-1.818,0-3.286-0.521-4.4-1.562c-1.174-1.071-1.761-2.53-1.761-4.379c0-1.907,0.558-3.406,1.673-4.5
			c1.114-1.093,2.589-1.639,4.423-1.639c1.701,0,3.102,0.491,4.202,1.475c1.188,1.085,1.782,2.61,1.782,4.576
			c0,0.278-0.015,0.572-0.044,0.88h-8.295C24.891,67.287,25.683,67.991,27.032,67.991z M27.011,61.963
			c-1.306,0-2.083,0.564-2.333,1.694h4.577C29.079,62.527,28.33,61.963,27.011,61.963z"/>
		<path d="M38.01,59.256l1.54,6.8l1.915-6.8h2.948l1.694,6.8l1.76-6.8h3.829l-3.543,11.376h-3.851l-1.54-6.183l-1.65,6.183h-3.851
			l-3.389-11.376H38.01z"/>
		<path d="M59.592,69.466c-1.145-1.071-1.717-2.53-1.717-4.379c0-1.878,0.565-3.381,1.694-4.511
			c1.086-1.085,2.509-1.628,4.269-1.628c2.714,0,4.555,1.174,5.523,3.521l-3.125,1.54c-0.454-1.276-1.21-1.914-2.266-1.914
			c-1.452,0-2.179,0.953-2.179,2.86c0,2.024,0.733,3.036,2.2,3.036c1.145,0,1.893-0.689,2.244-2.068l3.278,1.431
			c-0.938,2.449-2.823,3.675-5.654,3.675C62.1,71.027,60.677,70.507,59.592,69.466z"/>
		<path d="M75.19,53.997v7.218c0.851-1.512,2.178-2.267,3.982-2.267c2.464,0,3.696,1.283,3.696,3.851v7.833h-3.873v-6.491
			c0-1.276-0.521-1.914-1.562-1.914c-0.896,0-1.511,0.33-1.849,0.99c-0.264,0.484-0.396,1.218-0.396,2.2v5.215h-3.873V53.997H75.19z
			"/>
		<path d="M92.074,62.314c-0.227-0.22-0.722-0.33-1.484-0.33c-1.394,0-2.45,0.47-3.169,1.408l-2.442-2.024
			c1.438-1.613,3.462-2.42,6.073-2.42c1.496,0,2.647,0.22,3.454,0.66c1.057,0.587,1.584,1.592,1.584,3.015v4.29
			c0,0.821,0.286,1.232,0.858,1.232c0.205,0,0.396-0.037,0.572-0.11h0.088l-0.748,2.509c-0.382,0.176-0.895,0.265-1.54,0.265
			c-1.496,0-2.421-0.499-2.772-1.497c-0.88,1.13-2.179,1.694-3.895,1.694c-2.582,0-3.873-1.086-3.873-3.257
			c0-2.142,1.541-3.432,4.621-3.872c0.924-0.132,1.929-0.228,3.015-0.286C92.416,62.96,92.302,62.534,92.074,62.314z M91.514,67.617
			c0.646-0.454,0.968-1.026,0.968-1.716c-2.64,0-3.96,0.506-3.96,1.518c0,0.543,0.374,0.814,1.122,0.814
			C90.318,68.233,90.941,68.028,91.514,67.617z"/>
		<path d="M103.327,59.256l-0.045,2.003c0.866-1.541,2.208-2.311,4.027-2.311c2.464,0,3.696,1.283,3.696,3.851v7.833h-3.873v-6.491
			c0-1.276-0.521-1.914-1.562-1.914c-0.896,0-1.511,0.33-1.849,0.99c-0.264,0.484-0.396,1.218-0.396,2.2v5.215h-3.873V59.256
			H103.327z"/>
		<path d="M117.604,59.256l-0.045,2.003c0.866-1.541,2.208-2.311,4.027-2.311c2.464,0,3.696,1.283,3.696,3.851v7.833h-3.873v-6.491
			c0-1.276-0.521-1.914-1.562-1.914c-0.896,0-1.511,0.33-1.849,0.99c-0.264,0.484-0.396,1.218-0.396,2.2v5.215h-3.873V59.256
			H117.604z"/>
		<path d="M133.355,67.991c1.306,0,2.179-0.462,2.618-1.386l3.278,1.034c-1.041,2.259-2.992,3.388-5.853,3.388
			c-1.818,0-3.286-0.521-4.4-1.562c-1.174-1.071-1.761-2.53-1.761-4.379c0-1.907,0.558-3.406,1.673-4.5
			c1.114-1.093,2.589-1.639,4.423-1.639c1.701,0,3.102,0.491,4.202,1.475c1.188,1.085,1.782,2.61,1.782,4.576
			c0,0.278-0.015,0.572-0.044,0.88h-8.295C131.214,67.287,132.006,67.991,133.355,67.991z M133.334,61.963
			c-1.306,0-2.083,0.564-2.333,1.694h4.577C135.401,62.527,134.653,61.963,133.334,61.963z"/>
		<path d="M145.323,53.997v16.635h-3.872V53.997H145.323z"/>
		<path d="M147.083,68.938l2.024-2.244c1.026,0.895,2.354,1.342,3.982,1.342c1.203,0,1.804-0.257,1.804-0.77
			c0-0.279-0.161-0.455-0.483-0.528c-0.47-0.059-1.159-0.14-2.068-0.242c-1.599-0.19-2.743-0.528-3.433-1.012
			c-0.865-0.602-1.298-1.533-1.298-2.795c0-1.877,1.093-3.051,3.278-3.521c0.646-0.132,1.342-0.198,2.09-0.198
			c2.318,0,4.056,0.404,5.215,1.211l-1.76,2.552c-0.866-0.616-2.062-0.924-3.587-0.924c-0.953,0-1.496,0.146-1.628,0.44
			c-0.044,0.088-0.066,0.176-0.066,0.264c0,0.322,0.341,0.524,1.023,0.605c0.682,0.08,1.69,0.209,3.025,0.385
			c2.317,0.425,3.477,1.606,3.477,3.542c0,2.611-1.812,3.917-5.435,3.917C150.545,70.962,148.491,70.287,147.083,68.938z"/>
		<path d="M161.163,74.549l-0.021-1.431c0.66-0.073,1.217-0.278,1.672-0.616c0.514-0.366,0.8-0.836,0.858-1.408
			c-0.704,0.088-1.335-0.095-1.893-0.55c-0.439-0.353-0.66-0.873-0.66-1.562c0-0.675,0.231-1.225,0.693-1.65
			s1.023-0.638,1.684-0.638c0.719,0,1.298,0.23,1.738,0.693c0.439,0.462,0.711,1.066,0.813,1.814
			c0.132,0.954,0.044,1.805-0.264,2.553C165.036,73.573,163.496,74.505,161.163,74.549z"/>
		<path d="M11.28,82.256l-0.044,2.003c0.866-1.541,2.208-2.311,4.027-2.311c2.464,0,3.696,1.282,3.696,3.851v7.833h-3.873v-6.491
			c0-1.275-0.521-1.914-1.562-1.914c-0.896,0-1.511,0.33-1.849,0.99c-0.264,0.484-0.396,1.219-0.396,2.2v5.215H7.408V82.256H11.28z"
			/>
		<path d="M27.032,90.991c1.306,0,2.179-0.462,2.618-1.386l3.278,1.033c-1.041,2.26-2.992,3.389-5.853,3.389
			c-1.818,0-3.286-0.521-4.4-1.562c-1.174-1.071-1.761-2.53-1.761-4.379c0-1.907,0.558-3.405,1.673-4.5
			c1.114-1.093,2.589-1.639,4.423-1.639c1.701,0,3.102,0.491,4.202,1.475c1.188,1.085,1.782,2.61,1.782,4.576
			c0,0.278-0.015,0.571-0.044,0.88h-8.295C24.891,90.287,25.683,90.991,27.032,90.991z M27.011,84.963
			c-1.306,0-2.083,0.564-2.333,1.694h4.577C29.079,85.527,28.33,84.963,27.011,84.963z"/>
		<path d="M38.01,82.256l1.54,6.801l1.915-6.801h2.948l1.694,6.801l1.76-6.801h3.829l-3.543,11.376h-3.851l-1.54-6.183l-1.65,6.183
			h-3.851l-3.389-11.376H38.01z"/>
		<path d="M59.592,92.466c-1.145-1.071-1.717-2.53-1.717-4.379c0-1.878,0.565-3.381,1.694-4.511
			c1.086-1.085,2.509-1.628,4.269-1.628c2.714,0,4.555,1.174,5.523,3.521l-3.125,1.54c-0.454-1.276-1.21-1.913-2.266-1.913
			c-1.452,0-2.179,0.952-2.179,2.859c0,2.023,0.733,3.036,2.2,3.036c1.145,0,1.893-0.689,2.244-2.068l3.278,1.431
			c-0.938,2.449-2.823,3.676-5.654,3.676C62.1,94.027,60.677,93.507,59.592,92.466z"/>
		<path d="M75.3,76.997v16.635h-3.872V76.997H75.3z"/>
		<path d="M78.698,80.23c-0.433-0.424-0.648-0.953-0.648-1.584c0-0.66,0.216-1.205,0.648-1.639c0.434-0.433,0.973-0.648,1.617-0.648
			c0.66,0,1.207,0.217,1.64,0.648s0.642,0.973,0.627,1.617c-0.015,0.675-0.23,1.217-0.648,1.628
			c-0.419,0.411-0.958,0.616-1.618,0.616C79.671,80.87,79.132,80.657,78.698,80.23z M82.208,82.256v11.376h-3.872V82.256H82.208z"/>
		<path d="M90.48,90.991c1.306,0,2.179-0.462,2.618-1.386l3.278,1.033c-1.041,2.26-2.992,3.389-5.853,3.389
			c-1.818,0-3.286-0.521-4.4-1.562c-1.174-1.071-1.761-2.53-1.761-4.379c0-1.907,0.558-3.405,1.673-4.5
			c1.114-1.093,2.589-1.639,4.423-1.639c1.701,0,3.102,0.491,4.202,1.475c1.188,1.085,1.782,2.61,1.782,4.576
			c0,0.278-0.015,0.571-0.044,0.88h-8.295C88.339,90.287,89.131,90.991,90.48,90.991z M90.459,84.963
			c-1.306,0-2.083,0.564-2.333,1.694h4.577C92.526,85.527,91.778,84.963,90.459,84.963z"/>
		<path d="M102.339,82.256l-0.045,2.003c0.866-1.541,2.208-2.311,4.027-2.311c2.464,0,3.696,1.282,3.696,3.851v7.833h-3.873v-6.491
			c0-1.275-0.521-1.914-1.562-1.914c-0.896,0-1.511,0.33-1.849,0.99c-0.264,0.484-0.396,1.219-0.396,2.2v5.215h-3.873V82.256
			H102.339z"/>
		<path d="M114.481,78.626l1.893-0.813h0.176V82.3h2.332v3.06h-2.332v4.203c0,0.646,0.286,0.968,0.858,0.968
			c0.454,0,0.813-0.081,1.078-0.242h0.044v3.257c-0.733,0.293-1.577,0.439-2.53,0.439c-1.291,0-2.168-0.269-2.63-0.803
			c-0.462-0.535-0.693-1.369-0.693-2.498v-5.324v-5.854C112.971,79.345,113.572,79.051,114.481,78.626z M112.677,79.506v5.854
			V79.506z"/>
		<path d="M120.509,91.938l2.024-2.244c1.026,0.896,2.354,1.343,3.982,1.343c1.203,0,1.804-0.257,1.804-0.771
			c0-0.279-0.161-0.455-0.483-0.527c-0.47-0.059-1.159-0.141-2.068-0.242c-1.599-0.189-2.743-0.528-3.433-1.012
			c-0.865-0.603-1.298-1.533-1.298-2.795c0-1.877,1.093-3.051,3.278-3.521c0.646-0.132,1.342-0.197,2.09-0.197
			c2.318,0,4.056,0.403,5.215,1.211l-1.76,2.551c-0.866-0.615-2.062-0.924-3.587-0.924c-0.953,0-1.496,0.146-1.628,0.44
			c-0.044,0.088-0.066,0.176-0.066,0.265c0,0.321,0.341,0.523,1.023,0.604c0.682,0.08,1.69,0.209,3.025,0.385
			c2.317,0.425,3.477,1.606,3.477,3.542c0,2.611-1.812,3.917-5.435,3.917C123.971,93.962,121.917,93.287,120.509,91.938z"/>
	</g>
</g>
<g>
	<g>
		<path d="M399.881,34.231c-0.433-0.425-0.647-0.953-0.647-1.584c0-0.66,0.216-1.206,0.647-1.639
			c0.435-0.433,0.973-0.649,1.617-0.649c0.66,0,1.207,0.217,1.64,0.649c0.434,0.432,0.643,0.972,0.627,1.617
			c-0.015,0.675-0.229,1.217-0.647,1.628c-0.419,0.411-0.958,0.616-1.618,0.616C400.854,34.87,400.314,34.657,399.881,34.231z
			 M403.391,36.256v11.376h-3.872V36.256H403.391z"/>
		<path d="M413.445,41.053c0-1.218-0.478-1.826-1.431-1.826c-0.748,0-1.262,0.293-1.541,0.88c-0.189,0.396-0.286,1.02-0.286,1.87
			v5.655h-3.871V36.256h3.871l-0.043,1.761c0.777-1.379,1.906-2.068,3.389-2.068c1.774,0,2.919,0.616,3.433,1.849
			c0.88-1.232,2.105-1.849,3.675-1.849c1.203,0,2.112,0.271,2.729,0.814c0.719,0.645,1.078,1.649,1.078,3.014v7.855h-3.873v-6.579
			c0-1.218-0.478-1.826-1.431-1.826c-0.747,0-1.262,0.293-1.539,0.88c-0.191,0.396-0.286,1.02-0.286,1.87v5.655h-3.873
			L413.445,41.053L413.445,41.053z"/>
		<path d="M431.046,36.256l-0.045,1.673c0.764-1.32,1.93-1.98,3.499-1.98c1.643,0,2.875,0.594,3.696,1.782
			c0.719,1.026,1.078,2.405,1.078,4.137c0,1.701-0.322,3.08-0.969,4.137c-0.776,1.291-1.958,1.936-3.543,1.936
			c-1.716,0-2.955-0.615-3.718-1.848v5.479h-3.873V36.256H431.046z M435.38,41.889c0-1.877-0.726-2.816-2.178-2.816
			c-0.719,0-1.284,0.301-1.694,0.902c-0.353,0.528-0.527,1.174-0.527,1.937c0,0.763,0.176,1.4,0.527,1.914
			c0.41,0.602,0.977,0.902,1.694,0.902C434.654,44.728,435.38,43.781,435.38,41.889z"/>
		<path d="M445.278,42.065v5.566h-3.872V36.256h3.872l-0.044,1.387c0.571-0.998,1.475-1.496,2.707-1.496
			c0.146,0,0.293,0.007,0.438,0.021l-0.044,3.719c-0.205-0.029-0.469-0.044-0.792-0.044c-0.953,0-1.584,0.198-1.892,0.594
			C445.403,40.774,445.278,41.317,445.278,42.065z"/>
		<path d="M451.372,46.455c-1.129-1.049-1.694-2.505-1.694-4.368c0-1.893,0.565-3.389,1.694-4.488c1.13-1.101,2.604-1.65,4.423-1.65
			c1.775,0,3.23,0.558,4.368,1.672c1.137,1.115,1.705,2.56,1.705,4.335c0,1.893-0.565,3.377-1.694,4.456
			c-1.13,1.078-2.597,1.617-4.399,1.617C453.969,48.028,452.502,47.504,451.372,46.455z M457.995,41.977
			c0-1.921-0.733-2.882-2.2-2.882c-1.48,0-2.223,0.953-2.223,2.86c0,2.024,0.74,3.036,2.223,3.036
			C457.262,44.991,457.995,43.986,457.995,41.977z"/>
		<path d="M466.927,36.256l2.2,6.909l2.42-6.909h3.852l-4.356,11.376h-4.049l-4.226-11.376H466.927z"/>
		<path d="M482.415,44.991c1.306,0,2.179-0.462,2.618-1.386l3.277,1.034c-1.041,2.259-2.991,3.389-5.853,3.389
			c-1.818,0-3.286-0.521-4.4-1.562c-1.174-1.071-1.761-2.53-1.761-4.379c0-1.907,0.559-3.406,1.673-4.5
			c1.114-1.093,2.589-1.639,4.423-1.639c1.701,0,3.103,0.491,4.202,1.475c1.188,1.085,1.782,2.61,1.782,4.576
			c0,0.278-0.015,0.572-0.044,0.88h-8.295C480.273,44.287,481.065,44.991,482.415,44.991z M482.395,38.963
			c-1.307,0-2.084,0.564-2.334,1.694h4.577C484.462,39.527,483.713,38.963,482.395,38.963z"/>
		<path d="M490.73,46.069c-0.676-1.041-1.013-2.442-1.013-4.202c0-1.702,0.359-3.073,1.078-4.115
			c0.821-1.202,2.046-1.804,3.674-1.804c1.32,0,2.325,0.381,3.016,1.145c0.189,0.22,0.358,0.439,0.506,0.659v-6.755h3.873v16.635
			h-3.873l0.044-1.672c-0.763,1.32-1.973,1.979-3.63,1.979C492.747,47.939,491.521,47.316,490.73,46.069z M497.508,43.825
			c0.366-0.499,0.55-1.137,0.55-1.914c0-0.807-0.176-1.467-0.527-1.98c-0.396-0.572-0.982-0.858-1.761-0.858
			c-1.438,0-2.155,0.939-2.155,2.816c0,1.863,0.719,2.795,2.155,2.795C496.518,44.684,497.097,44.397,497.508,43.825z"/>
		<path d="M403.28,59.256l-0.044,1.673c0.764-1.32,1.93-1.98,3.499-1.98c1.643,0,2.875,0.594,3.695,1.782
			c0.72,1.026,1.078,2.405,1.078,4.137c0,1.701-0.321,3.08-0.968,4.137c-0.777,1.291-1.958,1.937-3.543,1.937
			c-1.716,0-2.955-0.615-3.719-1.849v5.479h-3.872V59.256H403.28z M407.615,64.889c0-1.877-0.727-2.816-2.178-2.816
			c-0.72,0-1.284,0.301-1.694,0.902c-0.354,0.528-0.528,1.174-0.528,1.937c0,0.763,0.176,1.4,0.528,1.914
			c0.41,0.602,0.976,0.902,1.694,0.902C406.89,67.728,407.615,66.781,407.615,64.889z"/>
		<path d="M417.515,65.065v5.566h-3.873V59.256h3.873l-0.045,1.387c0.572-0.998,1.476-1.496,2.707-1.496
			c0.146,0,0.293,0.007,0.439,0.021l-0.044,3.719c-0.205-0.029-0.469-0.044-0.792-0.044c-0.953,0-1.584,0.198-1.893,0.594
			C417.639,63.774,417.515,64.317,417.515,65.065z"/>
		<path d="M423.607,69.455c-1.129-1.049-1.694-2.505-1.694-4.368c0-1.893,0.565-3.389,1.694-4.488c1.13-1.101,2.604-1.65,4.423-1.65
			c1.774,0,3.229,0.558,4.368,1.672c1.137,1.115,1.705,2.56,1.705,4.335c0,1.893-0.565,3.377-1.694,4.456
			c-1.13,1.078-2.597,1.617-4.4,1.617C426.204,71.027,424.737,70.504,423.607,69.455z M430.23,64.977c0-1.921-0.733-2.882-2.2-2.882
			c-1.481,0-2.224,0.953-2.224,2.86c0,2.024,0.741,3.036,2.224,3.036C429.497,67.991,430.23,66.986,430.23,64.977z"/>
		<path d="M437.094,69.466c-1.145-1.071-1.717-2.53-1.717-4.379c0-1.878,0.565-3.381,1.694-4.511
			c1.086-1.085,2.509-1.628,4.269-1.628c2.714,0,4.555,1.174,5.523,3.521l-3.125,1.54c-0.454-1.276-1.21-1.914-2.267-1.914
			c-1.452,0-2.179,0.953-2.179,2.86c0,2.024,0.733,3.036,2.2,3.036c1.145,0,1.893-0.689,2.244-2.068l3.277,1.431
			c-0.938,2.449-2.822,3.675-5.653,3.675C439.602,71.027,438.179,70.507,437.094,69.466z"/>
		<path d="M454.166,67.991c1.306,0,2.179-0.462,2.618-1.386l3.278,1.034c-1.041,2.259-2.992,3.388-5.854,3.388
			c-1.818,0-3.286-0.521-4.4-1.562c-1.174-1.071-1.761-2.53-1.761-4.379c0-1.907,0.559-3.406,1.673-4.5
			c1.114-1.093,2.59-1.639,4.424-1.639c1.7,0,3.102,0.491,4.201,1.475c1.188,1.085,1.782,2.61,1.782,4.576
			c0,0.278-0.015,0.572-0.044,0.88h-8.295C452.024,67.287,452.816,67.991,454.166,67.991z M454.145,61.963
			c-1.306,0-2.082,0.564-2.332,1.694h4.576C456.212,62.527,455.464,61.963,454.145,61.963z"/>
		<path d="M460.985,68.938l2.023-2.244c1.026,0.895,2.354,1.342,3.982,1.342c1.203,0,1.804-0.257,1.804-0.77
			c0-0.279-0.161-0.455-0.483-0.528c-0.47-0.059-1.158-0.14-2.067-0.242c-1.6-0.19-2.743-0.528-3.434-1.012
			c-0.864-0.602-1.298-1.533-1.298-2.795c0-1.877,1.093-3.051,3.278-3.521c0.646-0.132,1.342-0.198,2.09-0.198
			c2.318,0,4.056,0.404,5.215,1.211l-1.76,2.552c-0.866-0.616-2.062-0.924-3.587-0.924c-0.953,0-1.496,0.146-1.628,0.44
			c-0.044,0.088-0.066,0.176-0.066,0.264c0,0.322,0.341,0.524,1.023,0.605c0.682,0.08,1.689,0.209,3.024,0.385
			c2.317,0.425,3.478,1.606,3.478,3.542c0,2.611-1.812,3.917-5.436,3.917C464.447,70.962,462.395,70.287,460.985,68.938z"/>
		<path d="M473.35,68.938l2.024-2.244c1.026,0.895,2.354,1.342,3.981,1.342c1.203,0,1.805-0.257,1.805-0.77
			c0-0.279-0.161-0.455-0.483-0.528c-0.47-0.059-1.159-0.14-2.067-0.242c-1.6-0.19-2.743-0.528-3.434-1.012
			c-0.865-0.602-1.298-1.533-1.298-2.795c0-1.877,1.093-3.051,3.278-3.521c0.646-0.132,1.342-0.198,2.09-0.198
			c2.318,0,4.056,0.404,5.215,1.211l-1.76,2.552c-0.866-0.616-2.062-0.924-3.587-0.924c-0.953,0-1.496,0.146-1.628,0.44
			c-0.044,0.088-0.066,0.176-0.066,0.264c0,0.322,0.341,0.524,1.023,0.605c0.682,0.08,1.689,0.209,3.024,0.385
			c2.317,0.425,3.478,1.606,3.478,3.542c0,2.611-1.812,3.917-5.436,3.917C476.812,70.962,474.758,70.287,473.35,68.938z"/>
		<path d="M492.227,67.991c1.307,0,2.18-0.462,2.618-1.386l3.278,1.034c-1.041,2.259-2.992,3.388-5.854,3.388
			c-1.817,0-3.285-0.521-4.399-1.562c-1.174-1.071-1.761-2.53-1.761-4.379c0-1.907,0.558-3.406,1.673-4.5
			c1.114-1.093,2.589-1.639,4.423-1.639c1.701,0,3.102,0.491,4.202,1.475c1.188,1.085,1.782,2.61,1.782,4.576
			c0,0.278-0.016,0.572-0.045,0.88h-8.295C490.085,67.287,490.877,67.991,492.227,67.991z M492.205,61.963
			c-1.306,0-2.083,0.564-2.333,1.694h4.577C494.271,62.527,493.524,61.963,492.205,61.963z"/>
		<path d="M499.046,68.938l2.024-2.244c1.025,0.895,2.354,1.342,3.981,1.342c1.203,0,1.804-0.257,1.804-0.77
			c0-0.279-0.16-0.455-0.482-0.528c-0.47-0.059-1.159-0.14-2.068-0.242c-1.599-0.19-2.743-0.528-3.433-1.012
			c-0.865-0.602-1.298-1.533-1.298-2.795c0-1.877,1.093-3.051,3.277-3.521c0.646-0.132,1.343-0.198,2.091-0.198
			c2.317,0,4.056,0.404,5.215,1.211l-1.761,2.552c-0.865-0.616-2.062-0.924-3.587-0.924c-0.952,0-1.495,0.146-1.628,0.44
			c-0.044,0.088-0.065,0.176-0.065,0.264c0,0.322,0.341,0.524,1.022,0.605c0.683,0.08,1.69,0.209,3.025,0.385
			c2.316,0.425,3.477,1.606,3.477,3.542c0,2.611-1.812,3.917-5.435,3.917C502.508,70.962,500.454,70.287,499.046,68.938z"/>
	</g>
</g>
<g>
	<g>
		<path d="M782.881,34.231c-0.433-0.425-0.648-0.953-0.648-1.584c0-0.66,0.217-1.206,0.648-1.639
			c0.434-0.433,0.973-0.649,1.617-0.649c0.66,0,1.207,0.217,1.64,0.649c0.434,0.432,0.643,0.972,0.627,1.617
			c-0.015,0.675-0.229,1.217-0.647,1.628c-0.419,0.411-0.958,0.616-1.618,0.616C783.854,34.87,783.314,34.657,782.881,34.231z
			 M786.391,36.256v11.376h-3.871V36.256H786.391z"/>
		<path d="M793.188,36.256l-0.043,2.003c0.865-1.541,2.207-2.311,4.026-2.311c2.464,0,3.696,1.283,3.696,3.851v7.833h-3.873v-6.491
			c0-1.276-0.521-1.914-1.562-1.914c-0.896,0-1.511,0.33-1.849,0.99c-0.264,0.484-0.396,1.218-0.396,2.2v5.215h-3.873V36.256
			H793.188z"/>
		<path d="M804.54,46.466c-1.146-1.071-1.717-2.53-1.717-4.379c0-1.878,0.564-3.381,1.693-4.511c1.087-1.085,2.509-1.628,4.27-1.628
			c2.714,0,4.555,1.174,5.522,3.521l-3.125,1.54c-0.453-1.276-1.21-1.914-2.266-1.914c-1.453,0-2.179,0.953-2.179,2.86
			c0,2.024,0.732,3.036,2.2,3.036c1.145,0,1.893-0.689,2.243-2.068l3.278,1.431c-0.938,2.449-2.823,3.675-5.654,3.675
			C807.048,48.028,805.625,47.507,804.54,46.466z"/>
		<path d="M820.138,42.065v5.566h-3.872V36.256h3.872l-0.044,1.387c0.572-0.998,1.476-1.496,2.707-1.496
			c0.146,0,0.293,0.007,0.439,0.021l-0.044,3.719c-0.205-0.029-0.47-0.044-0.792-0.044c-0.953,0-1.584,0.198-1.893,0.594
			C820.263,40.774,820.138,41.317,820.138,42.065z"/>
		<path d="M830.654,44.991c1.306,0,2.179-0.462,2.617-1.386l3.278,1.034c-1.041,2.259-2.992,3.389-5.853,3.389
			c-1.818,0-3.286-0.521-4.4-1.562c-1.174-1.071-1.761-2.53-1.761-4.379c0-1.907,0.558-3.406,1.673-4.5
			c1.114-1.093,2.589-1.639,4.423-1.639c1.701,0,3.103,0.491,4.202,1.475c1.188,1.085,1.782,2.61,1.782,4.576
			c0,0.278-0.016,0.572-0.044,0.88h-8.295C828.513,44.287,829.305,44.991,830.654,44.991z M830.633,38.963
			c-1.306,0-2.083,0.564-2.333,1.694h4.577C832.7,39.527,831.952,38.963,830.633,38.963z"/>
		<path d="M845.119,39.314c-0.227-0.22-0.723-0.33-1.484-0.33c-1.394,0-2.449,0.47-3.169,1.408l-2.442-2.024
			c1.438-1.613,3.463-2.42,6.073-2.42c1.496,0,2.647,0.22,3.454,0.66c1.057,0.587,1.584,1.592,1.584,3.015v4.29
			c0,0.821,0.286,1.232,0.858,1.232c0.205,0,0.396-0.037,0.571-0.11h0.089l-0.748,2.509c-0.382,0.176-0.896,0.264-1.54,0.264
			c-1.496,0-2.421-0.498-2.772-1.496c-0.88,1.13-2.179,1.694-3.895,1.694c-2.582,0-3.873-1.086-3.873-3.257
			c0-2.142,1.541-3.432,4.621-3.872c0.924-0.132,1.929-0.228,3.015-0.286C845.461,39.96,845.347,39.534,845.119,39.314z
			 M844.559,44.617c0.646-0.454,0.969-1.026,0.969-1.716c-2.641,0-3.96,0.506-3.96,1.518c0,0.543,0.374,0.814,1.122,0.814
			C843.363,45.233,843.986,45.028,844.559,44.617z"/>
		<path d="M851.333,45.938l2.024-2.244c1.025,0.895,2.354,1.342,3.981,1.342c1.203,0,1.804-0.257,1.804-0.77
			c0-0.279-0.16-0.455-0.482-0.528c-0.47-0.059-1.159-0.14-2.068-0.242c-1.599-0.19-2.742-0.528-3.433-1.012
			c-0.865-0.602-1.298-1.533-1.298-2.795c0-1.877,1.093-3.051,3.277-3.521c0.646-0.132,1.343-0.198,2.091-0.198
			c2.317,0,4.056,0.404,5.215,1.211l-1.761,2.552c-0.865-0.616-2.062-0.924-3.586-0.924c-0.953,0-1.496,0.146-1.629,0.44
			c-0.044,0.088-0.065,0.176-0.065,0.264c0,0.322,0.341,0.524,1.022,0.605c0.683,0.08,1.69,0.209,3.025,0.385
			c2.317,0.425,3.477,1.606,3.477,3.542c0,2.611-1.812,3.917-5.435,3.917C854.795,47.962,852.741,47.287,851.333,45.938z"/>
		<path d="M870.21,44.991c1.306,0,2.179-0.462,2.618-1.386l3.277,1.034c-1.041,2.259-2.991,3.389-5.853,3.389
			c-1.817,0-3.286-0.521-4.399-1.562c-1.175-1.071-1.762-2.53-1.762-4.379c0-1.907,0.559-3.406,1.673-4.5
			c1.114-1.093,2.589-1.639,4.423-1.639c1.701,0,3.103,0.491,4.202,1.475c1.188,1.085,1.782,2.61,1.782,4.576
			c0,0.278-0.015,0.572-0.044,0.88h-8.295C868.068,44.287,868.86,44.991,870.21,44.991z M870.188,38.963
			c-1.306,0-2.082,0.564-2.332,1.694h4.576C872.257,39.527,871.508,38.963,870.188,38.963z"/>
		<path d="M878.525,46.069c-0.676-1.041-1.013-2.442-1.013-4.202c0-1.702,0.359-3.073,1.078-4.115
			c0.821-1.202,2.046-1.804,3.674-1.804c1.32,0,2.325,0.381,3.016,1.145c0.189,0.22,0.358,0.439,0.506,0.659v-6.755h3.873v16.635
			h-3.873l0.044-1.672c-0.763,1.32-1.973,1.979-3.63,1.979C880.542,47.939,879.317,47.316,878.525,46.069z M885.303,43.825
			c0.366-0.499,0.551-1.137,0.551-1.914c0-0.807-0.177-1.467-0.528-1.98c-0.396-0.572-0.982-0.858-1.761-0.858
			c-1.438,0-2.155,0.939-2.155,2.816c0,1.863,0.719,2.795,2.155,2.795C884.312,44.684,884.893,44.397,885.303,43.825z"/>
		<path d="M901.626,36.256l-0.045,1.673c0.764-1.32,1.93-1.98,3.499-1.98c1.643,0,2.875,0.594,3.696,1.782
			c0.719,1.026,1.077,2.405,1.077,4.137c0,1.701-0.321,3.08-0.968,4.137c-0.776,1.291-1.958,1.936-3.543,1.936
			c-1.716,0-2.955-0.615-3.718-1.848v5.479h-3.873V36.256H901.626z M905.96,41.889c0-1.877-0.726-2.816-2.178-2.816
			c-0.72,0-1.284,0.301-1.694,0.902c-0.353,0.528-0.527,1.174-0.527,1.937c0,0.763,0.176,1.4,0.527,1.914
			c0.41,0.602,0.977,0.902,1.694,0.902C905.234,44.728,905.96,43.781,905.96,41.889z"/>
		<path d="M915.857,42.065v5.566h-3.871V36.256h3.871l-0.043,1.387c0.571-0.998,1.475-1.496,2.707-1.496
			c0.146,0,0.293,0.007,0.438,0.021l-0.044,3.719c-0.205-0.029-0.469-0.044-0.792-0.044c-0.953,0-1.584,0.198-1.892,0.594
			C915.982,40.774,915.857,41.317,915.857,42.065z"/>
		<path d="M921.952,46.455c-1.129-1.049-1.694-2.505-1.694-4.368c0-1.893,0.565-3.389,1.694-4.488c1.13-1.101,2.604-1.65,4.423-1.65
			c1.775,0,3.23,0.558,4.368,1.672c1.137,1.115,1.705,2.56,1.705,4.335c0,1.893-0.565,3.377-1.694,4.456
			c-1.13,1.078-2.597,1.617-4.4,1.617C924.549,48.028,923.082,47.504,921.952,46.455z M928.575,41.977
			c0-1.921-0.733-2.882-2.2-2.882c-1.48,0-2.223,0.953-2.223,2.86c0,2.024,0.74,3.036,2.223,3.036
			C927.842,44.991,928.575,43.986,928.575,41.977z"/>
		<path d="M933.414,36.256h2.134v-2.112c0-2.347,1.271-3.521,3.808-3.521c1.13,0,2.127,0.184,2.992,0.551l-0.418,2.992h-0.044
			c-0.426-0.309-0.888-0.462-1.387-0.462c-0.719,0-1.078,0.308-1.078,0.924v1.628h2.662v3.059h-2.662v8.317h-3.873v-8.317h-2.134
			V36.256L933.414,36.256z"/>
		<path d="M944.314,34.231c-0.434-0.425-0.648-0.953-0.648-1.584c0-0.66,0.216-1.206,0.648-1.639
			c0.434-0.433,0.973-0.649,1.616-0.649c0.66,0,1.207,0.217,1.641,0.649c0.433,0.432,0.642,0.972,0.627,1.617
			c-0.015,0.675-0.23,1.217-0.648,1.628c-0.419,0.411-0.958,0.616-1.618,0.616C945.287,34.87,944.748,34.657,944.314,34.231z
			 M947.824,36.256v11.376h-3.872V36.256H947.824z"/>
		<path d="M952.488,32.626l1.893-0.814h0.176V36.3h2.332v3.059h-2.332v4.203c0,0.646,0.286,0.968,0.858,0.968
			c0.454,0,0.813-0.081,1.078-0.242h0.044v3.257c-0.733,0.293-1.577,0.439-2.53,0.439c-1.291,0-2.168-0.268-2.63-0.803
			c-0.462-0.535-0.693-1.368-0.693-2.497v-5.325v-5.853C950.979,33.345,951.579,33.051,952.488,32.626z M950.684,33.506v5.853
			V33.506z"/>
		<path d="M958.516,45.938l2.024-2.244c1.026,0.895,2.354,1.342,3.981,1.342c1.203,0,1.805-0.257,1.805-0.77
			c0-0.279-0.161-0.455-0.483-0.528c-0.47-0.059-1.159-0.14-2.067-0.242c-1.6-0.19-2.743-0.528-3.434-1.012
			c-0.865-0.602-1.298-1.533-1.298-2.795c0-1.877,1.093-3.051,3.278-3.521c0.646-0.132,1.342-0.198,2.09-0.198
			c2.318,0,4.056,0.404,5.215,1.211l-1.76,2.552c-0.866-0.616-2.062-0.924-3.587-0.924c-0.953,0-1.496,0.146-1.628,0.44
			c-0.044,0.088-0.066,0.176-0.066,0.264c0,0.322,0.342,0.524,1.023,0.605c0.682,0.08,1.689,0.209,3.025,0.385
			c2.316,0.425,3.477,1.606,3.477,3.542c0,2.611-1.812,3.917-5.436,3.917C961.979,47.962,959.924,47.287,958.516,45.938z"/>
	</g>
</g>
<g>
	
		<linearGradient id="SVGID_1_" gradientUnits="userSpaceOnUse" x1="185.5718" y1="333.998" x2="692.1873" y2="-28.8488" gradientTransform="matrix(1 0 0 -1 244 235)">
		<stop  offset="0" style="stop-color:#25B5E9"/>
		<stop  offset="0.2703" style="stop-color:#3DB9C1"/>
		<stop  offset="0.8744" style="stop-color:#7AC25C"/>
		<stop  offset="1" style="stop-color:#87C446"/>
	</linearGradient>
	<polygon fill="url(#SVGID_1_)" points="401.265,11.898 395.628,17 772.164,17 777.82,11.718 772.076,6 395.242,6 	"/>
	
		<linearGradient id="SVGID_2_" gradientUnits="userSpaceOnUse" x1="572.2715" y1="333.7529" x2="1077.4171" y2="-28.0413" gradientTransform="matrix(1 0 0 -1 244 235)">
		<stop  offset="0" style="stop-color:#25B5E9"/>
		<stop  offset="0.2703" style="stop-color:#3DB9C1"/>
		<stop  offset="0.8744" style="stop-color:#7AC25C"/>
		<stop  offset="1" style="stop-color:#87C446"/>
	</linearGradient>
	<polygon fill="url(#SVGID_2_)" points="1163.502,11.65 1158,6 781.998,6 787.904,11.878 782.42,17 1158,17 1158,17.3 	"/>
	
		<linearGradient id="SVGID_3_" gradientUnits="userSpaceOnUse" x1="-203.5015" y1="334.5986" x2="306.3403" y2="-30.5591" gradientTransform="matrix(1 0 0 -1 244 235)">
		<stop  offset="0" style="stop-color:#25B5E9"/>
		<stop  offset="0.2703" style="stop-color:#3DB9C1"/>
		<stop  offset="0.8744" style="stop-color:#7AC25C"/>
		<stop  offset="1" style="stop-color:#87C446"/>
	</linearGradient>
	<polygon fill="url(#SVGID_3_)" points="391.055,11.698 385.237,6 6,6 6,17 385.196,17 	"/>
</g>
</svg>
