<?xml version="1.0" encoding="utf-8"?>
<!-- Generator: Adobe Illustrator 16.0.4, SVG Export Plug-In . SVG Version: 6.00 Build 0)  -->
<!DOCTYPE svg PUBLIC "-//W3C//DTD SVG 1.1//EN" "http://www.w3.org/Graphics/SVG/1.1/DTD/svg11.dtd">
<svg version="1.1" id="Layer_1" xmlns="http://www.w3.org/2000/svg" xmlns:xlink="http://www.w3.org/1999/xlink" x="0px" y="0px"
	 width="30px" height="60px" viewBox="0 0 30 60" enable-background="new 0 0 30 60" xml:space="preserve">
<g>
	<path id="LinkedIn__x28_alt_x29__10_" fill="#B6B6B7" d="M25.052,3.207H4.95c-0.963,0-1.743,0.756-1.743,1.689v20.206
		c0,0.933,0.78,1.69,1.743,1.69h20.102c0.963,0,1.741-0.758,1.741-1.69V4.896C26.793,3.963,26.015,3.207,25.052,3.207z
		 M10.357,22.95H6.794V12.301h3.563V22.95z M8.576,10.847H8.553c-1.195,0-1.97-0.817-1.97-1.841c0-1.044,0.797-1.838,2.016-1.838
		s1.969,0.794,1.992,1.838C10.591,10.029,9.817,10.847,8.576,10.847z M23.204,22.95h-3.562v-5.697c0-1.432-0.517-2.408-1.805-2.408
		c-0.985,0-1.571,0.658-1.828,1.295c-0.095,0.227-0.118,0.544-0.118,0.862v5.948h-3.562c0,0,0.046-9.65,0-10.649h3.562v1.51
		c0.473-0.726,1.318-1.761,3.21-1.761c2.346,0,4.104,1.521,4.104,4.794V22.95z M15.867,13.845c0.007-0.01,0.015-0.021,0.023-0.034
		v0.034H15.867z"/>
	<path id="LinkedIn__x28_alt_x29__1_" fill="#27B4E8" d="M25.052,33.207H4.95c-0.963,0-1.743,0.756-1.743,1.689v20.206
		c0,0.933,0.78,1.69,1.743,1.69h20.102c0.963,0,1.741-0.758,1.741-1.69V34.896C26.793,33.963,26.015,33.207,25.052,33.207z
		 M10.357,52.95H6.794V42.301h3.563V52.95z M8.576,40.847H8.553c-1.195,0-1.97-0.817-1.97-1.841c0-1.044,0.797-1.838,2.016-1.838
		s1.969,0.794,1.992,1.838C10.591,40.029,9.817,40.847,8.576,40.847z M23.204,52.95h-3.562v-5.697c0-1.432-0.517-2.408-1.805-2.408
		c-0.985,0-1.571,0.658-1.828,1.295c-0.095,0.227-0.118,0.544-0.118,0.862v5.948h-3.562c0,0,0.046-9.65,0-10.649h3.562v1.51
		c0.473-0.726,1.318-1.761,3.21-1.761c2.346,0,4.104,1.521,4.104,4.794V52.95z M15.867,43.845c0.007-0.01,0.015-0.021,0.023-0.034
		v0.034H15.867z"/>
</g>
</svg>
