<?xml version="1.0" encoding="utf-8"?>
<!-- Generator: Adobe Illustrator 16.0.4, SVG Export Plug-In . SVG Version: 6.00 Build 0)  -->
<!DOCTYPE svg PUBLIC "-//W3C//DTD SVG 1.1//EN" "http://www.w3.org/Graphics/SVG/1.1/DTD/svg11.dtd">
<svg version="1.1" id="Layer_1" xmlns="http://www.w3.org/2000/svg" xmlns:xlink="http://www.w3.org/1999/xlink" x="0px" y="0px"
	 width="150px" height="35px" viewBox="-5 0 150 35" enable-background="new -5 0 150 35" xml:space="preserve">
<g>
	<g>
		<polygon fill="#27B4E8" points="32.141,21.582 19.558,8.952 19.558,8.952 19.507,8.952 19.507,8.952 19.505,8.952 15.206,8.952 
			15.206,13.307 15.206,13.307 27.719,25.935 27.719,25.935 32.141,25.935 32.141,21.647 		"/>
		<polygon fill="#8BC541" points="32.141,13.253 32.141,13.182 32.141,8.952 27.84,8.952 27.838,8.952 27.838,8.952 27.719,8.952 
			27.719,8.952 15.206,21.582 15.206,25.935 19.558,25.935 19.558,25.935 		"/>
	</g>
	<path fill="#231F20" d="M4.671,22.144c1.778,0,3.129-0.398,3.921-2.078l4.914,1.547c-1.584,3.432-4.648,5.079-8.777,5.079
		C-0.61,26.694-4.5,23.432-4.5,17.788c0-5.73,3.657-9.19,9.133-9.19c4.258,0,9.563,2.438,8.906,10.383H1.108
		C1.467,21.055,2.786,22.144,4.671,22.144z M8,15.654c-0.263-1.619-1.319-2.542-3.366-2.542c-1.848,0-3.066,0.6-3.493,2.542H8z"/>
	<path fill="#231F20" d="M34.882,9.056h5.805l-0.067,2.508c0.994-1.682,2.442-2.966,5.244-2.966c4.453,0,7.158,3.195,7.158,8.864
		c0,5.704-2.505,9.101-6.762,9.101c-2.668,0-4.453-0.958-5.571-2.771v8.21h-5.804V9.056H34.882z M47.181,17.492
		c0-2.867-1.053-4.218-3.264-4.218c-1.979,0-3.33,1.751-3.33,4.253c0,2.508,1.353,4.218,3.33,4.218
		C46.063,21.745,47.181,20.359,47.181,17.492z"/>
	<path fill="#231F20" d="M54.713,17.788c0-5.73,3.822-9.19,9.164-9.19c5.343,0,9.099,3.662,9.099,8.998
		c0,5.771-3.821,9.099-9.131,9.099C58.536,26.694,54.713,23.432,54.713,17.788z M67.174,17.625c0-2.863-1.118-4.314-3.297-4.314
		c-2.076,0-3.33,1.351-3.33,4.284c0,2.868,1.154,4.549,3.33,4.549C66.017,22.144,67.174,20.463,67.174,17.625z"/>
	<path fill="#231F20" d="M84.976,8.775c-0.146-0.011-0.308-0.019-0.473-0.019c-1.487,0-3.005,0.861-3.857,2.377l0.063-2.079h-5.803
		v17.041h5.803v-8.801c0-2.205,0.727-3.191,2.376-3.191c0.823,0,1.881,0.012,1.881,0.012L84.976,8.775z"/>
	<path fill="#231F20" d="M98.869,3.854c0-1.658,1.193-2.652,2.857-2.652c1.663,0,2.833,1.052,2.833,2.589
		c0,1.663-1.19,2.625-2.843,2.625C100.062,6.415,98.869,5.474,98.869,3.854z"/>
	<path fill="#231F20" d="M87.012,13.638V9.056l0,0V4.558c1.649-1.052,5.542-2.229,5.542-2.229h0.263v6.728h3.497v4.581h-3.497v6.298
		c0,0.919,0.266,1.451,1.289,1.451c0.725,0,1.285-0.167,1.612-0.361h0.07v4.879c-0.661,0.265-2.082,0.661-3.792,0.661
		c-1.819,0-3.172-0.298-3.927-1.189c-0.694-0.787-1.058-1.943-1.058-3.762V13.638L87.012,13.638z"/>
	<rect x="98.807" y="9.056" fill="#231F20" width="5.805" height="17.041"/>
	<path fill="#231F20" d="M106.49,23.562l3.035-3.363c1.352,1.15,2.803,2.011,5.971,2.011c2.208,0,2.704-0.426,2.704-1.155
		c0-0.958-0.661-0.788-3.824-1.156c-4.257-0.489-7.089-1.582-7.089-5.7c0-4.021,3.555-5.57,8.044-5.57
		c3.727,0,6.498,0.889,7.813,1.811l-2.635,3.829c-1.057-0.726-2.572-1.385-5.38-1.385c-2.271,0-2.536,0.558-2.536,1.054
		c0,0.626,0.494,0.921,3.166,1.124c3.859,0.293,8.112,1.081,8.112,5.66c0,4.095-3.101,5.875-8.146,5.875
		C111.472,26.596,108.538,25.538,106.49,23.562z"/>
	<path fill="#231F20" d="M134.566,22.144c1.783,0,3.136-0.398,3.927-2.078l4.914,1.547c-1.584,3.432-4.651,5.079-8.775,5.079
		c-5.342,0-9.231-3.262-9.231-8.905c0-5.73,3.659-9.19,9.133-9.19c4.255,0,9.566,2.438,8.909,10.383h-12.437
		C131.368,21.055,132.689,22.144,134.566,22.144z M137.9,15.654c-0.268-1.619-1.321-2.542-3.367-2.542
		c-1.845,0-3.066,0.6-3.495,2.542H137.9z"/>
</g>
<polygon fill="#1C931C" points="23.651,13.14 27.958,17.44 23.651,21.748 19.343,17.442 "/>
</svg>
