<?xml version="1.0" encoding="utf-8"?>
<!-- Generator: Adobe Illustrator 16.0.4, SVG Export Plug-In . SVG Version: 6.00 Build 0)  -->
<!DOCTYPE svg PUBLIC "-//W3C//DTD SVG 1.1//EN" "http://www.w3.org/Graphics/SVG/1.1/DTD/svg11.dtd">
<svg version="1.1" id="Layer_1" xmlns="http://www.w3.org/2000/svg" xmlns:xlink="http://www.w3.org/1999/xlink" x="0px" y="0px"
	 width="140px" height="30px" viewBox="0 0 140 30" enable-background="new 0 0 140 30" xml:space="preserve">
<g>
	<g>
		<polygon fill="#27B4E8" points="35.098,19.744 23.365,8.012 23.365,7.963 23.318,7.963 23.318,7.963 23.316,7.963 19.307,7.963 
			19.307,12.023 19.354,12.023 30.975,23.643 30.975,23.805 35.033,23.805 35.033,19.807 		"/>
		<polygon fill="#8BC541" points="35.098,11.975 35.033,11.908 35.033,7.963 31.088,7.963 31.086,7.963 31.086,7.963 30.975,7.963 
			30.975,8.074 19.307,19.744 19.307,23.805 23.365,23.805 23.365,23.705 		"/>
	</g>
	<path fill="#231F20" d="M9.484,20.268c1.658,0,2.918-0.369,3.656-1.936l4.582,1.443c-1.477,3.199-4.334,4.736-8.184,4.736
		c-4.978,0-8.605-3.043-8.605-8.305c0-5.348,3.41-8.574,8.516-8.574c3.971,0,8.918,2.273,8.305,9.686H6.162
		C6.498,19.254,7.727,20.268,9.484,20.268z M12.588,14.213c-0.246-1.51-1.23-2.371-3.139-2.371c-1.723,0-2.859,0.559-3.256,2.371
		H12.588z"/>
	<path fill="#231F20" d="M37.654,8.061h5.412l-0.062,2.338c0.926-1.568,2.277-2.766,4.889-2.766c4.152,0,6.674,2.979,6.674,8.271
		c0,5.318-2.336,8.486-6.305,8.486c-2.488,0-4.152-0.895-5.195-2.584v7.656h-5.412V8.061z M49.123,15.932
		c0-2.678-0.982-3.938-3.044-3.938c-1.844,0-3.105,1.633-3.105,3.971s1.262,3.934,3.105,3.934
		C48.08,19.898,49.123,18.605,49.123,15.932z"/>
	<path fill="#231F20" d="M56.145,16.207c0-5.348,3.564-8.574,8.545-8.574c4.982,0,8.486,3.414,8.486,8.395
		c0,5.381-3.564,8.484-8.516,8.484S56.145,21.469,56.145,16.207z M67.764,16.057c0-2.676-1.043-4.029-3.074-4.029
		c-1.936,0-3.105,1.26-3.105,4c0,2.676,1.076,4.24,3.105,4.24C66.686,20.268,67.764,18.703,67.764,16.057z"/>
	<path fill="#231F20" d="M84.365,7.799c-0.137-0.01-0.287-0.018-0.441-0.018c-1.385,0-2.801,0.803-3.596,2.217l0.059-1.938h-5.412
		v15.896h5.412V15.75c0-2.062,0.678-2.982,2.215-2.982c0.768,0,1.754,0.012,1.754,0.012L84.365,7.799z"/>
	<path fill="#231F20" d="M97.32,3.209c0-1.545,1.111-2.473,2.664-2.473c1.551,0,2.643,0.98,2.643,2.414
		c0,1.551-1.113,2.447-2.652,2.447C98.432,5.598,97.32,4.721,97.32,3.209z"/>
	<path fill="#231F20" d="M86.264,12.332V8.061l0,0V3.865c1.539-0.98,5.168-2.078,5.168-2.078h0.244v6.273h3.262v4.271h-3.262v5.877
		c0,0.857,0.248,1.354,1.201,1.354c0.676,0,1.199-0.156,1.504-0.336h0.066v4.547c-0.617,0.248-1.941,0.617-3.535,0.617
		c-1.697,0-2.957-0.277-3.662-1.107c-0.646-0.736-0.986-1.814-0.986-3.508V12.332L86.264,12.332z"/>
	<rect x="97.262" y="8.061" fill="#231F20" width="5.412" height="15.896"/>
	<path fill="#231F20" d="M104.426,21.592l2.83-3.135c1.26,1.072,2.613,1.875,5.566,1.875c2.061,0,2.523-0.398,2.523-1.078
		c0-0.893-0.617-0.736-3.566-1.078c-3.969-0.457-6.611-1.475-6.611-5.32c0-3.75,3.316-5.193,7.502-5.193
		c3.475,0,6.059,0.828,7.285,1.688l-2.457,3.57c-0.984-0.676-2.398-1.291-5.014-1.291c-2.119,0-2.367,0.52-2.367,0.982
		c0,0.584,0.461,0.859,2.953,1.049c3.598,0.273,7.564,1.01,7.564,5.283c0,3.816-2.891,5.477-7.596,5.477
		C109.07,24.42,106.336,23.434,104.426,21.592z"/>
	<path fill="#231F20" d="M130.605,20.268c1.662,0,2.924-0.369,3.66-1.936l4.582,1.443c-1.477,3.199-4.336,4.736-8.182,4.736
		c-4.979,0-8.607-3.043-8.607-8.305c0-5.348,3.412-8.574,8.516-8.574c3.967,0,8.92,2.273,8.307,9.686h-11.596
		C127.623,19.254,128.855,20.268,130.605,20.268z M133.713,14.213c-0.248-1.51-1.23-2.371-3.139-2.371
		c-1.719,0-2.859,0.559-3.258,2.371H133.713z"/>
</g>
</svg>
