<?xml version="1.0" encoding="utf-8"?>
<!-- Generator: Adobe Illustrator 16.0.4, SVG Export Plug-In . SVG Version: 6.00 Build 0)  -->
<!DOCTYPE svg PUBLIC "-//W3C//DTD SVG 1.1//EN" "http://www.w3.org/Graphics/SVG/1.1/DTD/svg11.dtd">
<svg version="1.1" id="Layer_1" xmlns="http://www.w3.org/2000/svg" xmlns:xlink="http://www.w3.org/1999/xlink" x="0px" y="0px"
	 width="140px" height="30px" viewBox="0 0 140 30" enable-background="new 0 0 140 30" xml:space="preserve">
<g>
	<g>
		<polygon fill="#27B4E8" points="35.165,19.008 23.432,7.227 23.432,7.227 23.385,7.227 23.385,7.227 23.383,7.227 19.374,7.227 
			19.374,11.287 19.374,11.287 31.042,23.068 31.042,23.068 35.165,23.068 35.165,19.07 		"/>
		<polygon fill="#8BC541" points="35.165,11.238 35.165,11.172 35.165,7.227 31.155,7.227 31.153,7.227 31.153,7.227 31.042,7.227 
			31.042,7.227 19.374,19.008 19.374,23.068 23.432,23.068 23.432,23.068 		"/>
	</g>
	<path fill="#231F20" d="M9.551,19.531c1.658,0,2.918-0.369,3.656-1.936l4.582,1.443c-1.477,3.199-4.334,4.736-8.184,4.736
		C4.627,23.775,1,20.732,1,15.471c0-5.348,3.41-8.574,8.516-8.574c3.971,0,8.918,2.273,8.305,9.686H6.229
		C6.564,18.518,7.793,19.531,9.551,19.531z M12.655,13.477c-0.246-1.51-1.23-2.371-3.139-2.371c-1.723,0-2.859,0.559-3.256,2.371
		H12.655z"/>
	<path fill="#231F20" d="M37.721,7.324h5.412l-0.062,2.338c0.926-1.568,2.277-2.766,4.889-2.766c4.152,0,6.674,2.979,6.674,8.271
		c0,5.318-2.336,8.486-6.305,8.486c-2.488,0-4.152-0.895-5.195-2.584v7.656h-5.412V7.324z M49.189,15.195
		c0-2.678-0.982-3.938-3.044-3.938c-1.844,0-3.105,1.633-3.105,3.971s1.262,3.934,3.105,3.934
		C48.147,19.162,49.189,17.869,49.189,15.195z"/>
	<path fill="#231F20" d="M56.211,15.471c0-5.348,3.564-8.574,8.545-8.574c4.982,0,8.486,3.414,8.486,8.395
		c0,5.381-3.564,8.484-8.515,8.484S56.211,20.732,56.211,15.471z M67.831,15.32c0-2.676-1.043-4.029-3.074-4.029
		c-1.936,0-3.105,1.26-3.105,4c0,2.676,1.076,4.24,3.105,4.24C66.752,19.531,67.831,17.967,67.831,15.32z"/>
	<path fill="#231F20" d="M84.432,7.062c-0.137-0.01-0.287-0.018-0.441-0.018c-1.385,0-2.801,0.803-3.596,2.217l0.059-1.938h-5.412
		v15.896h5.412v-8.207c0-2.062,0.678-2.982,2.215-2.982c0.768,0,1.754,0.012,1.754,0.012L84.432,7.062z"/>
	<path fill="#231F20" d="M97.387,2.473c0-1.545,1.111-2.473,2.664-2.473c1.551,0,2.643,0.98,2.643,2.414
		c0,1.551-1.113,2.447-2.652,2.447C98.498,4.861,97.387,3.984,97.387,2.473z"/>
	<path fill="#231F20" d="M86.33,11.596V7.324l0,0V3.129c1.539-0.98,5.168-2.078,5.168-2.078h0.244v6.273h3.262v4.271h-3.262v5.877
		c0,0.857,0.248,1.354,1.201,1.354c0.676,0,1.199-0.156,1.504-0.336h0.066v4.547c-0.617,0.248-1.941,0.617-3.535,0.617
		c-1.697,0-2.957-0.277-3.662-1.107c-0.646-0.736-0.986-1.814-0.986-3.508V11.596L86.33,11.596z"/>
	<rect x="97.328" y="7.324" fill="#231F20" width="5.412" height="15.896"/>
	<path fill="#231F20" d="M104.492,20.855l2.83-3.135c1.26,1.072,2.613,1.875,5.566,1.875c2.061,0,2.523-0.398,2.523-1.078
		c0-0.893-0.617-0.736-3.566-1.078c-3.969-0.457-6.611-1.475-6.611-5.32c0-3.75,3.316-5.193,7.502-5.193
		c3.475,0,6.059,0.828,7.285,1.688l-2.457,3.57c-0.984-0.676-2.398-1.291-5.014-1.291c-2.119,0-2.367,0.52-2.367,0.982
		c0,0.584,0.461,0.859,2.953,1.049c3.598,0.273,7.564,1.01,7.564,5.283c0,3.816-2.891,5.477-7.596,5.477
		C109.137,23.684,106.402,22.697,104.492,20.855z"/>
	<path fill="#231F20" d="M130.672,19.531c1.662,0,2.924-0.369,3.66-1.936l4.582,1.443c-1.477,3.199-4.336,4.736-8.182,4.736
		c-4.979,0-8.607-3.043-8.607-8.305c0-5.348,3.412-8.574,8.516-8.574c3.967,0,8.92,2.273,8.307,9.686h-11.596
		C127.689,18.518,128.922,19.531,130.672,19.531z M133.779,13.477c-0.248-1.51-1.23-2.371-3.139-2.371
		c-1.719,0-2.859,0.559-3.258,2.371H133.779z"/>
</g>
<rect x="24.41" y="12.308" transform="matrix(0.7072 0.707 -0.707 0.7072 18.6874 -14.8302)" fill="#1C931C" width="5.68" height="5.681"/>
</svg>
