<?xml version="1.0" encoding="utf-8"?>
<!-- Generator: Adobe Illustrator 16.0.4, SVG Export Plug-In . SVG Version: 6.00 Build 0)  -->
<!DOCTYPE svg PUBLIC "-//W3C//DTD SVG 1.1//EN" "http://www.w3.org/Graphics/SVG/1.1/DTD/svg11.dtd">
<svg version="1.1" id="Layer_1" xmlns="http://www.w3.org/2000/svg" xmlns:xlink="http://www.w3.org/1999/xlink" x="0px" y="0px"
	 width="60px" height="60px" viewBox="0 0 60 60" enable-background="new 0 0 60 60" xml:space="preserve">
<g>
	<g>
		<circle fill="#B7B7B7" cx="30" cy="30" r="28.5"/>
	</g>
</g>
<g>
	<path fill="#FFFFFF" d="M26.071,48.088c-1.055-0.97-1.583-2.221-1.583-3.751c0-1.532,0.537-2.789,1.607-3.774
		c1.072-0.988,2.373-1.482,3.903-1.482c1.598,0,2.925,0.494,3.979,1.482c1.055,0.984,1.565,2.242,1.532,3.774
		c-0.035,1.565-0.57,2.825-1.608,3.776c-1.037,0.953-2.338,1.43-3.902,1.43C28.434,49.543,27.126,49.058,26.071,48.088z
		 M24.59,10.458h10.665v9.693l-1.938,15.105h-6.788L24.59,20.151V10.458z"/>
</g>
</svg>
