<?xml version="1.0" encoding="utf-8"?>
<!-- Generator: Adobe Illustrator 16.0.4, SVG Export Plug-In . SVG Version: 6.00 Build 0)  -->
<!DOCTYPE svg PUBLIC "-//W3C//DTD SVG 1.1//EN" "http://www.w3.org/Graphics/SVG/1.1/DTD/svg11.dtd">
<svg version="1.1" id="Layer_1" xmlns="http://www.w3.org/2000/svg" xmlns:xlink="http://www.w3.org/1999/xlink" x="0px" y="0px"
	 width="60px" height="60px" viewBox="0 0 60 60" enable-background="new 0 0 60 60" xml:space="preserve">
<g>
	<g>
		<g>
			<path fill="#B7B7B7" d="M30,1.5C14.259,1.5,1.5,14.26,1.5,30c0,15.74,12.759,28.5,28.5,28.5c15.74,0,28.5-12.76,28.5-28.5
				C58.5,14.26,45.74,1.5,30,1.5z M30,46.765c-9.259,0-16.765-7.506-16.765-16.765c0-9.258,7.506-16.765,16.765-16.765
				c9.258,0,16.765,7.507,16.765,16.765C46.765,39.259,39.258,46.765,30,46.765z M30,20.88c-5.037,0-9.121,4.082-9.121,9.12
				c0,5.037,4.083,9.121,9.121,9.121s9.121-4.084,9.121-9.121C39.121,24.962,35.037,20.88,30,20.88z"/>
		</g>
	</g>
</g>
</svg>
