<?xml version="1.0" encoding="utf-8"?>
<!-- Generator: Adobe Illustrator 16.0.4, SVG Export Plug-In . SVG Version: 6.00 Build 0)  -->
<!DOCTYPE svg PUBLIC "-//W3C//DTD SVG 1.1//EN" "http://www.w3.org/Graphics/SVG/1.1/DTD/svg11.dtd">
<svg version="1.1" id="Layer_1" xmlns="http://www.w3.org/2000/svg" xmlns:xlink="http://www.w3.org/1999/xlink" x="0px" y="0px"
	 width="30px" height="60px" viewBox="0 0 30 60" enable-background="new 0 0 30 60" xml:space="preserve">
<path fill="#B6B6B7" d="M27.5,7.248c-0.92,0.408-1.908,0.684-2.945,0.808c1.059-0.635,1.872-1.64,2.255-2.838
	c-0.991,0.588-2.089,1.015-3.257,1.245c-0.936-0.997-2.27-1.62-3.744-1.62c-2.833,0-5.129,2.296-5.129,5.129
	c0,0.402,0.045,0.793,0.133,1.169C10.549,10.927,6.77,8.885,4.24,5.782C3.799,6.539,3.546,7.42,3.546,8.36
	c0,1.779,0.906,3.349,2.282,4.269c-0.841-0.027-1.631-0.257-2.323-0.642c-0.001,0.021-0.001,0.043-0.001,0.064
	c0,2.485,1.768,4.558,4.115,5.03c-0.431,0.117-0.884,0.18-1.352,0.18c-0.331,0-0.652-0.032-0.965-0.092
	c0.653,2.037,2.547,3.521,4.792,3.562c-1.756,1.376-3.967,2.195-6.37,2.195c-0.414,0-0.822-0.023-1.224-0.071
	c2.27,1.455,4.966,2.305,7.862,2.305c9.435,0,14.593-7.815,14.593-14.594c0-0.222-0.005-0.443-0.015-0.664
	C25.943,9.18,26.812,8.276,27.5,7.248z"/>
<path fill="#27B4E8" d="M27.5,37.248c-0.92,0.408-1.908,0.684-2.945,0.808c1.059-0.635,1.872-1.64,2.255-2.838
	c-0.991,0.588-2.089,1.015-3.257,1.245c-0.936-0.997-2.27-1.62-3.744-1.62c-2.833,0-5.129,2.296-5.129,5.129
	c0,0.402,0.045,0.794,0.133,1.169c-4.263-0.214-8.042-2.256-10.572-5.359c-0.441,0.758-0.694,1.639-0.694,2.579
	c0,1.779,0.906,3.349,2.282,4.269c-0.841-0.026-1.631-0.257-2.323-0.641c-0.001,0.021-0.001,0.043-0.001,0.064
	c0,2.484,1.768,4.558,4.115,5.029c-0.431,0.117-0.884,0.18-1.352,0.18c-0.331,0-0.652-0.032-0.965-0.092
	c0.653,2.037,2.547,3.521,4.792,3.562c-1.756,1.376-3.967,2.195-6.37,2.195c-0.414,0-0.822-0.023-1.224-0.071
	c2.27,1.455,4.966,2.305,7.862,2.305c9.435,0,14.593-7.815,14.593-14.594c0-0.223-0.005-0.443-0.015-0.664
	C25.943,39.18,26.812,38.276,27.5,37.248z"/>
</svg>
